<?xml version="1.0" encoding="UTF-8" standalone="no"?>
<!DOCTYPE svg PUBLIC "-//W3C//DTD SVG 1.1//EN"
 "http://www.w3.org/Graphics/SVG/1.1/DTD/svg11.dtd">
<!-- Generated by graphviz version 12.1.0 (20240811.2233)
 -->
<!-- Title: include/TramposoLibrary/AudioManager.h Pages: 1 -->
<svg width="340pt" height="96pt"
 viewBox="0.00 0.00 339.50 96.00" xmlns="http://www.w3.org/2000/svg" xmlns:xlink="http://www.w3.org/1999/xlink">
<g id="graph0" class="graph" transform="scale(1 1) rotate(0) translate(4 92)">
<title>include/TramposoLibrary/AudioManager.h</title>
<!-- Node1 -->
<g id="Node000001" class="node">
<title>Node1</title>
<g id="a_Node000001"><a xlink:title=" ">
<polygon fill="#999999" stroke="#666666" points="245,-88 122.5,-88 122.5,-56 245,-56 245,-88"/>
<text text-anchor="start" x="130.5" y="-74.5" font-family="Helvetica,sans-Serif" font-size="10.00">include/TramposoLibrary</text>
<text text-anchor="middle" x="183.75" y="-62.5" font-family="Helvetica,sans-Serif" font-size="10.00">/AudioManager.h</text>
</a>
</g>
</g>
<!-- Node2 -->
<g id="Node000002" class="node">
<title>Node2</title>
<g id="a_Node000002"><a xlink:href="_audio_manager_8cpp.html" target="_top" xlink:title=" ">
<polygon fill="white" stroke="#666666" points="113.5,-20 0,-20 0,0 113.5,0 113.5,-20"/>
<text text-anchor="middle" x="56.75" y="-6.5" font-family="Helvetica,sans-Serif" font-size="10.00">src/AudioManager.cpp</text>
</a>
</g>
</g>
<!-- Node1&#45;&gt;Node2 -->
<g id="edge1_Node000001_Node000002" class="edge">
<title>Node1&#45;&gt;Node2</title>
<g id="a_edge1_Node000001_Node000002"><a xlink:title=" ">
<path fill="none" stroke="#63b8ff" d="M140.73,-50.68C119.04,-40.43 93.77,-28.49 76.66,-20.41"/>
<polygon fill="#63b8ff" stroke="#63b8ff" points="139.14,-53.79 149.68,-54.9 142.13,-47.47 139.14,-53.79"/>
</a>
</g>
</g>
<!-- Node3 -->
<g id="Node000003" class="node">
<title>Node3</title>
<g id="a_Node000003"><a xlink:href="_catch_game_8cpp.html" target="_top" xlink:title=" ">
<polygon fill="white" stroke="#666666" points="235.62,-20 131.88,-20 131.88,0 235.62,0 235.62,-20"/>
<text text-anchor="middle" x="183.75" y="-6.5" font-family="Helvetica,sans-Serif" font-size="10.00">src/CatchGame.cpp</text>
</a>
</g>
</g>
<!-- Node1&#45;&gt;Node3 -->
<g id="edge2_Node000001_Node000003" class="edge">
<title>Node1&#45;&gt;Node3</title>
<g id="a_edge2_Node000001_Node000003"><a xlink:title=" ">
<path fill="none" stroke="#63b8ff" d="M183.75,-44.08C183.75,-35.6 183.75,-26.8 183.75,-20.41"/>
<polygon fill="#63b8ff" stroke="#63b8ff" points="180.25,-44.03 183.75,-54.03 187.25,-44.03 180.25,-44.03"/>
</a>
</g>
</g>
<!-- Node4 -->
<g id="Node000004" class="node">
<title>Node4</title>
<g id="a_Node000004"><a xlink:href="_game_8cpp.html" target="_top" xlink:title=" ">
<polygon fill="white" stroke="#666666" points="331.5,-20 254,-20 254,0 331.5,0 331.5,-20"/>
<text text-anchor="middle" x="292.75" y="-6.5" font-family="Helvetica,sans-Serif" font-size="10.00">src/Game.cpp</text>
</a>
</g>
</g>
<!-- Node1&#45;&gt;Node4 -->
<g id="edge3_Node000001_Node000004" class="edge">
<title>Node1&#45;&gt;Node4</title>
<g id="a_edge3_Node000001_Node000004"><a xlink:title=" ">
<path fill="none" stroke="#63b8ff" d="M221.69,-50.12C240.08,-39.99 261.24,-28.34 275.66,-20.41"/>
<polygon fill="#63b8ff" stroke="#63b8ff" points="220.22,-46.93 213.15,-54.82 223.59,-53.06 220.22,-46.93"/>
</a>
</g>
</g>
</g>
</svg>
