<?xml version="1.0" encoding="UTF-8" standalone="no"?>
<!DOCTYPE svg PUBLIC "-//W3C//DTD SVG 1.1//EN"
 "http://www.w3.org/Graphics/SVG/1.1/DTD/svg11.dtd">
<!-- Generated by graphviz version 12.1.0 (20240811.2233)
 -->
<!-- Title: src/AudioManager.cpp Pages: 1 -->
<svg width="278pt" height="140pt"
 viewBox="0.00 0.00 277.88 140.00" xmlns="http://www.w3.org/2000/svg" xmlns:xlink="http://www.w3.org/1999/xlink">

<svg id="main" version="1.1" xmlns="http://www.w3.org/2000/svg" xmlns:xlink="http://www.w3.org/1999/xlink" xml:space="preserve">

<style type="text/css"><![CDATA[
.node, .edge {opacity: 0.7;}
.node.selected, .edge.selected {opacity: 1;}
.edge:hover path { stroke: red; }
.edge:hover polygon { stroke: red; fill: red; }
]]></style>
<script type="application/ecmascript" xlink:href="svg.min.js"/>
<svg id="graph" class="graph">
<g id="graph0" class="graph" transform="scale(1 1) rotate(0) translate(4 136)">
<title>src/AudioManager.cpp</title>
<!-- Node1 -->
<g id="Node000001" class="node">
<title>Node1</title>
<g id="a_Node000001"><a xlink:title=" ">
<polygon fill="#999999" stroke="#666666" points="232.25,-132 118.75,-132 118.75,-112 232.25,-112 232.25,-132"/>
<text text-anchor="middle" x="175.5" y="-118.5" font-family="Helvetica,sans-Serif" font-size="10.00">src/AudioManager.cpp</text>
</a>
</g>
</g>
<!-- Node2 -->
<g id="Node000002" class="node">
<title>Node2</title>
<g id="a_Node000002"><a xlink:href="_audio_manager_8h.html" target="_top" xlink:title=" ">
<polygon fill="white" stroke="#666666" points="192.62,-76 30.38,-76 30.38,-56 192.62,-56 192.62,-76"/>
<text text-anchor="middle" x="111.5" y="-62.5" font-family="Helvetica,sans-Serif" font-size="10.00">TramposoLibrary/AudioManager.h</text>
</a>
</g>
</g>
<!-- Node1&#45;&gt;Node2 -->
<g id="edge1_Node000001_Node000002" class="edge">
<title>Node1&#45;&gt;Node2</title>
<g id="a_edge1_Node000001_Node000002"><a xlink:title=" ">
<path fill="none" stroke="#63b8ff" d="M164.35,-111.59C155.17,-103.85 141.95,-92.69 131.02,-83.47"/>
<polygon fill="#63b8ff" stroke="#63b8ff" points="133.58,-81.05 123.68,-77.27 129.06,-86.4 133.58,-81.05"/>
</a>
</g>
</g>
<!-- Node6 -->
<g id="Node000006" class="node">
<title>Node6</title>
<g id="a_Node000006"><a xlink:title=" ">
<polygon fill="#e0e0e0" stroke="#999999" points="269.88,-76 211.12,-76 211.12,-56 269.88,-56 269.88,-76"/>
<text text-anchor="middle" x="240.5" y="-62.5" font-family="Helvetica,sans-Serif" font-size="10.00">stdexcept</text>
</a>
</g>
</g>
<!-- Node1&#45;&gt;Node6 -->
<g id="edge5_Node000001_Node000006" class="edge">
<title>Node1&#45;&gt;Node6</title>
<g id="a_edge5_Node000001_Node000006"><a xlink:title=" ">
<path fill="none" stroke="#63b8ff" d="M186.82,-111.59C196.14,-103.85 209.58,-92.69 220.68,-83.47"/>
<polygon fill="#63b8ff" stroke="#63b8ff" points="222.69,-86.35 228.14,-77.27 218.21,-80.96 222.69,-86.35"/>
</a>
</g>
</g>
<!-- Node3 -->
<g id="Node000003" class="node">
<title>Node3</title>
<g id="a_Node000003"><a xlink:title=" ">
<polygon fill="#e0e0e0" stroke="#999999" points="73,-20 0,-20 0,0 73,0 73,-20"/>
<text text-anchor="middle" x="36.5" y="-6.5" font-family="Helvetica,sans-Serif" font-size="10.00">SDL_mixer.h</text>
</a>
</g>
</g>
<!-- Node2&#45;&gt;Node3 -->
<g id="edge2_Node000002_Node000003" class="edge">
<title>Node2&#45;&gt;Node3</title>
<g id="a_edge2_Node000002_Node000003"><a xlink:title=" ">
<path fill="none" stroke="#63b8ff" d="M98.44,-55.59C87.53,-47.74 71.75,-36.38 58.84,-27.09"/>
<polygon fill="#63b8ff" stroke="#63b8ff" points="61.05,-24.37 50.89,-21.36 56.96,-30.05 61.05,-24.37"/>
</a>
</g>
</g>
<!-- Node4 -->
<g id="Node000004" class="node">
<title>Node4</title>
<g id="a_Node000004"><a xlink:title=" ">
<polygon fill="#e0e0e0" stroke="#999999" points="131.5,-20 91.5,-20 91.5,0 131.5,0 131.5,-20"/>
<text text-anchor="middle" x="111.5" y="-6.5" font-family="Helvetica,sans-Serif" font-size="10.00">string</text>
</a>
</g>
</g>
<!-- Node2&#45;&gt;Node4 -->
<g id="edge3_Node000002_Node000004" class="edge">
<title>Node2&#45;&gt;Node4</title>
<g id="a_edge3_Node000002_Node000004"><a xlink:title=" ">
<path fill="none" stroke="#63b8ff" d="M111.5,-55.59C111.5,-49.01 111.5,-39.96 111.5,-31.73"/>
<polygon fill="#63b8ff" stroke="#63b8ff" points="115,-31.81 111.5,-21.81 108,-31.81 115,-31.81"/>
</a>
</g>
</g>
<!-- Node5 -->
<g id="Node000005" class="node">
<title>Node5</title>
<g id="a_Node000005"><a xlink:title=" ">
<polygon fill="#e0e0e0" stroke="#999999" points="231.88,-20 149.12,-20 149.12,0 231.88,0 231.88,-20"/>
<text text-anchor="middle" x="190.5" y="-6.5" font-family="Helvetica,sans-Serif" font-size="10.00">unordered_map</text>
</a>
</g>
</g>
<!-- Node2&#45;&gt;Node5 -->
<g id="edge4_Node000002_Node000005" class="edge">
<title>Node2&#45;&gt;Node5</title>
<g id="a_edge4_Node000002_Node000005"><a xlink:title=" ">
<path fill="none" stroke="#63b8ff" d="M125.26,-55.59C136.86,-47.67 153.7,-36.16 167.36,-26.82"/>
<polygon fill="#63b8ff" stroke="#63b8ff" points="169.1,-29.87 175.38,-21.33 165.15,-24.09 169.1,-29.87"/>
</a>
</g>
</g>
</g>
</svg>
</svg>

<style type='text/css'>
<![CDATA[
[data-mouse-over-selected='false'] { opacity: 0.7; }
[data-mouse-over-selected='true']  { opacity: 1.0; }
]]>
</style>
<script type="application/ecmascript"><![CDATA[
document.addEventListener('DOMContentLoaded', (event) => {
  highlightEdges();
  highlightAdjacentNodes();
});
]]></script>
</svg>
