<?xml version="1.0" encoding="UTF-8" standalone="no"?>
<!DOCTYPE svg PUBLIC "-//W3C//DTD SVG 1.1//EN"
 "http://www.w3.org/Graphics/SVG/1.1/DTD/svg11.dtd">
<!-- Generated by graphviz version 12.1.0 (20240811.2233)
 -->
<!-- Title: src/CatchGame.cpp Pages: 1 -->
<!--zoomable 264 -->

<svg id="main" version="1.1" xmlns="http://www.w3.org/2000/svg" xmlns:xlink="http://www.w3.org/1999/xlink" xml:space="preserve" onload="init(evt)">

<style type="text/css"><![CDATA[
.node, .edge {opacity: 0.7;}
.node.selected, .edge.selected {opacity: 1;}
.edge:hover path { stroke: red; }
.edge:hover polygon { stroke: red; fill: red; }
]]></style>

<defs>
  <circle id="rim" cx="0" cy="0" r="7"/>
  <circle id="rim2" cx="0" cy="0" r="3.5"/>
  <g id="zoomPlus">
    <use xlink:href="#rim" fill="#404040"><set attributeName="fill" to="#808080" begin="zoomplus.mouseover" end="zoomplus.mouseout"/></use>
    <path d="M-4,0h8M0,-4v8" fill="none" stroke="white" stroke-width="1.5" pointer-events="none"/>
  </g>
  <g id="zoomMin">
    <use xlink:href="#rim" fill="#404040"><set attributeName="fill" to="#808080" begin="zoomminus.mouseover" end="zoomminus.mouseout"/></use>
    <path d="M-4,0h8" fill="none" stroke="white" stroke-width="1.5" pointer-events="none"/>
  </g>
  <g id="arrowUp" transform="translate(30 24)">
    <use xlink:href="#rim"/>
    <path pointer-events="none" fill="none" stroke="white" stroke-width="1.5" d="M0,-3.0v7 M-2.5,-0.5L0,-3.0L2.5,-0.5"/>
  </g>
  <g id="arrowRight" transform="rotate(90) translate(36 -43)">
    <use xlink:href="#rim"/>
    <path pointer-events="none" fill="none" stroke="white" stroke-width="1.5" d="M0,-3.0v7 M-2.5,-0.5L0,-3.0L2.5,-0.5"/>
  </g>
  <g id="arrowDown" transform="rotate(180) translate(-30 -48)">
    <use xlink:href="#rim"/>
    <path pointer-events="none" fill="none" stroke="white" stroke-width="1.5" d="M0,-3.0v7 M-2.5,-0.5L0,-3.0L2.5,-0.5"/>
  </g>
  <g id="arrowLeft" transform="rotate(270) translate(-36 17)">
    <use xlink:href="#rim"/>
    <path pointer-events="none" fill="none" stroke="white" stroke-width="1.5" d="M0,-3.0v7 M-2.5,-0.5L0,-3.0L2.5,-0.5"/>
  </g>
  <g id="resetDef">
    <use xlink:href="#rim2" fill="#404040"><set attributeName="fill" to="#808080" begin="reset.mouseover" end="reset.mouseout"/></use>
  </g>
</defs>
<script type="application/ecmascript">
var viewWidth = 1047;
var viewHeight = 264;
var sectionId = 'dynsection-0';
</script>
<script type="application/ecmascript" xlink:href="svg.min.js"/>
<svg id="graph" class="graph">
<g id="viewport">
<title>src/CatchGame.cpp</title>
<!-- Node1 -->
<g id="Node000001" class="node">
<title>Node1</title>
<g id="a_Node000001"><a xlink:title=" ">
<polygon fill="#999999" stroke="#666666" points="548.5,-256 444.75,-256 444.75,-236 548.5,-236 548.5,-256"/>
<text text-anchor="middle" x="496.62" y="-242.5" font-family="Helvetica,sans-Serif" font-size="10.00">src/CatchGame.cpp</text>
</a>
</g>
</g>
<!-- Node2 -->
<g id="Node000002" class="node">
<title>Node2</title>
<g id="a_Node000002"><a xlink:href="_game_8h.html" target="_top" xlink:title=" ">
<polygon fill="white" stroke="#666666" points="468.75,-194 342.5,-194 342.5,-174 468.75,-174 468.75,-194"/>
<text text-anchor="middle" x="405.62" y="-180.5" font-family="Helvetica,sans-Serif" font-size="10.00">TramposoLibrary/Game.h</text>
</a>
</g>
</g>
<!-- Node1&#45;&gt;Node2 -->
<g id="edge1_Node000001_Node000002" class="edge">
<title>Node1&#45;&gt;Node2</title>
<g id="a_edge1_Node000001_Node000002"><a xlink:title=" ">
<path fill="none" stroke="#63b8ff" d="M482.41,-235.62C468.12,-226.2 445.84,-211.52 428.96,-200.39"/>
<polygon fill="#63b8ff" stroke="#63b8ff" points="431.28,-197.72 421.01,-195.14 427.43,-203.57 431.28,-197.72"/>
</a>
</g>
</g>
<!-- Node3 -->
<g id="Node000003" class="node">
<title>Node3</title>
<g id="a_Node000003"><a xlink:title=" ">
<polygon fill="#e0e0e0" stroke="#999999" points="480.5,-20 436.75,-20 436.75,0 480.5,0 480.5,-20"/>
<text text-anchor="middle" x="458.62" y="-6.5" font-family="Helvetica,sans-Serif" font-size="10.00">SDL.h</text>
</a>
</g>
</g>
<!-- Node1&#45;&gt;Node3 -->
<g id="edge33_Node000001_Node000003" class="edge">
<title>Node1&#45;&gt;Node3</title>
<g id="a_edge33_Node000001_Node000003"><a xlink:title=" ">
<path fill="none" stroke="#63b8ff" d="M495.09,-235.54C489.45,-200.84 469.85,-80.13 461.96,-31.52"/>
<polygon fill="#63b8ff" stroke="#63b8ff" points="465.44,-31.13 460.38,-21.82 458.53,-32.25 465.44,-31.13"/>
</a>
</g>
</g>
<!-- Node5 -->
<g id="Node000005" class="node">
<title>Node5</title>
<g id="a_Node000005"><a xlink:title=" ">
<polygon fill="#e0e0e0" stroke="#999999" points="51.25,-20 0,-20 0,0 51.25,0 51.25,-20"/>
<text text-anchor="middle" x="25.62" y="-6.5" font-family="Helvetica,sans-Serif" font-size="10.00">memory</text>
</a>
</g>
</g>
<!-- Node1&#45;&gt;Node5 -->
<g id="edge30_Node000001_Node000005" class="edge">
<title>Node1&#45;&gt;Node5</title>
<g id="a_edge30_Node000001_Node000005"><a xlink:title=" ">
<path fill="none" stroke="#63b8ff" d="M444.35,-241.22C366.06,-234.98 222.54,-221.05 175.62,-200 97.95,-165.15 67.73,-152.13 29.62,-76 22.8,-62.36 22.06,-45.05 22.88,-31.72"/>
<polygon fill="#63b8ff" stroke="#63b8ff" points="26.35,-32.22 23.85,-21.92 19.38,-31.52 26.35,-32.22"/>
</a>
</g>
</g>
<!-- Node7 -->
<g id="Node000007" class="node">
<title>Node7</title>
<g id="a_Node000007"><a xlink:href="_scene_8h.html" target="_top" xlink:title=" ">
<polygon fill="white" stroke="#666666" points="286.5,-132 158.75,-132 158.75,-112 286.5,-112 286.5,-132"/>
<text text-anchor="middle" x="222.62" y="-118.5" font-family="Helvetica,sans-Serif" font-size="10.00">TramposoLibrary/Scene.h</text>
</a>
</g>
</g>
<!-- Node1&#45;&gt;Node7 -->
<g id="edge16_Node000001_Node000007" class="edge">
<title>Node1&#45;&gt;Node7</title>
<g id="a_edge16_Node000001_Node000007"><a xlink:title=" ">
<path fill="none" stroke="#63b8ff" d="M444.33,-240.86C403.16,-235.8 345.45,-224.63 300.62,-200 273.89,-185.31 250.05,-158.83 235.96,-141.08"/>
<polygon fill="#63b8ff" stroke="#63b8ff" points="238.97,-139.25 230.11,-133.44 233.42,-143.51 238.97,-139.25"/>
</a>
</g>
</g>
<!-- Node9 -->
<g id="Node000009" class="node">
<title>Node9</title>
<g id="a_Node000009"><a xlink:href="_sprite_8h.html" target="_top" xlink:title=" ">
<polygon fill="white" stroke="#666666" points="214.38,-76 88.88,-76 88.88,-56 214.38,-56 214.38,-76"/>
<text text-anchor="middle" x="151.62" y="-62.5" font-family="Helvetica,sans-Serif" font-size="10.00">TramposoLibrary/Sprite.h</text>
</a>
</g>
</g>
<!-- Node1&#45;&gt;Node9 -->
<g id="edge15_Node000001_Node000009" class="edge">
<title>Node1&#45;&gt;Node9</title>
<g id="a_edge15_Node000001_Node000009"><a xlink:title=" ">
<path fill="none" stroke="#63b8ff" d="M444.49,-240.97C394.78,-235.82 318.54,-224.42 256.62,-200 204.21,-179.32 176.75,-181.39 149.62,-132 142.13,-118.36 143.29,-100.57 145.95,-87.05"/>
<polygon fill="#63b8ff" stroke="#63b8ff" points="149.3,-88.09 148.26,-77.55 142.5,-86.44 149.3,-88.09"/>
</a>
</g>
</g>
<!-- Node11 -->
<g id="Node000011" class="node">
<title>Node11</title>
<g id="a_Node000011"><a xlink:href="_input_manager_8h.html" target="_top" xlink:title=" ">
<polygon fill="white" stroke="#666666" points="430.25,-76 271,-76 271,-56 430.25,-56 430.25,-76"/>
<text text-anchor="middle" x="350.62" y="-62.5" font-family="Helvetica,sans-Serif" font-size="10.00">TramposoLibrary/InputManager.h</text>
</a>
</g>
</g>
<!-- Node1&#45;&gt;Node11 -->
<g id="edge17_Node000001_Node000011" class="edge">
<title>Node1&#45;&gt;Node11</title>
<g id="a_edge17_Node000001_Node000011"><a xlink:title=" ">
<path fill="none" stroke="#63b8ff" d="M444.47,-237.54C402.07,-230.29 347.14,-217.75 333.62,-200 308.22,-166.63 327,-114.35 340.35,-86.31"/>
<polygon fill="#63b8ff" stroke="#63b8ff" points="343.38,-88.07 344.75,-77.56 337.13,-84.92 343.38,-88.07"/>
</a>
</g>
</g>
<!-- Node13 -->
<g id="Node000013" class="node">
<title>Node13</title>
<g id="a_Node000013"><a xlink:href="_audio_manager_8h.html" target="_top" xlink:title=" ">
<polygon fill="white" stroke="#666666" points="834.75,-194 672.5,-194 672.5,-174 834.75,-174 834.75,-194"/>
<text text-anchor="middle" x="753.62" y="-180.5" font-family="Helvetica,sans-Serif" font-size="10.00">TramposoLibrary/AudioManager.h</text>
</a>
</g>
</g>
<!-- Node1&#45;&gt;Node13 -->
<g id="edge21_Node000001_Node000013" class="edge">
<title>Node1&#45;&gt;Node13</title>
<g id="a_edge21_Node000001_Node000013"><a xlink:title=" ">
<path fill="none" stroke="#63b8ff" d="M537.06,-235.56C581.65,-225.15 653.5,-208.38 702.09,-197.03"/>
<polygon fill="#63b8ff" stroke="#63b8ff" points="702.58,-200.51 711.52,-194.83 700.99,-193.69 702.58,-200.51"/>
</a>
</g>
</g>
<!-- Node15 -->
<g id="Node000015" class="node">
<title>Node15</title>
<g id="a_Node000015"><a xlink:href="_collision_manager_8h.html" target="_top" xlink:title=" ">
<polygon fill="white" stroke="#666666" points="654.25,-200 525,-200 525,-168 654.25,-168 654.25,-200"/>
<text text-anchor="start" x="533" y="-186.5" font-family="Helvetica,sans-Serif" font-size="10.00">TramposoLibrary/Collision</text>
<text text-anchor="middle" x="589.62" y="-174.5" font-family="Helvetica,sans-Serif" font-size="10.00">Manager.h</text>
</a>
</g>
</g>
<!-- Node1&#45;&gt;Node15 -->
<g id="edge25_Node000001_Node000015" class="edge">
<title>Node1&#45;&gt;Node15</title>
<g id="a_edge25_Node000001_Node000015"><a xlink:title=" ">
<path fill="none" stroke="#63b8ff" d="M511.16,-235.62C523.26,-227.82 540.95,-216.4 556.48,-206.38"/>
<polygon fill="#63b8ff" stroke="#63b8ff" points="558.02,-209.56 564.52,-201.19 554.22,-203.67 558.02,-209.56"/>
</a>
</g>
</g>
<!-- Node16 -->
<g id="Node000016" class="node">
<title>Node16</title>
<g id="a_Node000016"><a xlink:title=" ">
<polygon fill="#e0e0e0" stroke="#999999" points="900.75,-194 852.5,-194 852.5,-174 900.75,-174 900.75,-194"/>
<text text-anchor="middle" x="876.62" y="-180.5" font-family="Helvetica,sans-Serif" font-size="10.00">random</text>
</a>
</g>
</g>
<!-- Node1&#45;&gt;Node16 -->
<g id="edge29_Node000001_Node000016" class="edge">
<title>Node1&#45;&gt;Node16</title>
<g id="a_edge29_Node000001_Node000016"><a xlink:title=" ">
<path fill="none" stroke="#63b8ff" d="M548.74,-243.06C617.49,-239.42 741.68,-229.07 843.62,-200 845.02,-199.6 846.43,-199.15 847.85,-198.67"/>
<polygon fill="#63b8ff" stroke="#63b8ff" points="849.1,-201.94 857.09,-194.97 846.5,-195.44 849.1,-201.94"/>
</a>
</g>
</g>
<!-- Node17 -->
<g id="Node000017" class="node">
<title>Node17</title>
<g id="a_Node000017"><a xlink:title=" ">
<polygon fill="#e0e0e0" stroke="#999999" points="972.38,-194 918.88,-194 918.88,-174 972.38,-174 972.38,-194"/>
<text text-anchor="middle" x="945.62" y="-180.5" font-family="Helvetica,sans-Serif" font-size="10.00">iostream</text>
</a>
</g>
</g>
<!-- Node1&#45;&gt;Node17 -->
<g id="edge31_Node000001_Node000017" class="edge">
<title>Node1&#45;&gt;Node17</title>
<g id="a_edge31_Node000001_Node000017"><a xlink:title=" ">
<path fill="none" stroke="#63b8ff" d="M548.99,-244.07C628.23,-241.59 782.84,-232.6 909.62,-200 911.47,-199.52 913.35,-198.97 915.23,-198.37"/>
<polygon fill="#63b8ff" stroke="#63b8ff" points="916.21,-201.73 924.37,-194.98 913.78,-195.17 916.21,-201.73"/>
</a>
</g>
</g>
<!-- Node18 -->
<g id="Node000018" class="node">
<title>Node18</title>
<g id="a_Node000018"><a xlink:title=" ">
<polygon fill="#e0e0e0" stroke="#999999" points="1039.12,-194 990.12,-194 990.12,-174 1039.12,-174 1039.12,-194"/>
<text text-anchor="middle" x="1014.62" y="-180.5" font-family="Helvetica,sans-Serif" font-size="10.00">fstream</text>
</a>
</g>
</g>
<!-- Node1&#45;&gt;Node18 -->
<g id="edge32_Node000001_Node000018" class="edge">
<title>Node1&#45;&gt;Node18</title>
<g id="a_edge32_Node000001_Node000018"><a xlink:title=" ">
<path fill="none" stroke="#63b8ff" d="M548.94,-245.8C638.94,-245.93 828.18,-240.75 981.62,-200 983.22,-199.58 984.84,-199.08 986.45,-198.53"/>
<polygon fill="#63b8ff" stroke="#63b8ff" points="987.47,-201.9 995.47,-194.94 984.88,-195.39 987.47,-201.9"/>
</a>
</g>
</g>
<!-- Node2&#45;&gt;Node3 -->
<g id="edge2_Node000002_Node000003" class="edge">
<title>Node2&#45;&gt;Node3</title>
<g id="a_edge2_Node000002_Node000003"><a xlink:title=" ">
<path fill="none" stroke="#63b8ff" d="M408.7,-173.58C414.76,-154.97 428.59,-112.17 439.62,-76 444.2,-61 449.16,-43.99 452.87,-31.13"/>
<polygon fill="#63b8ff" stroke="#63b8ff" points="456.17,-32.31 455.57,-21.73 449.45,-30.38 456.17,-32.31"/>
</a>
</g>
</g>
<!-- Node4 -->
<g id="Node000004" class="node">
<title>Node4</title>
<g id="a_Node000004"><a xlink:title=" ">
<polygon fill="#e0e0e0" stroke="#999999" points="642.62,-20 602.62,-20 602.62,0 642.62,0 642.62,-20"/>
<text text-anchor="middle" x="622.62" y="-6.5" font-family="Helvetica,sans-Serif" font-size="10.00">string</text>
</a>
</g>
</g>
<!-- Node2&#45;&gt;Node4 -->
<g id="edge3_Node000002_Node000004" class="edge">
<title>Node2&#45;&gt;Node4</title>
<g id="a_edge3_Node000002_Node000004"><a xlink:title=" ">
<path fill="none" stroke="#63b8ff" d="M417.6,-173.51C452.95,-145.49 557.14,-62.91 601.85,-27.46"/>
<polygon fill="#63b8ff" stroke="#63b8ff" points="603.84,-30.36 609.5,-21.4 599.49,-24.87 603.84,-30.36"/>
</a>
</g>
</g>
<!-- Node2&#45;&gt;Node5 -->
<g id="edge4_Node000002_Node000005" class="edge">
<title>Node2&#45;&gt;Node5</title>
<g id="a_edge4_Node000002_Node000005"><a xlink:title=" ">
<path fill="none" stroke="#63b8ff" d="M394.6,-173.65C375.69,-158.15 335.27,-127.34 295.62,-112 204.86,-76.88 164.02,-124.47 79.62,-76 60.79,-65.18 45.68,-45.13 36.28,-30.15"/>
<polygon fill="#63b8ff" stroke="#63b8ff" points="39.36,-28.47 31.25,-21.64 33.33,-32.03 39.36,-28.47"/>
</a>
</g>
</g>
<!-- Node6 -->
<g id="Node000006" class="node">
<title>Node6</title>
<g id="a_Node000006"><a xlink:title=" ">
<polygon fill="#e0e0e0" stroke="#999999" points="683,-132 600.25,-132 600.25,-112 683,-112 683,-132"/>
<text text-anchor="middle" x="641.62" y="-118.5" font-family="Helvetica,sans-Serif" font-size="10.00">unordered_map</text>
</a>
</g>
</g>
<!-- Node2&#45;&gt;Node6 -->
<g id="edge5_Node000002_Node000006" class="edge">
<title>Node2&#45;&gt;Node6</title>
<g id="a_edge5_Node000002_Node000006"><a xlink:title=" ">
<path fill="none" stroke="#63b8ff" d="M442.76,-173.56C483.36,-163.24 548.57,-146.66 593.17,-135.32"/>
<polygon fill="#63b8ff" stroke="#63b8ff" points="594.02,-138.71 602.85,-132.86 592.3,-131.93 594.02,-138.71"/>
</a>
</g>
</g>
<!-- Node2&#45;&gt;Node7 -->
<g id="edge6_Node000002_Node000007" class="edge">
<title>Node2&#45;&gt;Node7</title>
<g id="a_edge6_Node000002_Node000007"><a xlink:title=" ">
<path fill="none" stroke="#63b8ff" d="M377.03,-173.62C346.1,-163.48 296.58,-147.25 261.98,-135.9"/>
<polygon fill="#63b8ff" stroke="#63b8ff" points="263.35,-132.67 252.76,-132.88 261.17,-139.32 263.35,-132.67"/>
</a>
</g>
</g>
<!-- Node7&#45;&gt;Node5 -->
<g id="edge7_Node000007_Node000005" class="edge">
<title>Node7&#45;&gt;Node5</title>
<g id="a_edge7_Node000007_Node000005"><a xlink:title=" ">
<path fill="none" stroke="#63b8ff" d="M158.4,-119.43C121.42,-115.24 76.5,-104.08 46.62,-76 34.46,-64.57 29.32,-46.06 27.16,-31.71"/>
<polygon fill="#63b8ff" stroke="#63b8ff" points="30.66,-31.51 26.1,-21.95 23.71,-32.27 30.66,-31.51"/>
</a>
</g>
</g>
<!-- Node8 -->
<g id="Node000008" class="node">
<title>Node8</title>
<g id="a_Node000008"><a xlink:title=" ">
<polygon fill="#e0e0e0" stroke="#999999" points="283.12,-20 240.12,-20 240.12,0 283.12,0 283.12,-20"/>
<text text-anchor="middle" x="261.62" y="-6.5" font-family="Helvetica,sans-Serif" font-size="10.00">vector</text>
</a>
</g>
</g>
<!-- Node7&#45;&gt;Node8 -->
<g id="edge8_Node000007_Node000008" class="edge">
<title>Node7&#45;&gt;Node8</title>
<g id="a_edge8_Node000007_Node000008"><a xlink:title=" ">
<path fill="none" stroke="#63b8ff" d="M225.95,-111.62C232.25,-93.84 246.07,-54.88 254.54,-31"/>
<polygon fill="#63b8ff" stroke="#63b8ff" points="257.76,-32.38 257.8,-21.78 251.16,-30.04 257.76,-32.38"/>
</a>
</g>
</g>
<!-- Node7&#45;&gt;Node9 -->
<g id="edge9_Node000007_Node000009" class="edge">
<title>Node7&#45;&gt;Node9</title>
<g id="a_edge9_Node000007_Node000009"><a xlink:title=" ">
<path fill="none" stroke="#63b8ff" d="M210.26,-111.59C199.98,-103.77 185.11,-92.46 172.91,-83.19"/>
<polygon fill="#63b8ff" stroke="#63b8ff" points="175.13,-80.48 165.06,-77.21 170.9,-86.05 175.13,-80.48"/>
</a>
</g>
</g>
<!-- Node9&#45;&gt;Node3 -->
<g id="edge10_Node000009_Node000003" class="edge">
<title>Node9&#45;&gt;Node3</title>
<g id="a_edge10_Node000009_Node000003"><a xlink:title=" ">
<path fill="none" stroke="#63b8ff" d="M205.45,-55.53C268.92,-44.37 372.45,-26.16 425.3,-16.86"/>
<polygon fill="#63b8ff" stroke="#63b8ff" points="425.64,-20.35 434.89,-15.18 424.43,-13.46 425.64,-20.35"/>
</a>
</g>
</g>
<!-- Node9&#45;&gt;Node4 -->
<g id="edge11_Node000009_Node000004" class="edge">
<title>Node9&#45;&gt;Node4</title>
<g id="a_edge11_Node000009_Node000004"><a xlink:title=" ">
<path fill="none" stroke="#63b8ff" d="M214.66,-57.77C316.73,-46.07 514.51,-23.4 591.18,-14.6"/>
<polygon fill="#63b8ff" stroke="#63b8ff" points="591.38,-18.11 600.91,-13.49 590.58,-11.15 591.38,-18.11"/>
</a>
</g>
</g>
<!-- Node9&#45;&gt;Node5 -->
<g id="edge12_Node000009_Node000005" class="edge">
<title>Node9&#45;&gt;Node5</title>
<g id="a_edge12_Node000009_Node000005"><a xlink:title=" ">
<path fill="none" stroke="#63b8ff" d="M129.68,-55.59C109.92,-47.13 80.63,-34.58 58.16,-24.94"/>
<polygon fill="#63b8ff" stroke="#63b8ff" points="59.71,-21.8 49.13,-21.08 56.95,-28.23 59.71,-21.8"/>
</a>
</g>
</g>
<!-- Node9&#45;&gt;Node8 -->
<g id="edge13_Node000009_Node000008" class="edge">
<title>Node9&#45;&gt;Node8</title>
<g id="a_edge13_Node000009_Node000008"><a xlink:title=" ">
<path fill="none" stroke="#63b8ff" d="M170.79,-55.59C187.72,-47.28 212.67,-35.03 232.15,-25.47"/>
<polygon fill="#63b8ff" stroke="#63b8ff" points="233.52,-28.7 240.96,-21.15 230.44,-22.41 233.52,-28.7"/>
</a>
</g>
</g>
<!-- Node10 -->
<g id="Node000010" class="node">
<title>Node10</title>
<g id="a_Node000010"><a xlink:href="_component_8h.html" target="_top" xlink:title=" ">
<polygon fill="white" stroke="#666666" points="221.75,-20 71.5,-20 71.5,0 221.75,0 221.75,-20"/>
<text text-anchor="middle" x="146.62" y="-6.5" font-family="Helvetica,sans-Serif" font-size="10.00">TramposoLibrary/Component.h</text>
</a>
</g>
</g>
<!-- Node9&#45;&gt;Node10 -->
<g id="edge14_Node000009_Node000010" class="edge">
<title>Node9&#45;&gt;Node10</title>
<g id="a_edge14_Node000009_Node000010"><a xlink:title=" ">
<path fill="none" stroke="#63b8ff" d="M150.75,-55.59C150.14,-49.01 149.31,-39.96 148.54,-31.73"/>
<polygon fill="#63b8ff" stroke="#63b8ff" points="152.03,-31.44 147.63,-21.81 145.06,-32.09 152.03,-31.44"/>
</a>
</g>
</g>
<!-- Node11&#45;&gt;Node3 -->
<g id="edge18_Node000011_Node000003" class="edge">
<title>Node11&#45;&gt;Node3</title>
<g id="a_edge18_Node000011_Node000003"><a xlink:title=" ">
<path fill="none" stroke="#63b8ff" d="M369.44,-55.59C385.98,-47.32 410.34,-35.14 429.42,-25.6"/>
<polygon fill="#63b8ff" stroke="#63b8ff" points="430.93,-28.76 438.31,-21.16 427.8,-22.5 430.93,-28.76"/>
</a>
</g>
</g>
<!-- Node11&#45;&gt;Node8 -->
<g id="edge19_Node000011_Node000008" class="edge">
<title>Node11&#45;&gt;Node8</title>
<g id="a_edge19_Node000011_Node000008"><a xlink:title=" ">
<path fill="none" stroke="#63b8ff" d="M335.12,-55.59C321.8,-47.51 302.35,-35.71 286.8,-26.27"/>
<polygon fill="#63b8ff" stroke="#63b8ff" points="288.91,-23.46 278.54,-21.26 285.28,-29.44 288.91,-23.46"/>
</a>
</g>
</g>
<!-- Node12 -->
<g id="Node000012" class="node">
<title>Node12</title>
<g id="a_Node000012"><a xlink:title=" ">
<polygon fill="#e0e0e0" stroke="#999999" points="369.5,-20 331.75,-20 331.75,0 369.5,0 369.5,-20"/>
<text text-anchor="middle" x="350.62" y="-6.5" font-family="Helvetica,sans-Serif" font-size="10.00">array</text>
</a>
</g>
</g>
<!-- Node11&#45;&gt;Node12 -->
<g id="edge20_Node000011_Node000012" class="edge">
<title>Node11&#45;&gt;Node12</title>
<g id="a_edge20_Node000011_Node000012"><a xlink:title=" ">
<path fill="none" stroke="#63b8ff" d="M350.62,-55.59C350.62,-49.01 350.62,-39.96 350.62,-31.73"/>
<polygon fill="#63b8ff" stroke="#63b8ff" points="354.13,-31.81 350.63,-21.81 347.13,-31.81 354.13,-31.81"/>
</a>
</g>
</g>
<!-- Node13&#45;&gt;Node4 -->
<g id="edge23_Node000013_Node000004" class="edge">
<title>Node13&#45;&gt;Node4</title>
<g id="a_edge23_Node000013_Node000004"><a xlink:title=" ">
<path fill="none" stroke="#63b8ff" d="M774.87,-173.6C800.16,-161.01 837.16,-137.31 821.62,-112 784.89,-52.16 700.44,-26.43 654.24,-16.5"/>
<polygon fill="#63b8ff" stroke="#63b8ff" points="655.08,-13.1 644.58,-14.56 653.7,-19.96 655.08,-13.1"/>
</a>
</g>
</g>
<!-- Node13&#45;&gt;Node6 -->
<g id="edge24_Node000013_Node000006" class="edge">
<title>Node13&#45;&gt;Node6</title>
<g id="a_edge24_Node000013_Node000006"><a xlink:title=" ">
<path fill="none" stroke="#63b8ff" d="M736.12,-173.62C718.13,-163.98 689.84,-148.83 668.9,-137.61"/>
<polygon fill="#63b8ff" stroke="#63b8ff" points="670.8,-134.66 660.34,-133.02 667.5,-140.83 670.8,-134.66"/>
</a>
</g>
</g>
<!-- Node14 -->
<g id="Node000014" class="node">
<title>Node14</title>
<g id="a_Node000014"><a xlink:title=" ">
<polygon fill="#e0e0e0" stroke="#999999" points="812.12,-132 739.12,-132 739.12,-112 812.12,-112 812.12,-132"/>
<text text-anchor="middle" x="775.62" y="-118.5" font-family="Helvetica,sans-Serif" font-size="10.00">SDL_mixer.h</text>
</a>
</g>
</g>
<!-- Node13&#45;&gt;Node14 -->
<g id="edge22_Node000013_Node000014" class="edge">
<title>Node13&#45;&gt;Node14</title>
<g id="a_edge22_Node000013_Node000014"><a xlink:title=" ">
<path fill="none" stroke="#63b8ff" d="M757.06,-173.62C760.08,-165.39 764.58,-153.13 768.39,-142.74"/>
<polygon fill="#63b8ff" stroke="#63b8ff" points="771.61,-144.13 771.76,-133.53 765.03,-141.72 771.61,-144.13"/>
</a>
</g>
</g>
<!-- Node15&#45;&gt;Node3 -->
<g id="edge26_Node000015_Node000003" class="edge">
<title>Node15&#45;&gt;Node3</title>
<g id="a_edge26_Node000015_Node000003"><a xlink:title=" ">
<path fill="none" stroke="#63b8ff" d="M581.97,-167.54C569.19,-142.58 541.83,-92.53 510.62,-56 501.69,-45.54 490.27,-35.39 480.41,-27.38"/>
<polygon fill="#63b8ff" stroke="#63b8ff" points="482.77,-24.78 472.75,-21.35 478.45,-30.29 482.77,-24.78"/>
</a>
</g>
</g>
<!-- Node15&#45;&gt;Node4 -->
<g id="edge27_Node000015_Node000004" class="edge">
<title>Node15&#45;&gt;Node4</title>
<g id="a_edge27_Node000015_Node000004"><a xlink:title=" ">
<path fill="none" stroke="#63b8ff" d="M646.57,-167.56C664.09,-159.85 681.42,-148.5 691.62,-132 714.36,-95.22 671.68,-50.8 643.87,-27.34"/>
<polygon fill="#63b8ff" stroke="#63b8ff" points="646.27,-24.78 636.3,-21.19 641.85,-30.21 646.27,-24.78"/>
</a>
</g>
</g>
<!-- Node15&#45;&gt;Node6 -->
<g id="edge28_Node000015_Node000006" class="edge">
<title>Node15&#45;&gt;Node6</title>
<g id="a_edge28_Node000015_Node000006"><a xlink:title=" ">
<path fill="none" stroke="#63b8ff" d="M603.02,-167.55C610.09,-159.39 618.8,-149.33 626.16,-140.84"/>
<polygon fill="#63b8ff" stroke="#63b8ff" points="628.58,-143.4 632.48,-133.55 623.29,-138.82 628.58,-143.4"/>
</a>
</g>
</g>
</g>
</svg>

<g id="navigator" transform="translate(0 0)" fill="#404254">
  <rect fill="#f2f5e9" fill-opacity="0.5" stroke="#606060" stroke-width=".5" x="0" y="0" width="60" height="60"/>
  <use id="zoomplus" xlink:href="#zoomPlus" x="17" y="9" onmousedown="handleZoom(evt,'in')"/>
  <use id="zoomminus" xlink:href="#zoomMin" x="42" y="9" onmousedown="handleZoom(evt,'out')"/>
  <use id="reset" xlink:href="#resetDef" x="30" y="36" onmousedown="handleReset()"/>
   <use id="arrowup" xlink:href="#arrowUp" x="0" y="0" onmousedown="handlePan(0,-1)"/>
  <use id="arrowright" xlink:href="#arrowRight" x="0" y="0" onmousedown="handlePan(1,0)"/>
  <use id="arrowdown" xlink:href="#arrowDown" x="0" y="0" onmousedown="handlePan(0,1)"/>
  <use id="arrowleft" xlink:href="#arrowLeft" x="0" y="0" onmousedown="handlePan(-1,0)"/>
</g>
<svg viewBox="0 0 15 15" width="100%" height="30px" preserveAspectRatio="xMaxYMin meet">
 <g id="arrow_out" transform="scale(0.3 0.3)">
  <a xlink:href="_catch_game_8cpp__incl_org.svg" target="_base">
   <rect id="button" ry="5" rx="5" y="6" x="6" height="38" width="38"
        fill="#f2f5e9" fill-opacity="0.5" stroke="#606060" stroke-width="1.0"/>
   <path id="arrow"
     d="M 11.500037,31.436501 C 11.940474,20.09759 22.043105,11.32322 32.158766,21.979434 L 37.068811,17.246167 C 37.068811,17.246167 37.088388,32 37.088388,32 L 22.160133,31.978069 C 22.160133,31.978069 26.997745,27.140456 26.997745,27.140456 C 18.528582,18.264221 13.291696,25.230495 11.500037,31.436501 z"
     style="fill:#404040;"/>
  </a>
 </g>
</svg>

<style type='text/css'>
<![CDATA[
[data-mouse-over-selected='false'] { opacity: 0.7; }
[data-mouse-over-selected='true']  { opacity: 1.0; }
]]>
</style>
<script type="application/ecmascript"><![CDATA[
document.addEventListener('DOMContentLoaded', (event) => {
  highlightEdges();
  highlightAdjacentNodes();
});
]]></script>
</svg>
