<?xml version="1.0" encoding="UTF-8" standalone="no"?>
<!DOCTYPE svg PUBLIC "-//W3C//DTD SVG 1.1//EN"
 "http://www.w3.org/Graphics/SVG/1.1/DTD/svg11.dtd">
<!-- Generated by graphviz version 12.1.0 (20240811.2233)
 -->
<!-- Title: include/TramposoLibrary/CollisionManager.h Pages: 1 -->
<svg width="210pt" height="96pt"
 viewBox="0.00 0.00 210.25 96.00" xmlns="http://www.w3.org/2000/svg" xmlns:xlink="http://www.w3.org/1999/xlink">
<g id="graph0" class="graph" transform="scale(1 1) rotate(0) translate(4 92)">
<title>include/TramposoLibrary/CollisionManager.h</title>
<!-- Node1 -->
<g id="Node000001" class="node">
<title>Node1</title>
<g id="a_Node000001"><a xlink:title=" ">
<polygon fill="#999999" stroke="#666666" points="143.12,-88 20.62,-88 20.62,-56 143.12,-56 143.12,-88"/>
<text text-anchor="start" x="28.62" y="-74.5" font-family="Helvetica,sans-Serif" font-size="10.00">include/TramposoLibrary</text>
<text text-anchor="middle" x="81.88" y="-62.5" font-family="Helvetica,sans-Serif" font-size="10.00">/CollisionManager.h</text>
</a>
</g>
</g>
<!-- Node2 -->
<g id="Node000002" class="node">
<title>Node2</title>
<g id="a_Node000002"><a xlink:title=" ">
<polygon fill="#e0e0e0" stroke="#999999" points="43.75,-20 0,-20 0,0 43.75,0 43.75,-20"/>
<text text-anchor="middle" x="21.88" y="-6.5" font-family="Helvetica,sans-Serif" font-size="10.00">SDL.h</text>
</a>
</g>
</g>
<!-- Node1&#45;&gt;Node2 -->
<g id="edge1_Node000001_Node000002" class="edge">
<title>Node1&#45;&gt;Node2</title>
<g id="a_edge1_Node000001_Node000002"><a xlink:title=" ">
<path fill="none" stroke="#63b8ff" d="M66.42,-55.55C58.09,-47.22 47.78,-36.91 39.18,-28.3"/>
<polygon fill="#63b8ff" stroke="#63b8ff" points="41.9,-26.07 32.35,-21.48 36.95,-31.02 41.9,-26.07"/>
</a>
</g>
</g>
<!-- Node3 -->
<g id="Node000003" class="node">
<title>Node3</title>
<g id="a_Node000003"><a xlink:title=" ">
<polygon fill="#e0e0e0" stroke="#999999" points="101.88,-20 61.88,-20 61.88,0 101.88,0 101.88,-20"/>
<text text-anchor="middle" x="81.88" y="-6.5" font-family="Helvetica,sans-Serif" font-size="10.00">string</text>
</a>
</g>
</g>
<!-- Node1&#45;&gt;Node3 -->
<g id="edge2_Node000001_Node000003" class="edge">
<title>Node1&#45;&gt;Node3</title>
<g id="a_edge2_Node000001_Node000003"><a xlink:title=" ">
<path fill="none" stroke="#63b8ff" d="M81.88,-55.55C81.88,-48.34 81.88,-39.66 81.88,-31.88"/>
<polygon fill="#63b8ff" stroke="#63b8ff" points="85.38,-31.92 81.88,-21.92 78.38,-31.92 85.38,-31.92"/>
</a>
</g>
</g>
<!-- Node4 -->
<g id="Node000004" class="node">
<title>Node4</title>
<g id="a_Node000004"><a xlink:title=" ">
<polygon fill="#e0e0e0" stroke="#999999" points="202.25,-20 119.5,-20 119.5,0 202.25,0 202.25,-20"/>
<text text-anchor="middle" x="160.88" y="-6.5" font-family="Helvetica,sans-Serif" font-size="10.00">unordered_map</text>
</a>
</g>
</g>
<!-- Node1&#45;&gt;Node4 -->
<g id="edge3_Node000001_Node000004" class="edge">
<title>Node1&#45;&gt;Node4</title>
<g id="a_edge3_Node000001_Node000004"><a xlink:title=" ">
<path fill="none" stroke="#63b8ff" d="M102.22,-55.55C113.65,-46.87 127.9,-36.04 139.49,-27.24"/>
<polygon fill="#63b8ff" stroke="#63b8ff" points="141.44,-30.16 147.28,-21.32 137.2,-24.58 141.44,-30.16"/>
</a>
</g>
</g>
</g>
</svg>
