<?xml version="1.0" encoding="UTF-8" standalone="no"?>
<!DOCTYPE svg PUBLIC "-//W3C//DTD SVG 1.1//EN"
 "http://www.w3.org/Graphics/SVG/1.1/DTD/svg11.dtd">
<!-- Generated by graphviz version 12.1.0 (20240811.2233)
 -->
<!-- Title: include/TramposoLibrary/CollisionManager.h Pages: 1 -->
<svg width="352pt" height="96pt"
 viewBox="0.00 0.00 351.62 96.00" xmlns="http://www.w3.org/2000/svg" xmlns:xlink="http://www.w3.org/1999/xlink">
<g id="graph0" class="graph" transform="scale(1 1) rotate(0) translate(4 92)">
<title>include/TramposoLibrary/CollisionManager.h</title>
<!-- Node1 -->
<g id="Node000001" class="node">
<title>Node1</title>
<g id="a_Node000001"><a xlink:title=" ">
<polygon fill="#999999" stroke="#666666" points="246.12,-88 123.62,-88 123.62,-56 246.12,-56 246.12,-88"/>
<text text-anchor="start" x="131.62" y="-74.5" font-family="Helvetica,sans-Serif" font-size="10.00">include/TramposoLibrary</text>
<text text-anchor="middle" x="184.88" y="-62.5" font-family="Helvetica,sans-Serif" font-size="10.00">/CollisionManager.h</text>
</a>
</g>
</g>
<!-- Node2 -->
<g id="Node000002" class="node">
<title>Node2</title>
<g id="a_Node000002"><a xlink:href="_catch_game_8cpp.html" target="_top" xlink:title=" ">
<polygon fill="white" stroke="#666666" points="103.75,-20 0,-20 0,0 103.75,0 103.75,-20"/>
<text text-anchor="middle" x="51.88" y="-6.5" font-family="Helvetica,sans-Serif" font-size="10.00">src/CatchGame.cpp</text>
</a>
</g>
</g>
<!-- Node1&#45;&gt;Node2 -->
<g id="edge1_Node000001_Node000002" class="edge">
<title>Node1&#45;&gt;Node2</title>
<g id="a_edge1_Node000001_Node000002"><a xlink:title=" ">
<path fill="none" stroke="#63b8ff" d="M140.14,-50.82C117.35,-40.54 90.73,-28.53 72.73,-20.41"/>
<polygon fill="#63b8ff" stroke="#63b8ff" points="138.69,-54 149.24,-54.93 141.57,-47.62 138.69,-54"/>
</a>
</g>
</g>
<!-- Node3 -->
<g id="Node000003" class="node">
<title>Node3</title>
<g id="a_Node000003"><a xlink:href="_collision_manager_8cpp.html" target="_top" xlink:title=" ">
<polygon fill="white" stroke="#666666" points="248,-20 121.75,-20 121.75,0 248,0 248,-20"/>
<text text-anchor="middle" x="184.88" y="-6.5" font-family="Helvetica,sans-Serif" font-size="10.00">src/CollisionManager.cpp</text>
</a>
</g>
</g>
<!-- Node1&#45;&gt;Node3 -->
<g id="edge2_Node000001_Node000003" class="edge">
<title>Node1&#45;&gt;Node3</title>
<g id="a_edge2_Node000001_Node000003"><a xlink:title=" ">
<path fill="none" stroke="#63b8ff" d="M184.88,-44.08C184.88,-35.6 184.88,-26.8 184.88,-20.41"/>
<polygon fill="#63b8ff" stroke="#63b8ff" points="181.38,-44.03 184.88,-54.03 188.38,-44.03 181.38,-44.03"/>
</a>
</g>
</g>
<!-- Node4 -->
<g id="Node000004" class="node">
<title>Node4</title>
<g id="a_Node000004"><a xlink:href="_game_8cpp.html" target="_top" xlink:title=" ">
<polygon fill="white" stroke="#666666" points="343.62,-20 266.12,-20 266.12,0 343.62,0 343.62,-20"/>
<text text-anchor="middle" x="304.88" y="-6.5" font-family="Helvetica,sans-Serif" font-size="10.00">src/Game.cpp</text>
</a>
</g>
</g>
<!-- Node1&#45;&gt;Node4 -->
<g id="edge3_Node000001_Node000004" class="edge">
<title>Node1&#45;&gt;Node4</title>
<g id="a_edge3_Node000001_Node000004"><a xlink:title=" ">
<path fill="none" stroke="#63b8ff" d="M225.8,-50.54C246.24,-40.32 269.97,-28.45 286.06,-20.41"/>
<polygon fill="#63b8ff" stroke="#63b8ff" points="224.51,-47.27 217.13,-54.87 227.64,-53.53 224.51,-47.27"/>
</a>
</g>
</g>
</g>
</svg>
