<?xml version="1.0" encoding="UTF-8" standalone="no"?>
<!DOCTYPE svg PUBLIC "-//W3C//DTD SVG 1.1//EN"
 "http://www.w3.org/Graphics/SVG/1.1/DTD/svg11.dtd">
<!-- Generated by graphviz version 12.1.0 (20240811.2233)
 -->
<!-- Title: include/TramposoLibrary/Component.h Pages: 1 -->
<svg width="474pt" height="300pt"
 viewBox="0.00 0.00 473.88 300.00" xmlns="http://www.w3.org/2000/svg" xmlns:xlink="http://www.w3.org/1999/xlink">

<svg id="main" version="1.1" xmlns="http://www.w3.org/2000/svg" xmlns:xlink="http://www.w3.org/1999/xlink" xml:space="preserve">

<style type="text/css"><![CDATA[
.node, .edge {opacity: 0.7;}
.node.selected, .edge.selected {opacity: 1;}
.edge:hover path { stroke: red; }
.edge:hover polygon { stroke: red; fill: red; }
]]></style>
<script type="application/ecmascript" xlink:href="svg.min.js"/>
<svg id="graph" class="graph">
<g id="graph0" class="graph" transform="scale(1 1) rotate(0) translate(4 296)">
<title>include/TramposoLibrary/Component.h</title>
<!-- Node1 -->
<g id="Node000001" class="node">
<title>Node1</title>
<g id="a_Node000001"><a xlink:title=" ">
<polygon fill="#999999" stroke="#666666" points="199.62,-292 77.12,-292 77.12,-260 199.62,-260 199.62,-292"/>
<text text-anchor="start" x="85.12" y="-278.5" font-family="Helvetica,sans-Serif" font-size="10.00">include/TramposoLibrary</text>
<text text-anchor="middle" x="138.38" y="-266.5" font-family="Helvetica,sans-Serif" font-size="10.00">/Component.h</text>
</a>
</g>
</g>
<!-- Node2 -->
<g id="Node000002" class="node">
<title>Node2</title>
<g id="a_Node000002"><a xlink:href="_physics_component_8h.html" target="_top" xlink:title=" ">
<polygon fill="white" stroke="#666666" points="129.62,-224 7.12,-224 7.12,-192 129.62,-192 129.62,-224"/>
<text text-anchor="start" x="15.12" y="-210.5" font-family="Helvetica,sans-Serif" font-size="10.00">include/TramposoLibrary</text>
<text text-anchor="middle" x="68.38" y="-198.5" font-family="Helvetica,sans-Serif" font-size="10.00">/PhysicsComponent.h</text>
</a>
</g>
</g>
<!-- Node1&#45;&gt;Node2 -->
<g id="edge1_Node000001_Node000002" class="edge">
<title>Node1&#45;&gt;Node2</title>
<g id="a_edge1_Node000001_Node000002"><a xlink:title=" ">
<path fill="none" stroke="#63b8ff" d="M113.97,-251.99C104.22,-242.79 93.25,-232.46 84.52,-224.22"/>
<polygon fill="#63b8ff" stroke="#63b8ff" points="111.36,-254.34 121.04,-258.65 116.16,-249.25 111.36,-254.34"/>
</a>
</g>
</g>
<!-- Node4 -->
<g id="Node000004" class="node">
<title>Node4</title>
<g id="a_Node000004"><a xlink:href="_sprite_8h.html" target="_top" xlink:title=" ">
<polygon fill="white" stroke="#666666" points="270.62,-224 148.12,-224 148.12,-192 270.62,-192 270.62,-224"/>
<text text-anchor="start" x="156.12" y="-210.5" font-family="Helvetica,sans-Serif" font-size="10.00">include/TramposoLibrary</text>
<text text-anchor="middle" x="209.38" y="-198.5" font-family="Helvetica,sans-Serif" font-size="10.00">/Sprite.h</text>
</a>
</g>
</g>
<!-- Node1&#45;&gt;Node4 -->
<g id="edge3_Node000001_Node000004" class="edge">
<title>Node1&#45;&gt;Node4</title>
<g id="a_edge3_Node000001_Node000004"><a xlink:title=" ">
<path fill="none" stroke="#63b8ff" d="M163.13,-251.99C173.02,-242.79 184.14,-232.46 193,-224.22"/>
<polygon fill="#63b8ff" stroke="#63b8ff" points="160.89,-249.29 155.95,-258.66 165.66,-254.42 160.89,-249.29"/>
</a>
</g>
</g>
<!-- Node3 -->
<g id="Node000003" class="node">
<title>Node3</title>
<g id="a_Node000003"><a xlink:href="_physics_component_8cpp.html" target="_top" xlink:title=" ">
<polygon fill="white" stroke="#666666" points="136.75,-150 0,-150 0,-130 136.75,-130 136.75,-150"/>
<text text-anchor="middle" x="68.38" y="-136.5" font-family="Helvetica,sans-Serif" font-size="10.00">src/PhysicsComponent.cpp</text>
</a>
</g>
</g>
<!-- Node2&#45;&gt;Node3 -->
<g id="edge2_Node000002_Node000003" class="edge">
<title>Node2&#45;&gt;Node3</title>
<g id="a_edge2_Node000002_Node000003"><a xlink:title=" ">
<path fill="none" stroke="#63b8ff" d="M68.38,-180.31C68.38,-169.67 68.38,-158.13 68.38,-150.32"/>
<polygon fill="#63b8ff" stroke="#63b8ff" points="64.88,-180.18 68.38,-190.18 71.88,-180.18 64.88,-180.18"/>
</a>
</g>
</g>
<!-- Node4&#45;&gt;Node3 -->
<g id="edge12_Node000004_Node000003" class="edge">
<title>Node4&#45;&gt;Node3</title>
<g id="a_edge12_Node000004_Node000003"><a xlink:title=" ">
<path fill="none" stroke="#63b8ff" d="M166.02,-186.71C140.23,-174.63 108.71,-159.88 88.59,-150.46"/>
<polygon fill="#63b8ff" stroke="#63b8ff" points="164.41,-189.81 174.95,-190.88 167.37,-183.47 164.41,-189.81"/>
</a>
</g>
</g>
<!-- Node5 -->
<g id="Node000005" class="node">
<title>Node5</title>
<g id="a_Node000005"><a xlink:href="_scene_8h.html" target="_top" xlink:title=" ">
<polygon fill="white" stroke="#666666" points="409.62,-156 287.12,-156 287.12,-124 409.62,-124 409.62,-156"/>
<text text-anchor="start" x="295.12" y="-142.5" font-family="Helvetica,sans-Serif" font-size="10.00">include/TramposoLibrary</text>
<text text-anchor="middle" x="348.38" y="-130.5" font-family="Helvetica,sans-Serif" font-size="10.00">/Scene.h</text>
</a>
</g>
</g>
<!-- Node4&#45;&gt;Node5 -->
<g id="edge4_Node000004_Node000005" class="edge">
<title>Node4&#45;&gt;Node5</title>
<g id="a_edge4_Node000004_Node000005"><a xlink:title=" ">
<path fill="none" stroke="#63b8ff" d="M252.32,-186.61C272.86,-176.86 297.03,-165.38 315.99,-156.38"/>
<polygon fill="#63b8ff" stroke="#63b8ff" points="250.86,-183.43 243.33,-190.88 253.87,-189.75 250.86,-183.43"/>
</a>
</g>
</g>
<!-- Node7 -->
<g id="Node000007" class="node">
<title>Node7</title>
<g id="a_Node000007"><a xlink:href="_catch_game_8cpp.html" target="_top" xlink:title=" ">
<polygon fill="white" stroke="#666666" points="273.25,-20 169.5,-20 169.5,0 273.25,0 273.25,-20"/>
<text text-anchor="middle" x="221.38" y="-6.5" font-family="Helvetica,sans-Serif" font-size="10.00">src/CatchGame.cpp</text>
</a>
</g>
</g>
<!-- Node4&#45;&gt;Node7 -->
<g id="edge11_Node000004_Node000007" class="edge">
<title>Node4&#45;&gt;Node7</title>
<g id="a_edge11_Node000004_Node000007"><a xlink:title=" ">
<path fill="none" stroke="#63b8ff" d="M193.49,-181.65C189.36,-173.73 185.48,-164.77 183.38,-156 171.04,-104.63 202.16,-43.55 215.58,-20.47"/>
<polygon fill="#63b8ff" stroke="#63b8ff" points="190.44,-183.36 198.4,-190.35 196.54,-179.92 190.44,-183.36"/>
</a>
</g>
</g>
<!-- Node10 -->
<g id="Node000010" class="node">
<title>Node10</title>
<g id="a_Node000010"><a xlink:href="_sprite_8cpp.html" target="_top" xlink:title=" ">
<polygon fill="white" stroke="#666666" points="268.75,-150 192,-150 192,-130 268.75,-130 268.75,-150"/>
<text text-anchor="middle" x="230.38" y="-136.5" font-family="Helvetica,sans-Serif" font-size="10.00">src/Sprite.cpp</text>
</a>
</g>
</g>
<!-- Node4&#45;&gt;Node10 -->
<g id="edge13_Node000004_Node000010" class="edge">
<title>Node4&#45;&gt;Node10</title>
<g id="a_edge13_Node000004_Node000010"><a xlink:title=" ">
<path fill="none" stroke="#63b8ff" d="M217.65,-181C221.09,-170.17 224.87,-158.29 227.41,-150.32"/>
<polygon fill="#63b8ff" stroke="#63b8ff" points="214.4,-179.66 214.7,-190.25 221.07,-181.78 214.4,-179.66"/>
</a>
</g>
</g>
<!-- Node6 -->
<g id="Node000006" class="node">
<title>Node6</title>
<g id="a_Node000006"><a xlink:href="_game_8h.html" target="_top" xlink:title=" ">
<polygon fill="white" stroke="#666666" points="393.62,-88 271.12,-88 271.12,-56 393.62,-56 393.62,-88"/>
<text text-anchor="start" x="279.12" y="-74.5" font-family="Helvetica,sans-Serif" font-size="10.00">include/TramposoLibrary</text>
<text text-anchor="middle" x="332.38" y="-62.5" font-family="Helvetica,sans-Serif" font-size="10.00">/Game.h</text>
</a>
</g>
</g>
<!-- Node5&#45;&gt;Node6 -->
<g id="edge5_Node000005_Node000006" class="edge">
<title>Node5&#45;&gt;Node6</title>
<g id="a_edge5_Node000005_Node000006"><a xlink:title=" ">
<path fill="none" stroke="#63b8ff" d="M341.98,-112.6C339.97,-104.32 337.82,-95.46 336.07,-88.22"/>
<polygon fill="#63b8ff" stroke="#63b8ff" points="338.55,-113.33 344.31,-122.22 345.35,-111.68 338.55,-113.33"/>
</a>
</g>
</g>
<!-- Node5&#45;&gt;Node7 -->
<g id="edge9_Node000005_Node000007" class="edge">
<title>Node5&#45;&gt;Node7</title>
<g id="a_edge9_Node000005_Node000007"><a xlink:title=" ">
<path fill="none" stroke="#63b8ff" d="M302.97,-118.2C288.78,-110.18 273.86,-100.02 262.38,-88 242.71,-67.41 229.82,-35.53 224.35,-20.05"/>
<polygon fill="#63b8ff" stroke="#63b8ff" points="301.31,-121.28 311.77,-122.93 304.62,-115.11 301.31,-121.28"/>
</a>
</g>
</g>
<!-- Node9 -->
<g id="Node000009" class="node">
<title>Node9</title>
<g id="a_Node000009"><a xlink:href="_scene_8cpp.html" target="_top" xlink:title=" ">
<polygon fill="white" stroke="#666666" points="465.88,-20 386.88,-20 386.88,0 465.88,0 465.88,-20"/>
<text text-anchor="middle" x="426.38" y="-6.5" font-family="Helvetica,sans-Serif" font-size="10.00">src/Scene.cpp</text>
</a>
</g>
</g>
<!-- Node5&#45;&gt;Node9 -->
<g id="edge10_Node000005_Node000009" class="edge">
<title>Node5&#45;&gt;Node9</title>
<g id="a_edge10_Node000005_Node000009"><a xlink:title=" ">
<path fill="none" stroke="#63b8ff" d="M378.03,-116.06C386.87,-107.99 395.92,-98.34 402.38,-88 416.17,-65.91 422.59,-35.27 425.07,-20.17"/>
<polygon fill="#63b8ff" stroke="#63b8ff" points="375.77,-113.39 370.5,-122.57 380.35,-118.68 375.77,-113.39"/>
</a>
</g>
</g>
<!-- Node6&#45;&gt;Node7 -->
<g id="edge6_Node000006_Node000007" class="edge">
<title>Node6&#45;&gt;Node7</title>
<g id="a_edge6_Node000006_Node000007"><a xlink:title=" ">
<path fill="none" stroke="#63b8ff" d="M293.74,-50.12C275.02,-39.99 253.46,-28.34 238.78,-20.41"/>
<polygon fill="#63b8ff" stroke="#63b8ff" points="292,-53.15 302.46,-54.83 295.33,-46.99 292,-53.15"/>
</a>
</g>
</g>
<!-- Node8 -->
<g id="Node000008" class="node">
<title>Node8</title>
<g id="a_Node000008"><a xlink:href="_game_8cpp.html" target="_top" xlink:title=" ">
<polygon fill="white" stroke="#666666" points="369.12,-20 291.62,-20 291.62,0 369.12,0 369.12,-20"/>
<text text-anchor="middle" x="330.38" y="-6.5" font-family="Helvetica,sans-Serif" font-size="10.00">src/Game.cpp</text>
</a>
</g>
</g>
<!-- Node6&#45;&gt;Node8 -->
<g id="edge7_Node000006_Node000008" class="edge">
<title>Node6&#45;&gt;Node8</title>
<g id="a_edge7_Node000006_Node000008"><a xlink:title=" ">
<path fill="none" stroke="#63b8ff" d="M331.48,-44.08C331.2,-35.6 330.9,-26.8 330.69,-20.41"/>
<polygon fill="#63b8ff" stroke="#63b8ff" points="327.98,-44.16 331.81,-54.04 334.97,-43.92 327.98,-44.16"/>
</a>
</g>
</g>
<!-- Node6&#45;&gt;Node9 -->
<g id="edge8_Node000006_Node000009" class="edge">
<title>Node6&#45;&gt;Node9</title>
<g id="a_edge8_Node000006_Node000009"><a xlink:title=" ">
<path fill="none" stroke="#63b8ff" d="M365.98,-49.55C381.62,-39.56 399.43,-28.2 411.64,-20.41"/>
<polygon fill="#63b8ff" stroke="#63b8ff" points="364.4,-46.4 357.86,-54.73 368.17,-52.3 364.4,-46.4"/>
</a>
</g>
</g>
</g>
</svg>
</svg>

<style type='text/css'>
<![CDATA[
[data-mouse-over-selected='false'] { opacity: 0.7; }
[data-mouse-over-selected='true']  { opacity: 1.0; }
]]>
</style>
<script type="application/ecmascript"><![CDATA[
document.addEventListener('DOMContentLoaded', (event) => {
  highlightEdges();
  highlightAdjacentNodes();
});
]]></script>
</svg>
