<?xml version="1.0" encoding="UTF-8" standalone="no"?>
<!DOCTYPE svg PUBLIC "-//W3C//DTD SVG 1.1//EN"
 "http://www.w3.org/Graphics/SVG/1.1/DTD/svg11.dtd">
<!-- Generated by graphviz version 12.1.0 (20240811.2233)
 -->
<!-- Title: src/Game.cpp Pages: 1 -->
<svg width="986pt" height="264pt"
 viewBox="0.00 0.00 986.25 264.00" xmlns="http://www.w3.org/2000/svg" xmlns:xlink="http://www.w3.org/1999/xlink">
<g id="graph0" class="graph" transform="scale(1 1) rotate(0) translate(4 260)">
<title>src/Game.cpp</title>
<!-- Node1 -->
<g id="Node000001" class="node">
<title>Node1</title>
<g id="a_Node000001"><a xlink:title=" ">
<polygon fill="#999999" stroke="#666666" points="683.38,-256 605.88,-256 605.88,-236 683.38,-236 683.38,-256"/>
<text text-anchor="middle" x="644.62" y="-242.5" font-family="Helvetica,sans-Serif" font-size="10.00">src/Game.cpp</text>
</a>
</g>
</g>
<!-- Node2 -->
<g id="Node000002" class="node">
<title>Node2</title>
<g id="a_Node000002"><a xlink:href="_game_8h.html" target="_top" xlink:title=" ">
<polygon fill="white" stroke="#666666" points="479.75,-194 353.5,-194 353.5,-174 479.75,-174 479.75,-194"/>
<text text-anchor="middle" x="416.62" y="-180.5" font-family="Helvetica,sans-Serif" font-size="10.00">TramposoLibrary/Game.h</text>
</a>
</g>
</g>
<!-- Node1&#45;&gt;Node2 -->
<g id="edge1_Node000001_Node000002" class="edge">
<title>Node1&#45;&gt;Node2</title>
<g id="a_edge1_Node000001_Node000002"><a xlink:title=" ">
<path fill="none" stroke="#63b8ff" d="M608.75,-235.56C569.61,-225.26 506.79,-208.73 463.71,-197.39"/>
<polygon fill="#63b8ff" stroke="#63b8ff" points="464.69,-194.03 454.13,-194.87 462.91,-200.8 464.69,-194.03"/>
</a>
</g>
</g>
<!-- Node11 -->
<g id="Node000011" class="node">
<title>Node11</title>
<g id="a_Node000011"><a xlink:href="_input_manager_8h.html" target="_top" xlink:title=" ">
<polygon fill="white" stroke="#666666" points="159.25,-76 0,-76 0,-56 159.25,-56 159.25,-76"/>
<text text-anchor="middle" x="79.62" y="-62.5" font-family="Helvetica,sans-Serif" font-size="10.00">TramposoLibrary/InputManager.h</text>
</a>
</g>
</g>
<!-- Node1&#45;&gt;Node11 -->
<g id="edge15_Node000001_Node000011" class="edge">
<title>Node1&#45;&gt;Node11</title>
<g id="a_edge15_Node000001_Node000011"><a xlink:title=" ">
<path fill="none" stroke="#63b8ff" d="M605.38,-243.06C547.22,-239.32 435.24,-228.73 344.62,-200 250.62,-170.2 148.91,-110.52 103.67,-82.37"/>
<polygon fill="#63b8ff" stroke="#63b8ff" points="105.76,-79.55 95.43,-77.2 102.04,-85.48 105.76,-79.55"/>
</a>
</g>
</g>
<!-- Node13 -->
<g id="Node000013" class="node">
<title>Node13</title>
<g id="a_Node000013"><a xlink:href="_audio_manager_8h.html" target="_top" xlink:title=" ">
<polygon fill="white" stroke="#666666" points="807.75,-194 645.5,-194 645.5,-174 807.75,-174 807.75,-194"/>
<text text-anchor="middle" x="726.62" y="-180.5" font-family="Helvetica,sans-Serif" font-size="10.00">TramposoLibrary/AudioManager.h</text>
</a>
</g>
</g>
<!-- Node1&#45;&gt;Node13 -->
<g id="edge19_Node000001_Node000013" class="edge">
<title>Node1&#45;&gt;Node13</title>
<g id="a_edge19_Node000001_Node000013"><a xlink:title=" ">
<path fill="none" stroke="#63b8ff" d="M657.44,-235.62C670.07,-226.38 689.64,-212.07 704.74,-201.01"/>
<polygon fill="#63b8ff" stroke="#63b8ff" points="706.68,-203.93 712.68,-195.2 702.54,-198.28 706.68,-203.93"/>
</a>
</g>
</g>
<!-- Node15 -->
<g id="Node000015" class="node">
<title>Node15</title>
<g id="a_Node000015"><a xlink:href="_collision_manager_8h.html" target="_top" xlink:title=" ">
<polygon fill="white" stroke="#666666" points="627.25,-200 498,-200 498,-168 627.25,-168 627.25,-200"/>
<text text-anchor="start" x="506" y="-186.5" font-family="Helvetica,sans-Serif" font-size="10.00">TramposoLibrary/Collision</text>
<text text-anchor="middle" x="562.62" y="-174.5" font-family="Helvetica,sans-Serif" font-size="10.00">Manager.h</text>
</a>
</g>
</g>
<!-- Node1&#45;&gt;Node15 -->
<g id="edge23_Node000001_Node000015" class="edge">
<title>Node1&#45;&gt;Node15</title>
<g id="a_edge23_Node000001_Node000015"><a xlink:title=" ">
<path fill="none" stroke="#63b8ff" d="M631.81,-235.62C621.35,-227.97 606.13,-216.83 592.63,-206.95"/>
<polygon fill="#63b8ff" stroke="#63b8ff" points="594.99,-204.35 584.86,-201.27 590.86,-210 594.99,-204.35"/>
</a>
</g>
</g>
<!-- Node16 -->
<g id="Node000016" class="node">
<title>Node16</title>
<g id="a_Node000016"><a xlink:title=" ">
<polygon fill="#e0e0e0" stroke="#999999" points="885,-194 826.25,-194 826.25,-174 885,-174 885,-194"/>
<text text-anchor="middle" x="855.62" y="-180.5" font-family="Helvetica,sans-Serif" font-size="10.00">stdexcept</text>
</a>
</g>
</g>
<!-- Node1&#45;&gt;Node16 -->
<g id="edge27_Node000001_Node000016" class="edge">
<title>Node1&#45;&gt;Node16</title>
<g id="a_edge27_Node000001_Node000016"><a xlink:title=" ">
<path fill="none" stroke="#63b8ff" d="M683.58,-236.12C718.67,-227.81 771.53,-214.52 816.62,-200 818.22,-199.49 819.85,-198.94 821.49,-198.38"/>
<polygon fill="#63b8ff" stroke="#63b8ff" points="822.63,-201.69 830.84,-194.99 820.25,-195.1 822.63,-201.69"/>
</a>
</g>
</g>
<!-- Node17 -->
<g id="Node000017" class="node">
<title>Node17</title>
<g id="a_Node000017"><a xlink:title=" ">
<polygon fill="#e0e0e0" stroke="#999999" points="978.25,-194 903,-194 903,-174 978.25,-174 978.25,-194"/>
<text text-anchor="middle" x="940.62" y="-180.5" font-family="Helvetica,sans-Serif" font-size="10.00">SDL_image.h</text>
</a>
</g>
</g>
<!-- Node1&#45;&gt;Node17 -->
<g id="edge28_Node000001_Node000017" class="edge">
<title>Node1&#45;&gt;Node17</title>
<g id="a_edge28_Node000001_Node000017"><a xlink:title=" ">
<path fill="none" stroke="#63b8ff" d="M683.78,-239.54C733.1,-232.29 820.3,-218.24 893.62,-200 896.39,-199.31 899.23,-198.55 902.07,-197.74"/>
<polygon fill="#63b8ff" stroke="#63b8ff" points="902.93,-201.14 911.51,-194.92 900.93,-194.43 902.93,-201.14"/>
</a>
</g>
</g>
<!-- Node3 -->
<g id="Node000003" class="node">
<title>Node3</title>
<g id="a_Node000003"><a xlink:title=" ">
<polygon fill="#e0e0e0" stroke="#999999" points="200.5,-20 156.75,-20 156.75,0 200.5,0 200.5,-20"/>
<text text-anchor="middle" x="178.62" y="-6.5" font-family="Helvetica,sans-Serif" font-size="10.00">SDL.h</text>
</a>
</g>
</g>
<!-- Node2&#45;&gt;Node3 -->
<g id="edge2_Node000002_Node000003" class="edge">
<title>Node2&#45;&gt;Node3</title>
<g id="a_edge2_Node000002_Node000003"><a xlink:title=" ">
<path fill="none" stroke="#63b8ff" d="M376.26,-173.51C347.99,-165.55 310.31,-152.19 281.62,-132 241.38,-103.67 207.2,-56.05 190.18,-29.8"/>
<polygon fill="#63b8ff" stroke="#63b8ff" points="193.27,-28.13 184.96,-21.55 187.35,-31.87 193.27,-28.13"/>
</a>
</g>
</g>
<!-- Node4 -->
<g id="Node000004" class="node">
<title>Node4</title>
<g id="a_Node000004"><a xlink:title=" ">
<polygon fill="#e0e0e0" stroke="#999999" points="618.62,-20 578.62,-20 578.62,0 618.62,0 618.62,-20"/>
<text text-anchor="middle" x="598.62" y="-6.5" font-family="Helvetica,sans-Serif" font-size="10.00">string</text>
</a>
</g>
</g>
<!-- Node2&#45;&gt;Node4 -->
<g id="edge3_Node000002_Node000004" class="edge">
<title>Node2&#45;&gt;Node4</title>
<g id="a_edge3_Node000002_Node000004"><a xlink:title=" ">
<path fill="none" stroke="#63b8ff" d="M426.67,-173.51C456.2,-145.6 543.01,-63.56 580.76,-27.89"/>
<polygon fill="#63b8ff" stroke="#63b8ff" points="582.87,-30.71 587.73,-21.29 578.06,-25.62 582.87,-30.71"/>
</a>
</g>
</g>
<!-- Node5 -->
<g id="Node000005" class="node">
<title>Node5</title>
<g id="a_Node000005"><a xlink:title=" ">
<polygon fill="#e0e0e0" stroke="#999999" points="499.25,-20 448,-20 448,0 499.25,0 499.25,-20"/>
<text text-anchor="middle" x="473.62" y="-6.5" font-family="Helvetica,sans-Serif" font-size="10.00">memory</text>
</a>
</g>
</g>
<!-- Node2&#45;&gt;Node5 -->
<g id="edge4_Node000002_Node000005" class="edge">
<title>Node2&#45;&gt;Node5</title>
<g id="a_edge4_Node000002_Node000005"><a xlink:title=" ">
<path fill="none" stroke="#63b8ff" d="M419.77,-173.51C428.75,-146.43 454.62,-68.36 466.94,-31.17"/>
<polygon fill="#63b8ff" stroke="#63b8ff" points="470.26,-32.28 470.08,-21.69 463.61,-30.08 470.26,-32.28"/>
</a>
</g>
</g>
<!-- Node6 -->
<g id="Node000006" class="node">
<title>Node6</title>
<g id="a_Node000006"><a xlink:title=" ">
<polygon fill="#e0e0e0" stroke="#999999" points="633,-132 550.25,-132 550.25,-112 633,-112 633,-132"/>
<text text-anchor="middle" x="591.62" y="-118.5" font-family="Helvetica,sans-Serif" font-size="10.00">unordered_map</text>
</a>
</g>
</g>
<!-- Node2&#45;&gt;Node6 -->
<g id="edge5_Node000002_Node000006" class="edge">
<title>Node2&#45;&gt;Node6</title>
<g id="a_edge5_Node000002_Node000006"><a xlink:title=" ">
<path fill="none" stroke="#63b8ff" d="M443.97,-173.62C473.42,-163.53 520.49,-147.39 553.56,-136.05"/>
<polygon fill="#63b8ff" stroke="#63b8ff" points="554.43,-139.45 562.75,-132.9 552.16,-132.83 554.43,-139.45"/>
</a>
</g>
</g>
<!-- Node7 -->
<g id="Node000007" class="node">
<title>Node7</title>
<g id="a_Node000007"><a xlink:href="_scene_8h.html" target="_top" xlink:title=" ">
<polygon fill="white" stroke="#666666" points="418.5,-132 290.75,-132 290.75,-112 418.5,-112 418.5,-132"/>
<text text-anchor="middle" x="354.62" y="-118.5" font-family="Helvetica,sans-Serif" font-size="10.00">TramposoLibrary/Scene.h</text>
</a>
</g>
</g>
<!-- Node2&#45;&gt;Node7 -->
<g id="edge6_Node000002_Node000007" class="edge">
<title>Node2&#45;&gt;Node7</title>
<g id="a_edge6_Node000002_Node000007"><a xlink:title=" ">
<path fill="none" stroke="#63b8ff" d="M406.94,-173.62C397.69,-164.68 383.55,-150.99 372.3,-140.1"/>
<polygon fill="#63b8ff" stroke="#63b8ff" points="374.75,-137.6 365.13,-133.17 369.88,-142.63 374.75,-137.6"/>
</a>
</g>
</g>
<!-- Node7&#45;&gt;Node5 -->
<g id="edge7_Node000007_Node000005" class="edge">
<title>Node7&#45;&gt;Node5</title>
<g id="a_edge7_Node000007_Node000005"><a xlink:title=" ">
<path fill="none" stroke="#63b8ff" d="M374.06,-111.52C389.4,-103.44 410.8,-90.8 426.62,-76 441.22,-62.36 454.21,-43.6 462.82,-29.74"/>
<polygon fill="#63b8ff" stroke="#63b8ff" points="465.58,-31.93 467.72,-21.56 459.58,-28.34 465.58,-31.93"/>
</a>
</g>
</g>
<!-- Node8 -->
<g id="Node000008" class="node">
<title>Node8</title>
<g id="a_Node000008"><a xlink:title=" ">
<polygon fill="#e0e0e0" stroke="#999999" points="261.12,-20 218.12,-20 218.12,0 261.12,0 261.12,-20"/>
<text text-anchor="middle" x="239.62" y="-6.5" font-family="Helvetica,sans-Serif" font-size="10.00">vector</text>
</a>
</g>
</g>
<!-- Node7&#45;&gt;Node8 -->
<g id="edge8_Node000007_Node000008" class="edge">
<title>Node7&#45;&gt;Node8</title>
<g id="a_edge8_Node000007_Node000008"><a xlink:title=" ">
<path fill="none" stroke="#63b8ff" d="M334.71,-111.53C319.29,-103.54 298.04,-91.02 282.62,-76 268.86,-62.59 257.13,-44.05 249.42,-30.2"/>
<polygon fill="#63b8ff" stroke="#63b8ff" points="252.64,-28.8 244.84,-21.63 246.46,-32.1 252.64,-28.8"/>
</a>
</g>
</g>
<!-- Node9 -->
<g id="Node000009" class="node">
<title>Node9</title>
<g id="a_Node000009"><a xlink:href="_sprite_8h.html" target="_top" xlink:title=" ">
<polygon fill="white" stroke="#666666" points="417.38,-76 291.88,-76 291.88,-56 417.38,-56 417.38,-76"/>
<text text-anchor="middle" x="354.62" y="-62.5" font-family="Helvetica,sans-Serif" font-size="10.00">TramposoLibrary/Sprite.h</text>
</a>
</g>
</g>
<!-- Node7&#45;&gt;Node9 -->
<g id="edge9_Node000007_Node000009" class="edge">
<title>Node7&#45;&gt;Node9</title>
<g id="a_edge9_Node000007_Node000009"><a xlink:title=" ">
<path fill="none" stroke="#63b8ff" d="M354.62,-111.59C354.62,-105.01 354.62,-95.96 354.62,-87.73"/>
<polygon fill="#63b8ff" stroke="#63b8ff" points="358.13,-87.81 354.63,-77.81 351.13,-87.81 358.13,-87.81"/>
</a>
</g>
</g>
<!-- Node9&#45;&gt;Node3 -->
<g id="edge10_Node000009_Node000003" class="edge">
<title>Node9&#45;&gt;Node3</title>
<g id="a_edge10_Node000009_Node000003"><a xlink:title=" ">
<path fill="none" stroke="#63b8ff" d="M323.97,-55.59C292.52,-45.94 243.76,-30.98 211.51,-21.09"/>
<polygon fill="#63b8ff" stroke="#63b8ff" points="212.89,-17.85 202.3,-18.26 210.83,-24.54 212.89,-17.85"/>
</a>
</g>
</g>
<!-- Node9&#45;&gt;Node4 -->
<g id="edge11_Node000009_Node000004" class="edge">
<title>Node9&#45;&gt;Node4</title>
<g id="a_edge11_Node000009_Node000004"><a xlink:title=" ">
<path fill="none" stroke="#63b8ff" d="M397.41,-55.53C445.88,-44.8 523.75,-27.57 567.03,-17.99"/>
<polygon fill="#63b8ff" stroke="#63b8ff" points="567.78,-21.41 576.79,-15.83 566.27,-14.58 567.78,-21.41"/>
</a>
</g>
</g>
<!-- Node9&#45;&gt;Node5 -->
<g id="edge12_Node000009_Node000005" class="edge">
<title>Node9&#45;&gt;Node5</title>
<g id="a_edge12_Node000009_Node000005"><a xlink:title=" ">
<path fill="none" stroke="#63b8ff" d="M375.35,-55.59C393.84,-47.21 421.17,-34.8 442.32,-25.21"/>
<polygon fill="#63b8ff" stroke="#63b8ff" points="443.7,-28.42 451.36,-21.1 440.8,-22.05 443.7,-28.42"/>
</a>
</g>
</g>
<!-- Node9&#45;&gt;Node8 -->
<g id="edge13_Node000009_Node000008" class="edge">
<title>Node9&#45;&gt;Node8</title>
<g id="a_edge13_Node000009_Node000008"><a xlink:title=" ">
<path fill="none" stroke="#63b8ff" d="M334.59,-55.59C316.81,-47.24 290.56,-34.92 270.16,-25.34"/>
<polygon fill="#63b8ff" stroke="#63b8ff" points="271.72,-22.21 261.18,-21.12 268.75,-28.54 271.72,-22.21"/>
</a>
</g>
</g>
<!-- Node10 -->
<g id="Node000010" class="node">
<title>Node10</title>
<g id="a_Node000010"><a xlink:href="_component_8h.html" target="_top" xlink:title=" ">
<polygon fill="white" stroke="#666666" points="429.75,-20 279.5,-20 279.5,0 429.75,0 429.75,-20"/>
<text text-anchor="middle" x="354.62" y="-6.5" font-family="Helvetica,sans-Serif" font-size="10.00">TramposoLibrary/Component.h</text>
</a>
</g>
</g>
<!-- Node9&#45;&gt;Node10 -->
<g id="edge14_Node000009_Node000010" class="edge">
<title>Node9&#45;&gt;Node10</title>
<g id="a_edge14_Node000009_Node000010"><a xlink:title=" ">
<path fill="none" stroke="#63b8ff" d="M354.62,-55.59C354.62,-49.01 354.62,-39.96 354.62,-31.73"/>
<polygon fill="#63b8ff" stroke="#63b8ff" points="358.13,-31.81 354.63,-21.81 351.13,-31.81 358.13,-31.81"/>
</a>
</g>
</g>
<!-- Node11&#45;&gt;Node3 -->
<g id="edge16_Node000011_Node000003" class="edge">
<title>Node11&#45;&gt;Node3</title>
<g id="a_edge16_Node000011_Node000003"><a xlink:title=" ">
<path fill="none" stroke="#63b8ff" d="M96.87,-55.59C111.97,-47.36 134.15,-35.26 151.61,-25.74"/>
<polygon fill="#63b8ff" stroke="#63b8ff" points="152.81,-29.07 159.92,-21.2 149.46,-22.92 152.81,-29.07"/>
</a>
</g>
</g>
<!-- Node11&#45;&gt;Node8 -->
<g id="edge17_Node000011_Node000008" class="edge">
<title>Node11&#45;&gt;Node8</title>
<g id="a_edge17_Node000011_Node000008"><a xlink:title=" ">
<path fill="none" stroke="#63b8ff" d="M107.49,-55.59C135.16,-46.26 177.55,-31.95 206.83,-22.07"/>
<polygon fill="#63b8ff" stroke="#63b8ff" points="207.93,-25.39 216.29,-18.88 205.7,-18.76 207.93,-25.39"/>
</a>
</g>
</g>
<!-- Node12 -->
<g id="Node000012" class="node">
<title>Node12</title>
<g id="a_Node000012"><a xlink:title=" ">
<polygon fill="#e0e0e0" stroke="#999999" points="98.5,-20 60.75,-20 60.75,0 98.5,0 98.5,-20"/>
<text text-anchor="middle" x="79.62" y="-6.5" font-family="Helvetica,sans-Serif" font-size="10.00">array</text>
</a>
</g>
</g>
<!-- Node11&#45;&gt;Node12 -->
<g id="edge18_Node000011_Node000012" class="edge">
<title>Node11&#45;&gt;Node12</title>
<g id="a_edge18_Node000011_Node000012"><a xlink:title=" ">
<path fill="none" stroke="#63b8ff" d="M79.62,-55.59C79.62,-49.01 79.62,-39.96 79.62,-31.73"/>
<polygon fill="#63b8ff" stroke="#63b8ff" points="83.13,-31.81 79.63,-21.81 76.13,-31.81 83.13,-31.81"/>
</a>
</g>
</g>
<!-- Node13&#45;&gt;Node4 -->
<g id="edge21_Node000013_Node000004" class="edge">
<title>Node13&#45;&gt;Node4</title>
<g id="a_edge21_Node000013_Node000004"><a xlink:title=" ">
<path fill="none" stroke="#63b8ff" d="M722.36,-173.74C712.02,-151.84 684,-95.75 650.62,-56 641.78,-45.47 630.37,-35.3 620.49,-27.31"/>
<polygon fill="#63b8ff" stroke="#63b8ff" points="622.84,-24.71 612.81,-21.3 618.53,-30.22 622.84,-24.71"/>
</a>
</g>
</g>
<!-- Node13&#45;&gt;Node6 -->
<g id="edge22_Node000013_Node000006" class="edge">
<title>Node13&#45;&gt;Node6</title>
<g id="a_edge22_Node000013_Node000006"><a xlink:title=" ">
<path fill="none" stroke="#63b8ff" d="M705.53,-173.62C683.34,-163.76 648.18,-148.13 622.79,-136.85"/>
<polygon fill="#63b8ff" stroke="#63b8ff" points="624.51,-133.79 613.95,-132.92 621.67,-140.18 624.51,-133.79"/>
</a>
</g>
</g>
<!-- Node14 -->
<g id="Node000014" class="node">
<title>Node14</title>
<g id="a_Node000014"><a xlink:title=" ">
<polygon fill="#e0e0e0" stroke="#999999" points="800.12,-132 727.12,-132 727.12,-112 800.12,-112 800.12,-132"/>
<text text-anchor="middle" x="763.62" y="-118.5" font-family="Helvetica,sans-Serif" font-size="10.00">SDL_mixer.h</text>
</a>
</g>
</g>
<!-- Node13&#45;&gt;Node14 -->
<g id="edge20_Node000013_Node000014" class="edge">
<title>Node13&#45;&gt;Node14</title>
<g id="a_edge20_Node000013_Node000014"><a xlink:title=" ">
<path fill="none" stroke="#63b8ff" d="M732.41,-173.62C737.65,-165.12 745.54,-152.33 752.07,-141.74"/>
<polygon fill="#63b8ff" stroke="#63b8ff" points="754.94,-143.75 757.21,-133.4 748.98,-140.08 754.94,-143.75"/>
</a>
</g>
</g>
<!-- Node15&#45;&gt;Node3 -->
<g id="edge24_Node000015_Node000003" class="edge">
<title>Node15&#45;&gt;Node3</title>
<g id="a_edge24_Node000015_Node000003"><a xlink:title=" ">
<path fill="none" stroke="#63b8ff" d="M538.09,-167.78C511.66,-151.94 467.96,-127.36 427.62,-112 365.57,-88.37 343.76,-101.92 282.62,-76 252.1,-63.06 220.24,-41.82 199.95,-27.16"/>
<polygon fill="#63b8ff" stroke="#63b8ff" points="202.07,-24.37 191.95,-21.26 197.92,-30.01 202.07,-24.37"/>
</a>
</g>
</g>
<!-- Node15&#45;&gt;Node4 -->
<g id="edge25_Node000015_Node000004" class="edge">
<title>Node15&#45;&gt;Node4</title>
<g id="a_edge25_Node000015_Node000004"><a xlink:title=" ">
<path fill="none" stroke="#63b8ff" d="M602.02,-167.54C617.24,-159.4 633.04,-147.77 641.62,-132 660.37,-97.59 633.1,-53.38 614.17,-29.06"/>
<polygon fill="#63b8ff" stroke="#63b8ff" points="616.95,-26.93 607.92,-21.39 611.52,-31.35 616.95,-26.93"/>
</a>
</g>
</g>
<!-- Node15&#45;&gt;Node6 -->
<g id="edge26_Node000015_Node000006" class="edge">
<title>Node15&#45;&gt;Node6</title>
<g id="a_edge26_Node000015_Node000006"><a xlink:title=" ">
<path fill="none" stroke="#63b8ff" d="M570.09,-167.55C573.74,-160 578.18,-150.82 582.07,-142.77"/>
<polygon fill="#63b8ff" stroke="#63b8ff" points="585.22,-144.3 586.42,-133.77 578.92,-141.25 585.22,-144.3"/>
</a>
</g>
</g>
</g>
</svg>
