<?xml version="1.0" encoding="UTF-8" standalone="no"?>
<!DOCTYPE svg PUBLIC "-//W3C//DTD SVG 1.1//EN"
 "http://www.w3.org/Graphics/SVG/1.1/DTD/svg11.dtd">
<!-- Generated by graphviz version 12.1.0 (20240811.2233)
 -->
<!-- Title: include/TramposoLibrary/Game.h Pages: 1 -->
<svg width="537pt" height="208pt"
 viewBox="0.00 0.00 537.25 208.00" xmlns="http://www.w3.org/2000/svg" xmlns:xlink="http://www.w3.org/1999/xlink">
<g id="graph0" class="graph" transform="scale(1 1) rotate(0) translate(4 204)">
<title>include/TramposoLibrary/Game.h</title>
<!-- Node1 -->
<g id="Node000001" class="node">
<title>Node1</title>
<g id="a_Node000001"><a xlink:title=" ">
<polygon fill="#999999" stroke="#666666" points="334.12,-200 211.62,-200 211.62,-168 334.12,-168 334.12,-200"/>
<text text-anchor="start" x="219.62" y="-186.5" font-family="Helvetica,sans-Serif" font-size="10.00">include/TramposoLibrary</text>
<text text-anchor="middle" x="272.88" y="-174.5" font-family="Helvetica,sans-Serif" font-size="10.00">/Game.h</text>
</a>
</g>
</g>
<!-- Node2 -->
<g id="Node000002" class="node">
<title>Node2</title>
<g id="a_Node000002"><a xlink:title=" ">
<polygon fill="#e0e0e0" stroke="#999999" points="43.75,-20 0,-20 0,0 43.75,0 43.75,-20"/>
<text text-anchor="middle" x="21.88" y="-6.5" font-family="Helvetica,sans-Serif" font-size="10.00">SDL.h</text>
</a>
</g>
</g>
<!-- Node1&#45;&gt;Node2 -->
<g id="edge1_Node000001_Node000002" class="edge">
<title>Node1&#45;&gt;Node2</title>
<g id="a_edge1_Node000001_Node000002"><a xlink:title=" ">
<path fill="none" stroke="#63b8ff" d="M220,-167.53C195.69,-159.09 167.16,-147.22 143.88,-132 99.15,-102.77 57.28,-55.21 36.17,-29.28"/>
<polygon fill="#63b8ff" stroke="#63b8ff" points="39.06,-27.28 30.08,-21.66 33.6,-31.66 39.06,-27.28"/>
</a>
</g>
</g>
<!-- Node3 -->
<g id="Node000003" class="node">
<title>Node3</title>
<g id="a_Node000003"><a xlink:title=" ">
<polygon fill="#e0e0e0" stroke="#999999" points="101.88,-20 61.88,-20 61.88,0 101.88,0 101.88,-20"/>
<text text-anchor="middle" x="81.88" y="-6.5" font-family="Helvetica,sans-Serif" font-size="10.00">string</text>
</a>
</g>
</g>
<!-- Node1&#45;&gt;Node3 -->
<g id="edge2_Node000001_Node000003" class="edge">
<title>Node1&#45;&gt;Node3</title>
<g id="a_edge2_Node000001_Node000003"><a xlink:title=" ">
<path fill="none" stroke="#63b8ff" d="M238.02,-167.63C201.73,-150.08 145.35,-118.26 109.88,-76 98.88,-62.9 91.56,-44.82 87.17,-31.06"/>
<polygon fill="#63b8ff" stroke="#63b8ff" points="90.62,-30.39 84.48,-21.76 83.9,-32.34 90.62,-30.39"/>
</a>
</g>
</g>
<!-- Node4 -->
<g id="Node000004" class="node">
<title>Node4</title>
<g id="a_Node000004"><a xlink:title=" ">
<polygon fill="#e0e0e0" stroke="#999999" points="339.5,-20 288.25,-20 288.25,0 339.5,0 339.5,-20"/>
<text text-anchor="middle" x="313.88" y="-6.5" font-family="Helvetica,sans-Serif" font-size="10.00">memory</text>
</a>
</g>
</g>
<!-- Node1&#45;&gt;Node4 -->
<g id="edge3_Node000001_Node000004" class="edge">
<title>Node1&#45;&gt;Node4</title>
<g id="a_edge3_Node000001_Node000004"><a xlink:title=" ">
<path fill="none" stroke="#63b8ff" d="M276.51,-167.74C283.91,-136.69 300.72,-66.18 309.03,-31.31"/>
<polygon fill="#63b8ff" stroke="#63b8ff" points="312.41,-32.22 311.33,-21.68 305.61,-30.6 312.41,-32.22"/>
</a>
</g>
</g>
<!-- Node5 -->
<g id="Node000005" class="node">
<title>Node5</title>
<g id="a_Node000005"><a xlink:title=" ">
<polygon fill="#e0e0e0" stroke="#999999" points="529.25,-132 446.5,-132 446.5,-112 529.25,-112 529.25,-132"/>
<text text-anchor="middle" x="487.88" y="-118.5" font-family="Helvetica,sans-Serif" font-size="10.00">unordered_map</text>
</a>
</g>
</g>
<!-- Node1&#45;&gt;Node5 -->
<g id="edge4_Node000001_Node000005" class="edge">
<title>Node1&#45;&gt;Node5</title>
<g id="a_edge4_Node000001_Node000005"><a xlink:title=" ">
<path fill="none" stroke="#63b8ff" d="M328.24,-167.55C363.9,-157.6 409.66,-144.83 443.03,-135.51"/>
<polygon fill="#63b8ff" stroke="#63b8ff" points="443.7,-138.96 452.39,-132.9 441.82,-132.22 443.7,-138.96"/>
</a>
</g>
</g>
<!-- Node6 -->
<g id="Node000006" class="node">
<title>Node6</title>
<g id="a_Node000006"><a xlink:href="_scene_8h.html" target="_top" xlink:title=" ">
<polygon fill="white" stroke="#666666" points="428.75,-132 301,-132 301,-112 428.75,-112 428.75,-132"/>
<text text-anchor="middle" x="364.88" y="-118.5" font-family="Helvetica,sans-Serif" font-size="10.00">TramposoLibrary/Scene.h</text>
</a>
</g>
</g>
<!-- Node1&#45;&gt;Node6 -->
<g id="edge5_Node000001_Node000006" class="edge">
<title>Node1&#45;&gt;Node6</title>
<g id="a_edge5_Node000001_Node000006"><a xlink:title=" ">
<path fill="none" stroke="#63b8ff" d="M296.57,-167.55C310.28,-158.61 327.47,-147.39 341.18,-138.45"/>
<polygon fill="#63b8ff" stroke="#63b8ff" points="342.72,-141.63 349.18,-133.23 338.89,-135.77 342.72,-141.63"/>
</a>
</g>
</g>
<!-- Node6&#45;&gt;Node4 -->
<g id="edge6_Node000006_Node000004" class="edge">
<title>Node6&#45;&gt;Node4</title>
<g id="a_edge6_Node000006_Node000004"><a xlink:title=" ">
<path fill="none" stroke="#63b8ff" d="M360.53,-111.62C352.25,-93.76 334.06,-54.53 322.99,-30.67"/>
<polygon fill="#63b8ff" stroke="#63b8ff" points="326.23,-29.33 318.85,-21.73 319.88,-32.27 326.23,-29.33"/>
</a>
</g>
</g>
<!-- Node7 -->
<g id="Node000007" class="node">
<title>Node7</title>
<g id="a_Node000007"><a xlink:title=" ">
<polygon fill="#e0e0e0" stroke="#999999" points="400.38,-20 357.38,-20 357.38,0 400.38,0 400.38,-20"/>
<text text-anchor="middle" x="378.88" y="-6.5" font-family="Helvetica,sans-Serif" font-size="10.00">vector</text>
</a>
</g>
</g>
<!-- Node6&#45;&gt;Node7 -->
<g id="edge7_Node000006_Node000007" class="edge">
<title>Node6&#45;&gt;Node7</title>
<g id="a_edge7_Node000006_Node000007"><a xlink:title=" ">
<path fill="none" stroke="#63b8ff" d="M366.07,-111.62C368.31,-94.01 373.2,-55.59 376.25,-31.65"/>
<polygon fill="#63b8ff" stroke="#63b8ff" points="379.7,-32.22 377.49,-21.86 372.76,-31.33 379.7,-32.22"/>
</a>
</g>
</g>
<!-- Node8 -->
<g id="Node000008" class="node">
<title>Node8</title>
<g id="a_Node000008"><a xlink:href="_sprite_8h.html" target="_top" xlink:title=" ">
<polygon fill="white" stroke="#666666" points="244.62,-76 119.12,-76 119.12,-56 244.62,-56 244.62,-76"/>
<text text-anchor="middle" x="181.88" y="-62.5" font-family="Helvetica,sans-Serif" font-size="10.00">TramposoLibrary/Sprite.h</text>
</a>
</g>
</g>
<!-- Node6&#45;&gt;Node8 -->
<g id="edge8_Node000006_Node000008" class="edge">
<title>Node6&#45;&gt;Node8</title>
<g id="a_edge8_Node000006_Node000008"><a xlink:title=" ">
<path fill="none" stroke="#63b8ff" d="M333,-111.59C303.01,-102.74 257.87,-89.43 224.74,-79.65"/>
<polygon fill="#63b8ff" stroke="#63b8ff" points="226.03,-76.38 215.45,-76.91 224.05,-83.09 226.03,-76.38"/>
</a>
</g>
</g>
<!-- Node8&#45;&gt;Node2 -->
<g id="edge9_Node000008_Node000002" class="edge">
<title>Node8&#45;&gt;Node2</title>
<g id="a_edge9_Node000008_Node000002"><a xlink:title=" ">
<path fill="none" stroke="#63b8ff" d="M154.01,-55.59C126.34,-46.26 83.95,-31.95 54.67,-22.07"/>
<polygon fill="#63b8ff" stroke="#63b8ff" points="55.8,-18.76 45.21,-18.88 53.57,-25.39 55.8,-18.76"/>
</a>
</g>
</g>
<!-- Node8&#45;&gt;Node3 -->
<g id="edge10_Node000008_Node000003" class="edge">
<title>Node8&#45;&gt;Node3</title>
<g id="a_edge10_Node000008_Node000003"><a xlink:title=" ">
<path fill="none" stroke="#63b8ff" d="M164.46,-55.59C149.21,-47.36 126.8,-35.26 109.17,-25.74"/>
<polygon fill="#63b8ff" stroke="#63b8ff" points="111.22,-22.87 100.76,-21.2 107.9,-29.03 111.22,-22.87"/>
</a>
</g>
</g>
<!-- Node8&#45;&gt;Node4 -->
<g id="edge11_Node000008_Node000004" class="edge">
<title>Node8&#45;&gt;Node4</title>
<g id="a_edge11_Node000008_Node000004"><a xlink:title=" ">
<path fill="none" stroke="#63b8ff" d="M204.87,-55.59C225.66,-47.09 256.53,-34.46 280.11,-24.81"/>
<polygon fill="#63b8ff" stroke="#63b8ff" points="281.37,-28.08 289.3,-21.05 278.72,-21.6 281.37,-28.08"/>
</a>
</g>
</g>
<!-- Node8&#45;&gt;Node7 -->
<g id="edge12_Node000008_Node000007" class="edge">
<title>Node8&#45;&gt;Node7</title>
<g id="a_edge12_Node000008_Node000007"><a xlink:title=" ">
<path fill="none" stroke="#63b8ff" d="M218.12,-55.55C249.68,-47.25 296.95,-34.66 346.1,-20.74"/>
<polygon fill="#63b8ff" stroke="#63b8ff" points="346.82,-24.17 355.49,-18.07 344.91,-17.44 346.82,-24.17"/>
</a>
</g>
</g>
<!-- Node9 -->
<g id="Node000009" class="node">
<title>Node9</title>
<g id="a_Node000009"><a xlink:href="_component_8h.html" target="_top" xlink:title=" ">
<polygon fill="white" stroke="#666666" points="270,-20 119.75,-20 119.75,0 270,0 270,-20"/>
<text text-anchor="middle" x="194.88" y="-6.5" font-family="Helvetica,sans-Serif" font-size="10.00">TramposoLibrary/Component.h</text>
</a>
</g>
</g>
<!-- Node8&#45;&gt;Node9 -->
<g id="edge13_Node000008_Node000009" class="edge">
<title>Node8&#45;&gt;Node9</title>
<g id="a_edge13_Node000008_Node000009"><a xlink:title=" ">
<path fill="none" stroke="#63b8ff" d="M184.14,-55.59C185.74,-48.93 187.95,-39.75 189.95,-31.44"/>
<polygon fill="#63b8ff" stroke="#63b8ff" points="193.34,-32.31 192.28,-21.77 186.54,-30.67 193.34,-32.31"/>
</a>
</g>
</g>
</g>
</svg>
