<?xml version="1.0" encoding="UTF-8" standalone="no"?>
<!DOCTYPE svg PUBLIC "-//W3C//DTD SVG 1.1//EN"
 "http://www.w3.org/Graphics/SVG/1.1/DTD/svg11.dtd">
<!-- Generated by graphviz version 12.1.0 (20240811.2233)
 -->
<!-- Title: include/TramposoLibrary/InputManager.h Pages: 1 -->
<svg width="168pt" height="96pt"
 viewBox="0.00 0.00 167.75 96.00" xmlns="http://www.w3.org/2000/svg" xmlns:xlink="http://www.w3.org/1999/xlink">
<g id="graph0" class="graph" transform="scale(1 1) rotate(0) translate(4 92)">
<title>include/TramposoLibrary/InputManager.h</title>
<!-- Node1 -->
<g id="Node000001" class="node">
<title>Node1</title>
<g id="a_Node000001"><a xlink:title=" ">
<polygon fill="#999999" stroke="#666666" points="144.12,-88 21.62,-88 21.62,-56 144.12,-56 144.12,-88"/>
<text text-anchor="start" x="29.62" y="-74.5" font-family="Helvetica,sans-Serif" font-size="10.00">include/TramposoLibrary</text>
<text text-anchor="middle" x="82.88" y="-62.5" font-family="Helvetica,sans-Serif" font-size="10.00">/InputManager.h</text>
</a>
</g>
</g>
<!-- Node2 -->
<g id="Node000002" class="node">
<title>Node2</title>
<g id="a_Node000002"><a xlink:title=" ">
<polygon fill="#e0e0e0" stroke="#999999" points="43.75,-20 0,-20 0,0 43.75,0 43.75,-20"/>
<text text-anchor="middle" x="21.88" y="-6.5" font-family="Helvetica,sans-Serif" font-size="10.00">SDL.h</text>
</a>
</g>
</g>
<!-- Node1&#45;&gt;Node2 -->
<g id="edge1_Node000001_Node000002" class="edge">
<title>Node1&#45;&gt;Node2</title>
<g id="a_edge1_Node000001_Node000002"><a xlink:title=" ">
<path fill="none" stroke="#63b8ff" d="M67.17,-55.55C58.69,-47.22 48.21,-36.91 39.47,-28.3"/>
<polygon fill="#63b8ff" stroke="#63b8ff" points="42.1,-25.99 32.52,-21.47 37.19,-30.98 42.1,-25.99"/>
</a>
</g>
</g>
<!-- Node3 -->
<g id="Node000003" class="node">
<title>Node3</title>
<g id="a_Node000003"><a xlink:title=" ">
<polygon fill="#e0e0e0" stroke="#999999" points="104.38,-20 61.38,-20 61.38,0 104.38,0 104.38,-20"/>
<text text-anchor="middle" x="82.88" y="-6.5" font-family="Helvetica,sans-Serif" font-size="10.00">vector</text>
</a>
</g>
</g>
<!-- Node1&#45;&gt;Node3 -->
<g id="edge2_Node000001_Node000003" class="edge">
<title>Node1&#45;&gt;Node3</title>
<g id="a_edge2_Node000001_Node000003"><a xlink:title=" ">
<path fill="none" stroke="#63b8ff" d="M82.88,-55.55C82.88,-48.34 82.88,-39.66 82.88,-31.88"/>
<polygon fill="#63b8ff" stroke="#63b8ff" points="86.38,-31.92 82.88,-21.92 79.38,-31.92 86.38,-31.92"/>
</a>
</g>
</g>
<!-- Node4 -->
<g id="Node000004" class="node">
<title>Node4</title>
<g id="a_Node000004"><a xlink:title=" ">
<polygon fill="#e0e0e0" stroke="#999999" points="159.75,-20 122,-20 122,0 159.75,0 159.75,-20"/>
<text text-anchor="middle" x="140.88" y="-6.5" font-family="Helvetica,sans-Serif" font-size="10.00">array</text>
</a>
</g>
</g>
<!-- Node1&#45;&gt;Node4 -->
<g id="edge3_Node000001_Node000004" class="edge">
<title>Node1&#45;&gt;Node4</title>
<g id="a_edge3_Node000001_Node000004"><a xlink:title=" ">
<path fill="none" stroke="#63b8ff" d="M97.81,-55.55C105.78,-47.3 115.63,-37.12 123.89,-28.57"/>
<polygon fill="#63b8ff" stroke="#63b8ff" points="126.29,-31.12 130.73,-21.5 121.26,-26.25 126.29,-31.12"/>
</a>
</g>
</g>
</g>
</svg>
