<?xml version="1.0" encoding="UTF-8" standalone="no"?>
<!DOCTYPE svg PUBLIC "-//W3C//DTD SVG 1.1//EN"
 "http://www.w3.org/Graphics/SVG/1.1/DTD/svg11.dtd">
<!-- Generated by graphviz version 12.1.0 (20240811.2233)
 -->
<!-- Title: src/InputManager.cpp Pages: 1 -->
<svg width="245pt" height="140pt"
 viewBox="0.00 0.00 244.75 140.00" xmlns="http://www.w3.org/2000/svg" xmlns:xlink="http://www.w3.org/1999/xlink">
<g id="graph0" class="graph" transform="scale(1 1) rotate(0) translate(4 136)">
<title>src/InputManager.cpp</title>
<!-- Node1 -->
<g id="Node000001" class="node">
<title>Node1</title>
<g id="a_Node000001"><a xlink:title=" ">
<polygon fill="#999999" stroke="#666666" points="201.12,-132 90.62,-132 90.62,-112 201.12,-112 201.12,-132"/>
<text text-anchor="middle" x="145.88" y="-118.5" font-family="Helvetica,sans-Serif" font-size="10.00">src/InputManager.cpp</text>
</a>
</g>
</g>
<!-- Node2 -->
<g id="Node000002" class="node">
<title>Node2</title>
<g id="a_Node000002"><a xlink:href="_input_manager_8h.html" target="_top" xlink:title=" ">
<polygon fill="white" stroke="#666666" points="162.5,-76 3.25,-76 3.25,-56 162.5,-56 162.5,-76"/>
<text text-anchor="middle" x="82.88" y="-62.5" font-family="Helvetica,sans-Serif" font-size="10.00">TramposoLibrary/InputManager.h</text>
</a>
</g>
</g>
<!-- Node1&#45;&gt;Node2 -->
<g id="edge1_Node000001_Node000002" class="edge">
<title>Node1&#45;&gt;Node2</title>
<g id="a_edge1_Node000001_Node000002"><a xlink:title=" ">
<path fill="none" stroke="#63b8ff" d="M134.9,-111.59C125.96,-103.93 113.1,-92.91 102.41,-83.75"/>
<polygon fill="#63b8ff" stroke="#63b8ff" points="104.74,-81.13 94.87,-77.28 100.19,-86.45 104.74,-81.13"/>
</a>
</g>
</g>
<!-- Node6 -->
<g id="Node000006" class="node">
<title>Node6</title>
<g id="a_Node000006"><a xlink:title=" ">
<polygon fill="#e0e0e0" stroke="#999999" points="236.75,-76 181,-76 181,-56 236.75,-56 236.75,-76"/>
<text text-anchor="middle" x="208.88" y="-62.5" font-family="Helvetica,sans-Serif" font-size="10.00">algorithm</text>
</a>
</g>
</g>
<!-- Node1&#45;&gt;Node6 -->
<g id="edge5_Node000001_Node000006" class="edge">
<title>Node1&#45;&gt;Node6</title>
<g id="a_edge5_Node000001_Node000006"><a xlink:title=" ">
<path fill="none" stroke="#63b8ff" d="M156.85,-111.59C165.79,-103.93 178.65,-92.91 189.34,-83.75"/>
<polygon fill="#63b8ff" stroke="#63b8ff" points="191.56,-86.45 196.88,-77.28 187.01,-81.13 191.56,-86.45"/>
</a>
</g>
</g>
<!-- Node3 -->
<g id="Node000003" class="node">
<title>Node3</title>
<g id="a_Node000003"><a xlink:title=" ">
<polygon fill="#e0e0e0" stroke="#999999" points="43.75,-20 0,-20 0,0 43.75,0 43.75,-20"/>
<text text-anchor="middle" x="21.88" y="-6.5" font-family="Helvetica,sans-Serif" font-size="10.00">SDL.h</text>
</a>
</g>
</g>
<!-- Node2&#45;&gt;Node3 -->
<g id="edge2_Node000002_Node000003" class="edge">
<title>Node2&#45;&gt;Node3</title>
<g id="a_edge2_Node000002_Node000003"><a xlink:title=" ">
<path fill="none" stroke="#63b8ff" d="M72.25,-55.59C63.59,-47.93 51.14,-36.91 40.79,-27.75"/>
<polygon fill="#63b8ff" stroke="#63b8ff" points="43.32,-25.31 33.51,-21.3 38.68,-30.55 43.32,-25.31"/>
</a>
</g>
</g>
<!-- Node4 -->
<g id="Node000004" class="node">
<title>Node4</title>
<g id="a_Node000004"><a xlink:title=" ">
<polygon fill="#e0e0e0" stroke="#999999" points="104.38,-20 61.38,-20 61.38,0 104.38,0 104.38,-20"/>
<text text-anchor="middle" x="82.88" y="-6.5" font-family="Helvetica,sans-Serif" font-size="10.00">vector</text>
</a>
</g>
</g>
<!-- Node2&#45;&gt;Node4 -->
<g id="edge3_Node000002_Node000004" class="edge">
<title>Node2&#45;&gt;Node4</title>
<g id="a_edge3_Node000002_Node000004"><a xlink:title=" ">
<path fill="none" stroke="#63b8ff" d="M82.88,-55.59C82.88,-49.01 82.88,-39.96 82.88,-31.73"/>
<polygon fill="#63b8ff" stroke="#63b8ff" points="86.38,-31.81 82.88,-21.81 79.38,-31.81 86.38,-31.81"/>
</a>
</g>
</g>
<!-- Node5 -->
<g id="Node000005" class="node">
<title>Node5</title>
<g id="a_Node000005"><a xlink:title=" ">
<polygon fill="#e0e0e0" stroke="#999999" points="159.75,-20 122,-20 122,0 159.75,0 159.75,-20"/>
<text text-anchor="middle" x="140.88" y="-6.5" font-family="Helvetica,sans-Serif" font-size="10.00">array</text>
</a>
</g>
</g>
<!-- Node2&#45;&gt;Node5 -->
<g id="edge4_Node000002_Node000005" class="edge">
<title>Node2&#45;&gt;Node5</title>
<g id="a_edge4_Node000002_Node000005"><a xlink:title=" ">
<path fill="none" stroke="#63b8ff" d="M92.98,-55.59C101.13,-48.01 112.81,-37.13 122.59,-28.02"/>
<polygon fill="#63b8ff" stroke="#63b8ff" points="124.85,-30.71 129.78,-21.33 120.08,-25.58 124.85,-30.71"/>
</a>
</g>
</g>
</g>
</svg>
