<?xml version="1.0" encoding="UTF-8" standalone="no"?>
<!DOCTYPE svg PUBLIC "-//W3C//DTD SVG 1.1//EN"
 "http://www.w3.org/Graphics/SVG/1.1/DTD/svg11.dtd">
<!-- Generated by graphviz version 12.1.0 (20240811.2233)
 -->
<!-- Title: src/PhysicsComponent.cpp Pages: 1 -->
<svg width="415pt" height="140pt"
 viewBox="0.00 0.00 415.25 140.00" xmlns="http://www.w3.org/2000/svg" xmlns:xlink="http://www.w3.org/1999/xlink">

<svg id="main" version="1.1" xmlns="http://www.w3.org/2000/svg" xmlns:xlink="http://www.w3.org/1999/xlink" xml:space="preserve">

<style type="text/css"><![CDATA[
.node, .edge {opacity: 0.7;}
.node.selected, .edge.selected {opacity: 1;}
.edge:hover path { stroke: red; }
.edge:hover polygon { stroke: red; fill: red; }
]]></style>
<script type="application/ecmascript" xlink:href="svg.min.js"/>
<svg id="graph" class="graph">
<g id="graph0" class="graph" transform="scale(1 1) rotate(0) translate(4 136)">
<title>src/PhysicsComponent.cpp</title>
<!-- Node1 -->
<g id="Node000001" class="node">
<title>Node1</title>
<g id="a_Node000001"><a xlink:title=" ">
<polygon fill="#999999" stroke="#666666" points="248.12,-132 111.38,-132 111.38,-112 248.12,-112 248.12,-132"/>
<text text-anchor="middle" x="179.75" y="-118.5" font-family="Helvetica,sans-Serif" font-size="10.00">src/PhysicsComponent.cpp</text>
</a>
</g>
</g>
<!-- Node2 -->
<g id="Node000002" class="node">
<title>Node2</title>
<g id="a_Node000002"><a xlink:href="_physics_component_8h.html" target="_top" xlink:title=" ">
<polygon fill="white" stroke="#666666" points="185.5,-76 0,-76 0,-56 185.5,-56 185.5,-76"/>
<text text-anchor="middle" x="92.75" y="-62.5" font-family="Helvetica,sans-Serif" font-size="10.00">TramposoLibrary/PhysicsComponent.h</text>
</a>
</g>
</g>
<!-- Node1&#45;&gt;Node2 -->
<g id="edge1_Node000001_Node000002" class="edge">
<title>Node1&#45;&gt;Node2</title>
<g id="a_edge1_Node000001_Node000002"><a xlink:title=" ">
<path fill="none" stroke="#63b8ff" d="M164.6,-111.59C151.7,-103.59 132.92,-91.93 117.79,-82.54"/>
<polygon fill="#63b8ff" stroke="#63b8ff" points="119.65,-79.58 109.31,-77.28 115.96,-85.53 119.65,-79.58"/>
</a>
</g>
</g>
<!-- Node4 -->
<g id="Node000004" class="node">
<title>Node4</title>
<g id="a_Node000004"><a xlink:href="_sprite_8h.html" target="_top" xlink:title=" ">
<polygon fill="white" stroke="#666666" points="329.5,-76 204,-76 204,-56 329.5,-56 329.5,-76"/>
<text text-anchor="middle" x="266.75" y="-62.5" font-family="Helvetica,sans-Serif" font-size="10.00">TramposoLibrary/Sprite.h</text>
</a>
</g>
</g>
<!-- Node1&#45;&gt;Node4 -->
<g id="edge3_Node000001_Node000004" class="edge">
<title>Node1&#45;&gt;Node4</title>
<g id="a_edge3_Node000001_Node000004"><a xlink:title=" ">
<path fill="none" stroke="#63b8ff" d="M194.9,-111.59C207.8,-103.59 226.58,-91.93 241.71,-82.54"/>
<polygon fill="#63b8ff" stroke="#63b8ff" points="243.54,-85.53 250.19,-77.28 239.85,-79.58 243.54,-85.53"/>
</a>
</g>
</g>
<!-- Node3 -->
<g id="Node000003" class="node">
<title>Node3</title>
<g id="a_Node000003"><a xlink:href="_component_8h.html" target="_top" xlink:title=" ">
<polygon fill="white" stroke="#666666" points="148,-20 73.5,-20 73.5,0 148,0 148,-20"/>
<text text-anchor="middle" x="110.75" y="-6.5" font-family="Helvetica,sans-Serif" font-size="10.00">Component.h</text>
</a>
</g>
</g>
<!-- Node2&#45;&gt;Node3 -->
<g id="edge2_Node000002_Node000003" class="edge">
<title>Node2&#45;&gt;Node3</title>
<g id="a_edge2_Node000002_Node000003"><a xlink:title=" ">
<path fill="none" stroke="#63b8ff" d="M95.89,-55.59C98.13,-48.86 101.24,-39.53 104.03,-31.15"/>
<polygon fill="#63b8ff" stroke="#63b8ff" points="107.33,-32.33 107.17,-21.73 100.69,-30.11 107.33,-32.33"/>
</a>
</g>
</g>
<!-- Node4&#45;&gt;Node3 -->
<g id="edge8_Node000004_Node000003" class="edge">
<title>Node4&#45;&gt;Node3</title>
<g id="a_edge8_Node000004_Node000003"><a xlink:title=" ">
<path fill="none" stroke="#63b8ff" d="M239.58,-55.59C214.45,-46.9 176.87,-33.89 148.77,-24.16"/>
<polygon fill="#63b8ff" stroke="#63b8ff" points="150.16,-20.94 139.57,-20.97 147.87,-27.55 150.16,-20.94"/>
</a>
</g>
</g>
<!-- Node5 -->
<g id="Node000005" class="node">
<title>Node5</title>
<g id="a_Node000005"><a xlink:title=" ">
<polygon fill="#e0e0e0" stroke="#999999" points="218.62,-20 174.88,-20 174.88,0 218.62,0 218.62,-20"/>
<text text-anchor="middle" x="196.75" y="-6.5" font-family="Helvetica,sans-Serif" font-size="10.00">SDL.h</text>
</a>
</g>
</g>
<!-- Node4&#45;&gt;Node5 -->
<g id="edge4_Node000004_Node000005" class="edge">
<title>Node4&#45;&gt;Node5</title>
<g id="a_edge4_Node000004_Node000005"><a xlink:title=" ">
<path fill="none" stroke="#63b8ff" d="M254.56,-55.59C244.42,-47.77 229.76,-36.46 217.74,-27.19"/>
<polygon fill="#63b8ff" stroke="#63b8ff" points="220.06,-24.56 210,-21.22 215.78,-30.1 220.06,-24.56"/>
</a>
</g>
</g>
<!-- Node6 -->
<g id="Node000006" class="node">
<title>Node6</title>
<g id="a_Node000006"><a xlink:title=" ">
<polygon fill="#e0e0e0" stroke="#999999" points="276.75,-20 236.75,-20 236.75,0 276.75,0 276.75,-20"/>
<text text-anchor="middle" x="256.75" y="-6.5" font-family="Helvetica,sans-Serif" font-size="10.00">string</text>
</a>
</g>
</g>
<!-- Node4&#45;&gt;Node6 -->
<g id="edge5_Node000004_Node000006" class="edge">
<title>Node4&#45;&gt;Node6</title>
<g id="a_edge5_Node000004_Node000006"><a xlink:title=" ">
<path fill="none" stroke="#63b8ff" d="M265.01,-55.59C263.77,-48.93 262.07,-39.75 260.54,-31.44"/>
<polygon fill="#63b8ff" stroke="#63b8ff" points="264.01,-30.98 258.75,-21.79 257.13,-32.26 264.01,-30.98"/>
</a>
</g>
</g>
<!-- Node7 -->
<g id="Node000007" class="node">
<title>Node7</title>
<g id="a_Node000007"><a xlink:title=" ">
<polygon fill="#e0e0e0" stroke="#999999" points="346.38,-20 295.12,-20 295.12,0 346.38,0 346.38,-20"/>
<text text-anchor="middle" x="320.75" y="-6.5" font-family="Helvetica,sans-Serif" font-size="10.00">memory</text>
</a>
</g>
</g>
<!-- Node4&#45;&gt;Node7 -->
<g id="edge6_Node000004_Node000007" class="edge">
<title>Node4&#45;&gt;Node7</title>
<g id="a_edge6_Node000004_Node000007"><a xlink:title=" ">
<path fill="none" stroke="#63b8ff" d="M276.16,-55.59C283.67,-48.08 294.4,-37.35 303.45,-28.3"/>
<polygon fill="#63b8ff" stroke="#63b8ff" points="305.79,-30.91 310.38,-21.37 300.84,-25.96 305.79,-30.91"/>
</a>
</g>
</g>
<!-- Node8 -->
<g id="Node000008" class="node">
<title>Node8</title>
<g id="a_Node000008"><a xlink:title=" ">
<polygon fill="#e0e0e0" stroke="#999999" points="407.25,-20 364.25,-20 364.25,0 407.25,0 407.25,-20"/>
<text text-anchor="middle" x="385.75" y="-6.5" font-family="Helvetica,sans-Serif" font-size="10.00">vector</text>
</a>
</g>
</g>
<!-- Node4&#45;&gt;Node8 -->
<g id="edge7_Node000004_Node000008" class="edge">
<title>Node4&#45;&gt;Node8</title>
<g id="a_edge7_Node000004_Node000008"><a xlink:title=" ">
<path fill="none" stroke="#63b8ff" d="M287.48,-55.59C305.96,-47.21 333.29,-34.8 354.44,-25.21"/>
<polygon fill="#63b8ff" stroke="#63b8ff" points="355.82,-28.42 363.48,-21.1 352.93,-22.05 355.82,-28.42"/>
</a>
</g>
</g>
</g>
</svg>
</svg>

<style type='text/css'>
<![CDATA[
[data-mouse-over-selected='false'] { opacity: 0.7; }
[data-mouse-over-selected='true']  { opacity: 1.0; }
]]>
</style>
<script type="application/ecmascript"><![CDATA[
document.addEventListener('DOMContentLoaded', (event) => {
  highlightEdges();
  highlightAdjacentNodes();
});
]]></script>
</svg>
