<?xml version="1.0" encoding="UTF-8" standalone="no"?>
<!DOCTYPE svg PUBLIC "-//W3C//DTD SVG 1.1//EN"
 "http://www.w3.org/Graphics/SVG/1.1/DTD/svg11.dtd">
<!-- Generated by graphviz version 12.1.0 (20240811.2233)
 -->
<!-- Title: src/Scene.cpp Pages: 1 -->
<svg width="445pt" height="252pt"
 viewBox="0.00 0.00 444.75 252.00" xmlns="http://www.w3.org/2000/svg" xmlns:xlink="http://www.w3.org/1999/xlink">

<svg id="main" version="1.1" xmlns="http://www.w3.org/2000/svg" xmlns:xlink="http://www.w3.org/1999/xlink" xml:space="preserve">

<style type="text/css"><![CDATA[
.node, .edge {opacity: 0.7;}
.node.selected, .edge.selected {opacity: 1;}
.edge:hover path { stroke: red; }
.edge:hover polygon { stroke: red; fill: red; }
]]></style>
<script type="application/ecmascript" xlink:href="svg.min.js"/>
<svg id="graph" class="graph">
<g id="graph0" class="graph" transform="scale(1 1) rotate(0) translate(4 248)">
<title>src/Scene.cpp</title>
<!-- Node1 -->
<g id="Node000001" class="node">
<title>Node1</title>
<g id="a_Node000001"><a xlink:title=" ">
<polygon fill="#999999" stroke="#666666" points="183.38,-244 104.38,-244 104.38,-224 183.38,-224 183.38,-244"/>
<text text-anchor="middle" x="143.88" y="-230.5" font-family="Helvetica,sans-Serif" font-size="10.00">src/Scene.cpp</text>
</a>
</g>
</g>
<!-- Node2 -->
<g id="Node000002" class="node">
<title>Node2</title>
<g id="a_Node000002"><a xlink:href="_scene_8h.html" target="_top" xlink:title=" ">
<polygon fill="white" stroke="#666666" points="127.75,-132 0,-132 0,-112 127.75,-112 127.75,-132"/>
<text text-anchor="middle" x="63.88" y="-118.5" font-family="Helvetica,sans-Serif" font-size="10.00">TramposoLibrary/Scene.h</text>
</a>
</g>
</g>
<!-- Node1&#45;&gt;Node2 -->
<g id="edge1_Node000001_Node000002" class="edge">
<title>Node1&#45;&gt;Node2</title>
<g id="a_edge1_Node000001_Node000002"><a xlink:title=" ">
<path fill="none" stroke="#63b8ff" d="M137.05,-223.62C123.83,-205.44 94.49,-165.09 77.25,-141.38"/>
<polygon fill="#63b8ff" stroke="#63b8ff" points="80.28,-139.61 71.57,-133.58 74.62,-143.72 80.28,-139.61"/>
</a>
</g>
</g>
<!-- Node9 -->
<g id="Node000009" class="node">
<title>Node9</title>
<g id="a_Node000009"><a xlink:href="_game_8h.html" target="_top" xlink:title=" ">
<polygon fill="white" stroke="#666666" points="253,-188 126.75,-188 126.75,-168 253,-168 253,-188"/>
<text text-anchor="middle" x="189.88" y="-174.5" font-family="Helvetica,sans-Serif" font-size="10.00">TramposoLibrary/Game.h</text>
</a>
</g>
</g>
<!-- Node1&#45;&gt;Node9 -->
<g id="edge10_Node000001_Node000009" class="edge">
<title>Node1&#45;&gt;Node9</title>
<g id="a_edge10_Node000001_Node000009"><a xlink:title=" ">
<path fill="none" stroke="#63b8ff" d="M151.89,-223.59C158.15,-216.24 167.05,-205.8 174.66,-196.87"/>
<polygon fill="#63b8ff" stroke="#63b8ff" points="177.15,-199.33 180.97,-189.45 171.82,-194.79 177.15,-199.33"/>
</a>
</g>
</g>
<!-- Node3 -->
<g id="Node000003" class="node">
<title>Node3</title>
<g id="a_Node000003"><a xlink:title=" ">
<polygon fill="#e0e0e0" stroke="#999999" points="148.5,-20 97.25,-20 97.25,0 148.5,0 148.5,-20"/>
<text text-anchor="middle" x="122.88" y="-6.5" font-family="Helvetica,sans-Serif" font-size="10.00">memory</text>
</a>
</g>
</g>
<!-- Node2&#45;&gt;Node3 -->
<g id="edge2_Node000002_Node000003" class="edge">
<title>Node2&#45;&gt;Node3</title>
<g id="a_edge2_Node000002_Node000003"><a xlink:title=" ">
<path fill="none" stroke="#63b8ff" d="M68.91,-111.62C78.53,-93.68 99.72,-54.17 112.5,-30.35"/>
<polygon fill="#63b8ff" stroke="#63b8ff" points="115.5,-32.16 117.14,-21.69 109.33,-28.85 115.5,-32.16"/>
</a>
</g>
</g>
<!-- Node4 -->
<g id="Node000004" class="node">
<title>Node4</title>
<g id="a_Node000004"><a xlink:title=" ">
<polygon fill="#e0e0e0" stroke="#999999" points="79.38,-20 36.38,-20 36.38,0 79.38,0 79.38,-20"/>
<text text-anchor="middle" x="57.88" y="-6.5" font-family="Helvetica,sans-Serif" font-size="10.00">vector</text>
</a>
</g>
</g>
<!-- Node2&#45;&gt;Node4 -->
<g id="edge3_Node000002_Node000004" class="edge">
<title>Node2&#45;&gt;Node4</title>
<g id="a_edge3_Node000002_Node000004"><a xlink:title=" ">
<path fill="none" stroke="#63b8ff" d="M63.36,-111.62C62.4,-94.01 60.31,-55.59 59,-31.65"/>
<polygon fill="#63b8ff" stroke="#63b8ff" points="62.51,-31.66 58.47,-21.87 55.52,-32.04 62.51,-31.66"/>
</a>
</g>
</g>
<!-- Node5 -->
<g id="Node000005" class="node">
<title>Node5</title>
<g id="a_Node000005"><a xlink:href="_sprite_8h.html" target="_top" xlink:title=" ">
<polygon fill="white" stroke="#666666" points="309.62,-76 184.12,-76 184.12,-56 309.62,-56 309.62,-76"/>
<text text-anchor="middle" x="246.88" y="-62.5" font-family="Helvetica,sans-Serif" font-size="10.00">TramposoLibrary/Sprite.h</text>
</a>
</g>
</g>
<!-- Node2&#45;&gt;Node5 -->
<g id="edge4_Node000002_Node000005" class="edge">
<title>Node2&#45;&gt;Node5</title>
<g id="a_edge4_Node000002_Node000005"><a xlink:title=" ">
<path fill="none" stroke="#63b8ff" d="M95.75,-111.59C125.74,-102.74 170.88,-89.43 204.01,-79.65"/>
<polygon fill="#63b8ff" stroke="#63b8ff" points="204.7,-83.09 213.3,-76.91 202.72,-76.38 204.7,-83.09"/>
</a>
</g>
</g>
<!-- Node5&#45;&gt;Node3 -->
<g id="edge7_Node000005_Node000003" class="edge">
<title>Node5&#45;&gt;Node3</title>
<g id="a_edge7_Node000005_Node000003"><a xlink:title=" ">
<path fill="none" stroke="#63b8ff" d="M225.28,-55.59C205.92,-47.17 177.27,-34.69 155.19,-25.07"/>
<polygon fill="#63b8ff" stroke="#63b8ff" points="156.6,-21.87 146.03,-21.08 153.8,-28.29 156.6,-21.87"/>
</a>
</g>
</g>
<!-- Node5&#45;&gt;Node4 -->
<g id="edge8_Node000005_Node000004" class="edge">
<title>Node5&#45;&gt;Node4</title>
<g id="a_edge8_Node000005_Node000004"><a xlink:title=" ">
<path fill="none" stroke="#63b8ff" d="M213.02,-55.58C183.07,-47.22 137.9,-34.51 90.58,-20.76"/>
<polygon fill="#63b8ff" stroke="#63b8ff" points="91.85,-17.49 81.27,-18.05 89.89,-24.21 91.85,-17.49"/>
</a>
</g>
</g>
<!-- Node6 -->
<g id="Node000006" class="node">
<title>Node6</title>
<g id="a_Node000006"><a xlink:title=" ">
<polygon fill="#e0e0e0" stroke="#999999" points="436.75,-20 393,-20 393,0 436.75,0 436.75,-20"/>
<text text-anchor="middle" x="414.88" y="-6.5" font-family="Helvetica,sans-Serif" font-size="10.00">SDL.h</text>
</a>
</g>
</g>
<!-- Node5&#45;&gt;Node6 -->
<g id="edge5_Node000005_Node000006" class="edge">
<title>Node5&#45;&gt;Node6</title>
<g id="a_edge5_Node000005_Node000006"><a xlink:title=" ">
<path fill="none" stroke="#63b8ff" d="M276.14,-55.59C305.69,-46.09 351.26,-31.45 382.04,-21.56"/>
<polygon fill="#63b8ff" stroke="#63b8ff" points="382.76,-25 391.21,-18.61 380.61,-18.34 382.76,-25"/>
</a>
</g>
</g>
<!-- Node7 -->
<g id="Node000007" class="node">
<title>Node7</title>
<g id="a_Node000007"><a xlink:title=" ">
<polygon fill="#e0e0e0" stroke="#999999" points="374.88,-20 334.88,-20 334.88,0 374.88,0 374.88,-20"/>
<text text-anchor="middle" x="354.88" y="-6.5" font-family="Helvetica,sans-Serif" font-size="10.00">string</text>
</a>
</g>
</g>
<!-- Node5&#45;&gt;Node7 -->
<g id="edge6_Node000005_Node000007" class="edge">
<title>Node5&#45;&gt;Node7</title>
<g id="a_edge6_Node000005_Node000007"><a xlink:title=" ">
<path fill="none" stroke="#63b8ff" d="M265.69,-55.59C282.23,-47.32 306.59,-35.14 325.67,-25.6"/>
<polygon fill="#63b8ff" stroke="#63b8ff" points="327.18,-28.76 334.56,-21.16 324.05,-22.5 327.18,-28.76"/>
</a>
</g>
</g>
<!-- Node8 -->
<g id="Node000008" class="node">
<title>Node8</title>
<g id="a_Node000008"><a xlink:href="_component_8h.html" target="_top" xlink:title=" ">
<polygon fill="white" stroke="#666666" points="317,-20 166.75,-20 166.75,0 317,0 317,-20"/>
<text text-anchor="middle" x="241.88" y="-6.5" font-family="Helvetica,sans-Serif" font-size="10.00">TramposoLibrary/Component.h</text>
</a>
</g>
</g>
<!-- Node5&#45;&gt;Node8 -->
<g id="edge9_Node000005_Node000008" class="edge">
<title>Node5&#45;&gt;Node8</title>
<g id="a_edge9_Node000005_Node000008"><a xlink:title=" ">
<path fill="none" stroke="#63b8ff" d="M246,-55.59C245.39,-49.01 244.56,-39.96 243.79,-31.73"/>
<polygon fill="#63b8ff" stroke="#63b8ff" points="247.28,-31.44 242.88,-21.81 240.31,-32.09 247.28,-31.44"/>
</a>
</g>
</g>
<!-- Node9&#45;&gt;Node2 -->
<g id="edge15_Node000009_Node000002" class="edge">
<title>Node9&#45;&gt;Node2</title>
<g id="a_edge15_Node000009_Node000002"><a xlink:title=" ">
<path fill="none" stroke="#63b8ff" d="M167.93,-167.59C148.17,-159.13 118.88,-146.58 96.41,-136.94"/>
<polygon fill="#63b8ff" stroke="#63b8ff" points="97.96,-133.8 87.38,-133.08 95.2,-140.23 97.96,-133.8"/>
</a>
</g>
</g>
<!-- Node9&#45;&gt;Node3 -->
<g id="edge13_Node000009_Node000003" class="edge">
<title>Node9&#45;&gt;Node3</title>
<g id="a_edge13_Node000009_Node000003"><a xlink:title=" ">
<path fill="none" stroke="#63b8ff" d="M186.08,-167.6C175.49,-141.35 145.41,-66.84 130.9,-30.89"/>
<polygon fill="#63b8ff" stroke="#63b8ff" points="134.18,-29.66 127.19,-21.7 127.69,-32.28 134.18,-29.66"/>
</a>
</g>
</g>
<!-- Node9&#45;&gt;Node6 -->
<g id="edge11_Node000009_Node000006" class="edge">
<title>Node9&#45;&gt;Node6</title>
<g id="a_edge11_Node000009_Node000006"><a xlink:title=" ">
<path fill="none" stroke="#63b8ff" d="M222.15,-167.61C244.82,-160.1 275.2,-148.16 298.88,-132 341.73,-102.74 381.17,-55.53 401.16,-29.58"/>
<polygon fill="#63b8ff" stroke="#63b8ff" points="403.9,-31.75 407.14,-21.66 398.31,-27.53 403.9,-31.75"/>
</a>
</g>
</g>
<!-- Node9&#45;&gt;Node7 -->
<g id="edge12_Node000009_Node000007" class="edge">
<title>Node9&#45;&gt;Node7</title>
<g id="a_edge12_Node000009_Node000007"><a xlink:title=" ">
<path fill="none" stroke="#63b8ff" d="M213.85,-167.55C231.83,-159.73 256.42,-147.41 274.88,-132 309.05,-103.45 334.19,-56.61 346.46,-30.37"/>
<polygon fill="#63b8ff" stroke="#63b8ff" points="349.5,-32.13 350.43,-21.58 343.12,-29.25 349.5,-32.13"/>
</a>
</g>
</g>
<!-- Node10 -->
<g id="Node000010" class="node">
<title>Node10</title>
<g id="a_Node000010"><a xlink:title=" ">
<polygon fill="#e0e0e0" stroke="#999999" points="266.25,-132 183.5,-132 183.5,-112 266.25,-112 266.25,-132"/>
<text text-anchor="middle" x="224.88" y="-118.5" font-family="Helvetica,sans-Serif" font-size="10.00">unordered_map</text>
</a>
</g>
</g>
<!-- Node9&#45;&gt;Node10 -->
<g id="edge14_Node000009_Node000010" class="edge">
<title>Node9&#45;&gt;Node10</title>
<g id="a_edge14_Node000009_Node000010"><a xlink:title=" ">
<path fill="none" stroke="#63b8ff" d="M195.97,-167.59C200.59,-160.47 207.08,-150.45 212.74,-141.72"/>
<polygon fill="#63b8ff" stroke="#63b8ff" points="215.52,-143.86 218.03,-133.57 209.65,-140.06 215.52,-143.86"/>
</a>
</g>
</g>
</g>
</svg>
</svg>

<style type='text/css'>
<![CDATA[
[data-mouse-over-selected='false'] { opacity: 0.7; }
[data-mouse-over-selected='true']  { opacity: 1.0; }
]]>
</style>
<script type="application/ecmascript"><![CDATA[
document.addEventListener('DOMContentLoaded', (event) => {
  highlightEdges();
  highlightAdjacentNodes();
});
]]></script>
</svg>
