<?xml version="1.0" encoding="UTF-8" standalone="no"?>
<!DOCTYPE svg PUBLIC "-//W3C//DTD SVG 1.1//EN"
 "http://www.w3.org/Graphics/SVG/1.1/DTD/svg11.dtd">
<!-- Generated by graphviz version 12.1.0 (20240811.2233)
 -->
<!-- Title: include/TramposoLibrary/Scene.h Pages: 1 -->
<svg width="408pt" height="152pt"
 viewBox="0.00 0.00 407.75 152.00" xmlns="http://www.w3.org/2000/svg" xmlns:xlink="http://www.w3.org/1999/xlink">
<g id="graph0" class="graph" transform="scale(1 1) rotate(0) translate(4 148)">
<title>include/TramposoLibrary/Scene.h</title>
<!-- Node1 -->
<g id="Node000001" class="node">
<title>Node1</title>
<g id="a_Node000001"><a xlink:title=" ">
<polygon fill="#999999" stroke="#666666" points="124.88,-144 2.38,-144 2.38,-112 124.88,-112 124.88,-144"/>
<text text-anchor="start" x="10.38" y="-130.5" font-family="Helvetica,sans-Serif" font-size="10.00">include/TramposoLibrary</text>
<text text-anchor="middle" x="63.62" y="-118.5" font-family="Helvetica,sans-Serif" font-size="10.00">/Scene.h</text>
</a>
</g>
</g>
<!-- Node2 -->
<g id="Node000002" class="node">
<title>Node2</title>
<g id="a_Node000002"><a xlink:title=" ">
<polygon fill="#e0e0e0" stroke="#999999" points="51.25,-20 0,-20 0,0 51.25,0 51.25,-20"/>
<text text-anchor="middle" x="25.62" y="-6.5" font-family="Helvetica,sans-Serif" font-size="10.00">memory</text>
</a>
</g>
</g>
<!-- Node1&#45;&gt;Node2 -->
<g id="edge1_Node000001_Node000002" class="edge">
<title>Node1&#45;&gt;Node2</title>
<g id="a_edge1_Node000001_Node000002"><a xlink:title=" ">
<path fill="none" stroke="#63b8ff" d="M58.66,-111.84C51.9,-91.22 39.81,-54.29 32.28,-31.31"/>
<polygon fill="#63b8ff" stroke="#63b8ff" points="35.63,-30.29 29.19,-21.88 28.97,-32.47 35.63,-30.29"/>
</a>
</g>
</g>
<!-- Node3 -->
<g id="Node000003" class="node">
<title>Node3</title>
<g id="a_Node000003"><a xlink:title=" ">
<polygon fill="#e0e0e0" stroke="#999999" points="112.12,-20 69.12,-20 69.12,0 112.12,0 112.12,-20"/>
<text text-anchor="middle" x="90.62" y="-6.5" font-family="Helvetica,sans-Serif" font-size="10.00">vector</text>
</a>
</g>
</g>
<!-- Node1&#45;&gt;Node3 -->
<g id="edge2_Node000001_Node000003" class="edge">
<title>Node1&#45;&gt;Node3</title>
<g id="a_edge2_Node000001_Node000003"><a xlink:title=" ">
<path fill="none" stroke="#63b8ff" d="M67.15,-111.84C71.93,-91.32 80.47,-54.63 85.82,-31.62"/>
<polygon fill="#63b8ff" stroke="#63b8ff" points="89.23,-32.44 88.09,-21.91 82.41,-30.86 89.23,-32.44"/>
</a>
</g>
</g>
<!-- Node4 -->
<g id="Node000004" class="node">
<title>Node4</title>
<g id="a_Node000004"><a xlink:href="_sprite_8h.html" target="_top" xlink:title=" ">
<polygon fill="white" stroke="#666666" points="217.38,-76 91.88,-76 91.88,-56 217.38,-56 217.38,-76"/>
<text text-anchor="middle" x="154.62" y="-62.5" font-family="Helvetica,sans-Serif" font-size="10.00">TramposoLibrary/Sprite.h</text>
</a>
</g>
</g>
<!-- Node1&#45;&gt;Node4 -->
<g id="edge3_Node000001_Node000004" class="edge">
<title>Node1&#45;&gt;Node4</title>
<g id="a_edge3_Node000001_Node000004"><a xlink:title=" ">
<path fill="none" stroke="#63b8ff" d="M87.06,-111.55C100.49,-102.69 117.3,-91.61 130.79,-82.71"/>
<polygon fill="#63b8ff" stroke="#63b8ff" points="132.67,-85.67 139.09,-77.24 128.82,-79.82 132.67,-85.67"/>
</a>
</g>
</g>
<!-- Node4&#45;&gt;Node2 -->
<g id="edge6_Node000004_Node000002" class="edge">
<title>Node4&#45;&gt;Node2</title>
<g id="a_edge6_Node000004_Node000002"><a xlink:title=" ">
<path fill="none" stroke="#63b8ff" d="M132.15,-55.59C111.84,-47.09 81.67,-34.46 58.62,-24.81"/>
<polygon fill="#63b8ff" stroke="#63b8ff" points="60.24,-21.7 49.67,-21.06 57.54,-28.15 60.24,-21.7"/>
</a>
</g>
</g>
<!-- Node4&#45;&gt;Node3 -->
<g id="edge7_Node000004_Node000003" class="edge">
<title>Node4&#45;&gt;Node3</title>
<g id="a_edge7_Node000004_Node000003"><a xlink:title=" ">
<path fill="none" stroke="#63b8ff" d="M143.48,-55.59C134.3,-47.85 121.07,-36.69 110.14,-27.47"/>
<polygon fill="#63b8ff" stroke="#63b8ff" points="112.7,-25.05 102.8,-21.27 108.19,-30.4 112.7,-25.05"/>
</a>
</g>
</g>
<!-- Node5 -->
<g id="Node000005" class="node">
<title>Node5</title>
<g id="a_Node000005"><a xlink:title=" ">
<polygon fill="#e0e0e0" stroke="#999999" points="173.5,-20 129.75,-20 129.75,0 173.5,0 173.5,-20"/>
<text text-anchor="middle" x="151.62" y="-6.5" font-family="Helvetica,sans-Serif" font-size="10.00">SDL.h</text>
</a>
</g>
</g>
<!-- Node4&#45;&gt;Node5 -->
<g id="edge4_Node000004_Node000005" class="edge">
<title>Node4&#45;&gt;Node5</title>
<g id="a_edge4_Node000004_Node000005"><a xlink:title=" ">
<path fill="none" stroke="#63b8ff" d="M154.1,-55.59C153.74,-49.01 153.23,-39.96 152.78,-31.73"/>
<polygon fill="#63b8ff" stroke="#63b8ff" points="156.27,-31.6 152.23,-21.81 149.29,-31.99 156.27,-31.6"/>
</a>
</g>
</g>
<!-- Node6 -->
<g id="Node000006" class="node">
<title>Node6</title>
<g id="a_Node000006"><a xlink:title=" ">
<polygon fill="#e0e0e0" stroke="#999999" points="231.62,-20 191.62,-20 191.62,0 231.62,0 231.62,-20"/>
<text text-anchor="middle" x="211.62" y="-6.5" font-family="Helvetica,sans-Serif" font-size="10.00">string</text>
</a>
</g>
</g>
<!-- Node4&#45;&gt;Node6 -->
<g id="edge5_Node000004_Node000006" class="edge">
<title>Node4&#45;&gt;Node6</title>
<g id="a_edge5_Node000004_Node000006"><a xlink:title=" ">
<path fill="none" stroke="#63b8ff" d="M164.55,-55.59C172.56,-48.01 184.04,-37.13 193.66,-28.02"/>
<polygon fill="#63b8ff" stroke="#63b8ff" points="195.86,-30.76 200.71,-21.34 191.04,-25.68 195.86,-30.76"/>
</a>
</g>
</g>
<!-- Node7 -->
<g id="Node000007" class="node">
<title>Node7</title>
<g id="a_Node000007"><a xlink:href="_component_8h.html" target="_top" xlink:title=" ">
<polygon fill="white" stroke="#666666" points="399.75,-20 249.5,-20 249.5,0 399.75,0 399.75,-20"/>
<text text-anchor="middle" x="324.62" y="-6.5" font-family="Helvetica,sans-Serif" font-size="10.00">TramposoLibrary/Component.h</text>
</a>
</g>
</g>
<!-- Node4&#45;&gt;Node7 -->
<g id="edge8_Node000004_Node000007" class="edge">
<title>Node4&#45;&gt;Node7</title>
<g id="a_edge8_Node000004_Node000007"><a xlink:title=" ">
<path fill="none" stroke="#63b8ff" d="M184.24,-55.59C211.86,-46.82 253.3,-33.66 284,-23.9"/>
<polygon fill="#63b8ff" stroke="#63b8ff" points="284.87,-27.3 293.34,-20.94 282.75,-20.63 284.87,-27.3"/>
</a>
</g>
</g>
</g>
</svg>
