<?xml version="1.0" encoding="UTF-8" standalone="no"?>
<!DOCTYPE svg PUBLIC "-//W3C//DTD SVG 1.1//EN"
 "http://www.w3.org/Graphics/SVG/1.1/DTD/svg11.dtd">
<!-- Generated by graphviz version 12.1.0 (20240811.2233)
 -->
<!-- Title: src/Sprite.cpp Pages: 1 -->
<svg width="409pt" height="140pt"
 viewBox="0.00 0.00 409.00 140.00" xmlns="http://www.w3.org/2000/svg" xmlns:xlink="http://www.w3.org/1999/xlink">

<svg id="main" version="1.1" xmlns="http://www.w3.org/2000/svg" xmlns:xlink="http://www.w3.org/1999/xlink" xml:space="preserve">

<style type="text/css"><![CDATA[
.node, .edge {opacity: 0.7;}
.node.selected, .edge.selected {opacity: 1;}
.edge:hover path { stroke: red; }
.edge:hover polygon { stroke: red; fill: red; }
]]></style>
<script type="application/ecmascript" xlink:href="svg.min.js"/>
<svg id="graph" class="graph">
<g id="graph0" class="graph" transform="scale(1 1) rotate(0) translate(4 136)">
<title>src/Sprite.cpp</title>
<!-- Node1 -->
<g id="Node000001" class="node">
<title>Node1</title>
<g id="a_Node000001"><a xlink:title=" ">
<polygon fill="#999999" stroke="#666666" points="302.25,-132 225.5,-132 225.5,-112 302.25,-112 302.25,-132"/>
<text text-anchor="middle" x="263.88" y="-118.5" font-family="Helvetica,sans-Serif" font-size="10.00">src/Sprite.cpp</text>
</a>
</g>
</g>
<!-- Node2 -->
<g id="Node000002" class="node">
<title>Node2</title>
<g id="a_Node000002"><a xlink:href="_sprite_8h.html" target="_top" xlink:title=" ">
<polygon fill="white" stroke="#666666" points="208.62,-76 83.12,-76 83.12,-56 208.62,-56 208.62,-76"/>
<text text-anchor="middle" x="145.88" y="-62.5" font-family="Helvetica,sans-Serif" font-size="10.00">TramposoLibrary/Sprite.h</text>
</a>
</g>
</g>
<!-- Node1&#45;&gt;Node2 -->
<g id="edge1_Node000001_Node000002" class="edge">
<title>Node1&#45;&gt;Node2</title>
<g id="a_edge1_Node000001_Node000002"><a xlink:title=" ">
<path fill="none" stroke="#63b8ff" d="M243.32,-111.59C224.99,-103.21 197.89,-90.8 176.92,-81.21"/>
<polygon fill="#63b8ff" stroke="#63b8ff" points="178.52,-78.09 167.97,-77.11 175.6,-84.45 178.52,-78.09"/>
</a>
</g>
</g>
<!-- Node8 -->
<g id="Node000008" class="node">
<title>Node8</title>
<g id="a_Node000008"><a xlink:title=" ">
<polygon fill="#e0e0e0" stroke="#999999" points="301.5,-76 226.25,-76 226.25,-56 301.5,-56 301.5,-76"/>
<text text-anchor="middle" x="263.88" y="-62.5" font-family="Helvetica,sans-Serif" font-size="10.00">SDL_image.h</text>
</a>
</g>
</g>
<!-- Node1&#45;&gt;Node8 -->
<g id="edge7_Node000001_Node000008" class="edge">
<title>Node1&#45;&gt;Node8</title>
<g id="a_edge7_Node000001_Node000008"><a xlink:title=" ">
<path fill="none" stroke="#63b8ff" d="M263.88,-111.59C263.88,-105.01 263.88,-95.96 263.88,-87.73"/>
<polygon fill="#63b8ff" stroke="#63b8ff" points="267.38,-87.81 263.88,-77.81 260.38,-87.81 267.38,-87.81"/>
</a>
</g>
</g>
<!-- Node9 -->
<g id="Node000009" class="node">
<title>Node9</title>
<g id="a_Node000009"><a xlink:title=" ">
<polygon fill="#e0e0e0" stroke="#999999" points="378.25,-76 319.5,-76 319.5,-56 378.25,-56 378.25,-76"/>
<text text-anchor="middle" x="348.88" y="-62.5" font-family="Helvetica,sans-Serif" font-size="10.00">stdexcept</text>
</a>
</g>
</g>
<!-- Node1&#45;&gt;Node9 -->
<g id="edge8_Node000001_Node000009" class="edge">
<title>Node1&#45;&gt;Node9</title>
<g id="a_edge8_Node000001_Node000009"><a xlink:title=" ">
<path fill="none" stroke="#63b8ff" d="M278.68,-111.59C291.28,-103.59 309.63,-91.93 324.41,-82.54"/>
<polygon fill="#63b8ff" stroke="#63b8ff" points="326.11,-85.61 332.68,-77.29 322.36,-79.7 326.11,-85.61"/>
</a>
</g>
</g>
<!-- Node3 -->
<g id="Node000003" class="node">
<title>Node3</title>
<g id="a_Node000003"><a xlink:title=" ">
<polygon fill="#e0e0e0" stroke="#999999" points="43.75,-20 0,-20 0,0 43.75,0 43.75,-20"/>
<text text-anchor="middle" x="21.88" y="-6.5" font-family="Helvetica,sans-Serif" font-size="10.00">SDL.h</text>
</a>
</g>
</g>
<!-- Node2&#45;&gt;Node3 -->
<g id="edge2_Node000002_Node000003" class="edge">
<title>Node2&#45;&gt;Node3</title>
<g id="a_edge2_Node000002_Node000003"><a xlink:title=" ">
<path fill="none" stroke="#63b8ff" d="M124.28,-55.59C104.92,-47.17 76.27,-34.69 54.19,-25.07"/>
<polygon fill="#63b8ff" stroke="#63b8ff" points="55.6,-21.87 45.03,-21.08 52.8,-28.29 55.6,-21.87"/>
</a>
</g>
</g>
<!-- Node4 -->
<g id="Node000004" class="node">
<title>Node4</title>
<g id="a_Node000004"><a xlink:title=" ">
<polygon fill="#e0e0e0" stroke="#999999" points="101.88,-20 61.88,-20 61.88,0 101.88,0 101.88,-20"/>
<text text-anchor="middle" x="81.88" y="-6.5" font-family="Helvetica,sans-Serif" font-size="10.00">string</text>
</a>
</g>
</g>
<!-- Node2&#45;&gt;Node4 -->
<g id="edge3_Node000002_Node000004" class="edge">
<title>Node2&#45;&gt;Node4</title>
<g id="a_edge3_Node000002_Node000004"><a xlink:title=" ">
<path fill="none" stroke="#63b8ff" d="M134.73,-55.59C125.55,-47.85 112.32,-36.69 101.39,-27.47"/>
<polygon fill="#63b8ff" stroke="#63b8ff" points="103.95,-25.05 94.05,-21.27 99.44,-30.4 103.95,-25.05"/>
</a>
</g>
</g>
<!-- Node5 -->
<g id="Node000005" class="node">
<title>Node5</title>
<g id="a_Node000005"><a xlink:title=" ">
<polygon fill="#e0e0e0" stroke="#999999" points="171.5,-20 120.25,-20 120.25,0 171.5,0 171.5,-20"/>
<text text-anchor="middle" x="145.88" y="-6.5" font-family="Helvetica,sans-Serif" font-size="10.00">memory</text>
</a>
</g>
</g>
<!-- Node2&#45;&gt;Node5 -->
<g id="edge4_Node000002_Node000005" class="edge">
<title>Node2&#45;&gt;Node5</title>
<g id="a_edge4_Node000002_Node000005"><a xlink:title=" ">
<path fill="none" stroke="#63b8ff" d="M145.88,-55.59C145.88,-49.01 145.88,-39.96 145.88,-31.73"/>
<polygon fill="#63b8ff" stroke="#63b8ff" points="149.38,-31.81 145.88,-21.81 142.38,-31.81 149.38,-31.81"/>
</a>
</g>
</g>
<!-- Node6 -->
<g id="Node000006" class="node">
<title>Node6</title>
<g id="a_Node000006"><a xlink:title=" ">
<polygon fill="#e0e0e0" stroke="#999999" points="232.38,-20 189.38,-20 189.38,0 232.38,0 232.38,-20"/>
<text text-anchor="middle" x="210.88" y="-6.5" font-family="Helvetica,sans-Serif" font-size="10.00">vector</text>
</a>
</g>
</g>
<!-- Node2&#45;&gt;Node6 -->
<g id="edge5_Node000002_Node000006" class="edge">
<title>Node2&#45;&gt;Node6</title>
<g id="a_edge5_Node000002_Node000006"><a xlink:title=" ">
<path fill="none" stroke="#63b8ff" d="M157.2,-55.59C166.52,-47.85 179.95,-36.69 191.05,-27.47"/>
<polygon fill="#63b8ff" stroke="#63b8ff" points="193.06,-30.35 198.52,-21.27 188.59,-24.96 193.06,-30.35"/>
</a>
</g>
</g>
<!-- Node7 -->
<g id="Node000007" class="node">
<title>Node7</title>
<g id="a_Node000007"><a xlink:href="_component_8h.html" target="_top" xlink:title=" ">
<polygon fill="white" stroke="#666666" points="401,-20 250.75,-20 250.75,0 401,0 401,-20"/>
<text text-anchor="middle" x="325.88" y="-6.5" font-family="Helvetica,sans-Serif" font-size="10.00">TramposoLibrary/Component.h</text>
</a>
</g>
</g>
<!-- Node2&#45;&gt;Node7 -->
<g id="edge6_Node000002_Node000007" class="edge">
<title>Node2&#45;&gt;Node7</title>
<g id="a_edge6_Node000002_Node000007"><a xlink:title=" ">
<path fill="none" stroke="#63b8ff" d="M177.23,-55.59C206.6,-46.78 250.74,-33.54 283.29,-23.78"/>
<polygon fill="#63b8ff" stroke="#63b8ff" points="284.25,-27.14 292.83,-20.91 282.24,-20.44 284.25,-27.14"/>
</a>
</g>
</g>
</g>
</svg>
</svg>

<style type='text/css'>
<![CDATA[
[data-mouse-over-selected='false'] { opacity: 0.7; }
[data-mouse-over-selected='true']  { opacity: 1.0; }
]]>
</style>
<script type="application/ecmascript"><![CDATA[
document.addEventListener('DOMContentLoaded', (event) => {
  highlightEdges();
  highlightAdjacentNodes();
});
]]></script>
</svg>
