<?xml version="1.0" encoding="UTF-8" standalone="no"?>
<!DOCTYPE svg PUBLIC "-//W3C//DTD SVG 1.1//EN"
 "http://www.w3.org/Graphics/SVG/1.1/DTD/svg11.dtd">
<!-- Generated by graphviz version 12.1.0 (20240811.2233)
 -->
<!-- Title: include/TramposoLibrary/Sprite.h Pages: 1 -->
<svg width="409pt" height="96pt"
 viewBox="0.00 0.00 409.00 96.00" xmlns="http://www.w3.org/2000/svg" xmlns:xlink="http://www.w3.org/1999/xlink">

<svg id="main" version="1.1" xmlns="http://www.w3.org/2000/svg" xmlns:xlink="http://www.w3.org/1999/xlink" xml:space="preserve">

<style type="text/css"><![CDATA[
.node, .edge {opacity: 0.7;}
.node.selected, .edge.selected {opacity: 1;}
.edge:hover path { stroke: red; }
.edge:hover polygon { stroke: red; fill: red; }
]]></style>
<script type="application/ecmascript" xlink:href="svg.min.js"/>
<svg id="graph" class="graph">
<g id="graph0" class="graph" transform="scale(1 1) rotate(0) translate(4 92)">
<title>include/TramposoLibrary/Sprite.h</title>
<!-- Node1 -->
<g id="Node000001" class="node">
<title>Node1</title>
<g id="a_Node000001"><a xlink:title=" ">
<polygon fill="#999999" stroke="#666666" points="207.12,-88 84.62,-88 84.62,-56 207.12,-56 207.12,-88"/>
<text text-anchor="start" x="92.62" y="-74.5" font-family="Helvetica,sans-Serif" font-size="10.00">include/TramposoLibrary</text>
<text text-anchor="middle" x="145.88" y="-62.5" font-family="Helvetica,sans-Serif" font-size="10.00">/Sprite.h</text>
</a>
</g>
</g>
<!-- Node2 -->
<g id="Node000002" class="node">
<title>Node2</title>
<g id="a_Node000002"><a xlink:title=" ">
<polygon fill="#e0e0e0" stroke="#999999" points="43.75,-20 0,-20 0,0 43.75,0 43.75,-20"/>
<text text-anchor="middle" x="21.88" y="-6.5" font-family="Helvetica,sans-Serif" font-size="10.00">SDL.h</text>
</a>
</g>
</g>
<!-- Node1&#45;&gt;Node2 -->
<g id="edge1_Node000001_Node000002" class="edge">
<title>Node1&#45;&gt;Node2</title>
<g id="a_edge1_Node000001_Node000002"><a xlink:title=" ">
<path fill="none" stroke="#63b8ff" d="M113.94,-55.55C94.75,-46.26 70.48,-34.52 51.68,-25.42"/>
<polygon fill="#63b8ff" stroke="#63b8ff" points="53.21,-22.27 42.68,-21.07 50.16,-28.57 53.21,-22.27"/>
</a>
</g>
</g>
<!-- Node3 -->
<g id="Node000003" class="node">
<title>Node3</title>
<g id="a_Node000003"><a xlink:title=" ">
<polygon fill="#e0e0e0" stroke="#999999" points="101.88,-20 61.88,-20 61.88,0 101.88,0 101.88,-20"/>
<text text-anchor="middle" x="81.88" y="-6.5" font-family="Helvetica,sans-Serif" font-size="10.00">string</text>
</a>
</g>
</g>
<!-- Node1&#45;&gt;Node3 -->
<g id="edge2_Node000001_Node000003" class="edge">
<title>Node1&#45;&gt;Node3</title>
<g id="a_edge2_Node000001_Node000003"><a xlink:title=" ">
<path fill="none" stroke="#63b8ff" d="M129.39,-55.55C120.41,-47.13 109.28,-36.69 100.05,-28.04"/>
<polygon fill="#63b8ff" stroke="#63b8ff" points="102.7,-25.73 93.01,-21.44 97.92,-30.84 102.7,-25.73"/>
</a>
</g>
</g>
<!-- Node4 -->
<g id="Node000004" class="node">
<title>Node4</title>
<g id="a_Node000004"><a xlink:title=" ">
<polygon fill="#e0e0e0" stroke="#999999" points="171.5,-20 120.25,-20 120.25,0 171.5,0 171.5,-20"/>
<text text-anchor="middle" x="145.88" y="-6.5" font-family="Helvetica,sans-Serif" font-size="10.00">memory</text>
</a>
</g>
</g>
<!-- Node1&#45;&gt;Node4 -->
<g id="edge3_Node000001_Node000004" class="edge">
<title>Node1&#45;&gt;Node4</title>
<g id="a_edge3_Node000001_Node000004"><a xlink:title=" ">
<path fill="none" stroke="#63b8ff" d="M145.88,-55.55C145.88,-48.34 145.88,-39.66 145.88,-31.88"/>
<polygon fill="#63b8ff" stroke="#63b8ff" points="149.38,-31.92 145.88,-21.92 142.38,-31.92 149.38,-31.92"/>
</a>
</g>
</g>
<!-- Node5 -->
<g id="Node000005" class="node">
<title>Node5</title>
<g id="a_Node000005"><a xlink:title=" ">
<polygon fill="#e0e0e0" stroke="#999999" points="232.38,-20 189.38,-20 189.38,0 232.38,0 232.38,-20"/>
<text text-anchor="middle" x="210.88" y="-6.5" font-family="Helvetica,sans-Serif" font-size="10.00">vector</text>
</a>
</g>
</g>
<!-- Node1&#45;&gt;Node5 -->
<g id="edge4_Node000001_Node000005" class="edge">
<title>Node1&#45;&gt;Node5</title>
<g id="a_edge4_Node000001_Node000005"><a xlink:title=" ">
<path fill="none" stroke="#63b8ff" d="M162.61,-55.55C171.74,-47.13 183.04,-36.69 192.42,-28.04"/>
<polygon fill="#63b8ff" stroke="#63b8ff" points="194.6,-30.79 199.57,-21.43 189.85,-25.65 194.6,-30.79"/>
</a>
</g>
</g>
<!-- Node6 -->
<g id="Node000006" class="node">
<title>Node6</title>
<g id="a_Node000006"><a xlink:href="_component_8h.html" target="_top" xlink:title=" ">
<polygon fill="white" stroke="#666666" points="401,-20 250.75,-20 250.75,0 401,0 401,-20"/>
<text text-anchor="middle" x="325.88" y="-6.5" font-family="Helvetica,sans-Serif" font-size="10.00">TramposoLibrary/Component.h</text>
</a>
</g>
</g>
<!-- Node1&#45;&gt;Node6 -->
<g id="edge5_Node000001_Node000006" class="edge">
<title>Node1&#45;&gt;Node6</title>
<g id="a_edge5_Node000001_Node000006"><a xlink:title=" ">
<path fill="none" stroke="#63b8ff" d="M192.23,-55.55C221.43,-45.81 258.73,-33.38 286.5,-24.13"/>
<polygon fill="#63b8ff" stroke="#63b8ff" points="287.57,-27.46 295.95,-20.97 285.36,-20.82 287.57,-27.46"/>
</a>
</g>
</g>
</g>
</svg>
</svg>

<style type='text/css'>
<![CDATA[
[data-mouse-over-selected='false'] { opacity: 0.7; }
[data-mouse-over-selected='true']  { opacity: 1.0; }
]]>
</style>
<script type="application/ecmascript"><![CDATA[
document.addEventListener('DOMContentLoaded', (event) => {
  highlightEdges();
  highlightAdjacentNodes();
});
]]></script>
</svg>
