<?xml version="1.0" encoding="UTF-8" standalone="no"?>
<!DOCTYPE svg PUBLIC "-//W3C//DTD SVG 1.1//EN"
 "http://www.w3.org/Graphics/SVG/1.1/DTD/svg11.dtd">
<!-- Generated by graphviz version 12.1.0 (20240811.2233)
 -->
<!-- Title: include/TramposoLibrary/Sprite.h Pages: 1 -->
<svg width="528pt" height="232pt"
 viewBox="0.00 0.00 527.88 232.00" xmlns="http://www.w3.org/2000/svg" xmlns:xlink="http://www.w3.org/1999/xlink">
<g id="graph0" class="graph" transform="scale(1 1) rotate(0) translate(4 228)">
<title>include/TramposoLibrary/Sprite.h</title>
<!-- Node1 -->
<g id="Node000001" class="node">
<title>Node1</title>
<g id="a_Node000001"><a xlink:title=" ">
<polygon fill="#999999" stroke="#666666" points="369.75,-224 247.25,-224 247.25,-192 369.75,-192 369.75,-224"/>
<text text-anchor="start" x="255.25" y="-210.5" font-family="Helvetica,sans-Serif" font-size="10.00">include/TramposoLibrary</text>
<text text-anchor="middle" x="308.5" y="-198.5" font-family="Helvetica,sans-Serif" font-size="10.00">/Sprite.h</text>
</a>
</g>
</g>
<!-- Node2 -->
<g id="Node000002" class="node">
<title>Node2</title>
<g id="a_Node000002"><a xlink:href="_scene_8h.html" target="_top" xlink:title=" ">
<polygon fill="white" stroke="#666666" points="213.75,-156 91.25,-156 91.25,-124 213.75,-124 213.75,-156"/>
<text text-anchor="start" x="99.25" y="-142.5" font-family="Helvetica,sans-Serif" font-size="10.00">include/TramposoLibrary</text>
<text text-anchor="middle" x="152.5" y="-130.5" font-family="Helvetica,sans-Serif" font-size="10.00">/Scene.h</text>
</a>
</g>
</g>
<!-- Node1&#45;&gt;Node2 -->
<g id="edge1_Node000001_Node000002" class="edge">
<title>Node1&#45;&gt;Node2</title>
<g id="a_edge1_Node000001_Node000002"><a xlink:title=" ">
<path fill="none" stroke="#63b8ff" d="M261.6,-187.16C238.38,-177.33 210.76,-165.65 189.12,-156.49"/>
<polygon fill="#63b8ff" stroke="#63b8ff" points="259.96,-190.26 270.53,-190.94 262.69,-183.82 259.96,-190.26"/>
</a>
</g>
</g>
<!-- Node4 -->
<g id="Node000004" class="node">
<title>Node4</title>
<g id="a_Node000004"><a xlink:href="_catch_game_8cpp.html" target="_top" xlink:title=" ">
<polygon fill="white" stroke="#666666" points="296.38,-20 192.62,-20 192.62,0 296.38,0 296.38,-20"/>
<text text-anchor="middle" x="244.5" y="-6.5" font-family="Helvetica,sans-Serif" font-size="10.00">src/CatchGame.cpp</text>
</a>
</g>
</g>
<!-- Node1&#45;&gt;Node4 -->
<g id="edge8_Node000001_Node000004" class="edge">
<title>Node1&#45;&gt;Node4</title>
<g id="a_edge8_Node000001_Node000004"><a xlink:title=" ">
<path fill="none" stroke="#63b8ff" d="M292.63,-182.33C287.89,-174.19 283.03,-164.92 279.5,-156 260.05,-106.88 249.38,-43.97 245.84,-20.44"/>
<polygon fill="#63b8ff" stroke="#63b8ff" points="289.48,-183.9 297.66,-190.64 295.47,-180.28 289.48,-183.9"/>
</a>
</g>
</g>
<!-- Node7 -->
<g id="Node000007" class="node">
<title>Node7</title>
<g id="a_Node000007"><a xlink:href="_physics_component_8cpp.html" target="_top" xlink:title=" ">
<polygon fill="white" stroke="#666666" points="424.88,-150 288.12,-150 288.12,-130 424.88,-130 424.88,-150"/>
<text text-anchor="middle" x="356.5" y="-136.5" font-family="Helvetica,sans-Serif" font-size="10.00">src/PhysicsComponent.cpp</text>
</a>
</g>
</g>
<!-- Node1&#45;&gt;Node7 -->
<g id="edge9_Node000001_Node000007" class="edge">
<title>Node1&#45;&gt;Node7</title>
<g id="a_edge9_Node000001_Node000007"><a xlink:title=" ">
<path fill="none" stroke="#63b8ff" d="M326.17,-182.7C334.37,-171.43 343.62,-158.71 349.72,-150.32"/>
<polygon fill="#63b8ff" stroke="#63b8ff" points="323.57,-180.32 320.52,-190.47 329.24,-184.44 323.57,-180.32"/>
</a>
</g>
</g>
<!-- Node8 -->
<g id="Node000008" class="node">
<title>Node8</title>
<g id="a_Node000008"><a xlink:href="_sprite_8cpp.html" target="_top" xlink:title=" ">
<polygon fill="white" stroke="#666666" points="519.88,-150 443.12,-150 443.12,-130 519.88,-130 519.88,-150"/>
<text text-anchor="middle" x="481.5" y="-136.5" font-family="Helvetica,sans-Serif" font-size="10.00">src/Sprite.cpp</text>
</a>
</g>
</g>
<!-- Node1&#45;&gt;Node8 -->
<g id="edge10_Node000001_Node000008" class="edge">
<title>Node1&#45;&gt;Node8</title>
<g id="a_edge10_Node000001_Node000008"><a xlink:title=" ">
<path fill="none" stroke="#63b8ff" d="M359.59,-187.51C391.61,-175.29 431.47,-160.09 456.7,-150.46"/>
<polygon fill="#63b8ff" stroke="#63b8ff" points="358.57,-184.15 350.47,-190.99 361.07,-190.69 358.57,-184.15"/>
</a>
</g>
</g>
<!-- Node3 -->
<g id="Node000003" class="node">
<title>Node3</title>
<g id="a_Node000003"><a xlink:href="_game_8h.html" target="_top" xlink:title=" ">
<polygon fill="white" stroke="#666666" points="194.75,-88 72.25,-88 72.25,-56 194.75,-56 194.75,-88"/>
<text text-anchor="start" x="80.25" y="-74.5" font-family="Helvetica,sans-Serif" font-size="10.00">include/TramposoLibrary</text>
<text text-anchor="middle" x="133.5" y="-62.5" font-family="Helvetica,sans-Serif" font-size="10.00">/Game.h</text>
</a>
</g>
</g>
<!-- Node2&#45;&gt;Node3 -->
<g id="edge2_Node000002_Node000003" class="edge">
<title>Node2&#45;&gt;Node3</title>
<g id="a_edge2_Node000002_Node000003"><a xlink:title=" ">
<path fill="none" stroke="#63b8ff" d="M144.98,-112.89C142.57,-104.52 139.99,-95.54 137.88,-88.22"/>
<polygon fill="#63b8ff" stroke="#63b8ff" points="141.54,-113.6 147.67,-122.24 148.27,-111.66 141.54,-113.6"/>
</a>
</g>
</g>
<!-- Node2&#45;&gt;Node4 -->
<g id="edge6_Node000002_Node000004" class="edge">
<title>Node2&#45;&gt;Node4</title>
<g id="a_edge6_Node000002_Node000004"><a xlink:title=" ">
<path fill="none" stroke="#63b8ff" d="M178.59,-115.84C187.11,-107.55 196.24,-97.81 203.5,-88 220.26,-65.36 234.31,-34.97 240.74,-20.04"/>
<polygon fill="#63b8ff" stroke="#63b8ff" points="176.33,-113.16 171.46,-122.57 181.14,-118.25 176.33,-113.16"/>
</a>
</g>
</g>
<!-- Node6 -->
<g id="Node000006" class="node">
<title>Node6</title>
<g id="a_Node000006"><a xlink:href="_scene_8cpp.html" target="_top" xlink:title=" ">
<polygon fill="white" stroke="#666666" points="79,-20 0,-20 0,0 79,0 79,-20"/>
<text text-anchor="middle" x="39.5" y="-6.5" font-family="Helvetica,sans-Serif" font-size="10.00">src/Scene.cpp</text>
</a>
</g>
</g>
<!-- Node2&#45;&gt;Node6 -->
<g id="edge7_Node000002_Node000006" class="edge">
<title>Node2&#45;&gt;Node6</title>
<g id="a_edge7_Node000002_Node000006"><a xlink:title=" ">
<path fill="none" stroke="#63b8ff" d="M101.48,-118.28C87.55,-110.54 73.55,-100.52 63.5,-88 47.11,-67.58 41.86,-35.91 40.22,-20.32"/>
<polygon fill="#63b8ff" stroke="#63b8ff" points="99.72,-121.31 110.21,-122.81 102.95,-115.1 99.72,-121.31"/>
</a>
</g>
</g>
<!-- Node3&#45;&gt;Node4 -->
<g id="edge3_Node000003_Node000004" class="edge">
<title>Node3&#45;&gt;Node4</title>
<g id="a_edge3_Node000003_Node000004"><a xlink:title=" ">
<path fill="none" stroke="#63b8ff" d="M172.13,-50.12C190.86,-39.99 212.41,-28.34 227.1,-20.41"/>
<polygon fill="#63b8ff" stroke="#63b8ff" points="170.55,-46.99 163.42,-54.83 173.88,-53.15 170.55,-46.99"/>
</a>
</g>
</g>
<!-- Node5 -->
<g id="Node000005" class="node">
<title>Node5</title>
<g id="a_Node000005"><a xlink:href="_game_8cpp.html" target="_top" xlink:title=" ">
<polygon fill="white" stroke="#666666" points="174.25,-20 96.75,-20 96.75,0 174.25,0 174.25,-20"/>
<text text-anchor="middle" x="135.5" y="-6.5" font-family="Helvetica,sans-Serif" font-size="10.00">src/Game.cpp</text>
</a>
</g>
</g>
<!-- Node3&#45;&gt;Node5 -->
<g id="edge4_Node000003_Node000005" class="edge">
<title>Node3&#45;&gt;Node5</title>
<g id="a_edge4_Node000003_Node000005"><a xlink:title=" ">
<path fill="none" stroke="#63b8ff" d="M134.4,-44.08C134.68,-35.6 134.97,-26.8 135.19,-20.41"/>
<polygon fill="#63b8ff" stroke="#63b8ff" points="130.9,-43.92 134.07,-54.04 137.9,-44.16 130.9,-43.92"/>
</a>
</g>
</g>
<!-- Node3&#45;&gt;Node6 -->
<g id="edge5_Node000003_Node000006" class="edge">
<title>Node3&#45;&gt;Node6</title>
<g id="a_edge5_Node000003_Node000006"><a xlink:title=" ">
<path fill="none" stroke="#63b8ff" d="M99.9,-49.55C84.25,-39.56 66.44,-28.2 54.24,-20.41"/>
<polygon fill="#63b8ff" stroke="#63b8ff" points="97.7,-52.3 108.02,-54.73 101.47,-46.4 97.7,-52.3"/>
</a>
</g>
</g>
</g>
</svg>
