<?xml version="1.0" encoding="UTF-8" standalone="no"?>
<!DOCTYPE svg PUBLIC "-//W3C//DTD SVG 1.1//EN"
 "http://www.w3.org/Graphics/SVG/1.1/DTD/svg11.dtd">
<!-- Generated by graphviz version 12.1.0 (20240811.2233)
 -->
<!-- Title: TramposoLibrary::AudioManager Pages: 1 -->
<!--zoomable 536 -->

<svg id="main" version="1.1" xmlns="http://www.w3.org/2000/svg" xmlns:xlink="http://www.w3.org/1999/xlink" xml:space="preserve" onload="init(evt)">

<style type="text/css"><![CDATA[
.node, .edge {opacity: 0.7;}
.node.selected, .edge.selected {opacity: 1;}
.edge:hover path { stroke: red; }
.edge:hover polygon { stroke: red; fill: red; }
]]></style>

<defs>
  <circle id="rim" cx="0" cy="0" r="7"/>
  <circle id="rim2" cx="0" cy="0" r="3.5"/>
  <g id="zoomPlus">
    <use xlink:href="#rim" fill="#404040"><set attributeName="fill" to="#808080" begin="zoomplus.mouseover" end="zoomplus.mouseout"/></use>
    <path d="M-4,0h8M0,-4v8" fill="none" stroke="white" stroke-width="1.5" pointer-events="none"/>
  </g>
  <g id="zoomMin">
    <use xlink:href="#rim" fill="#404040"><set attributeName="fill" to="#808080" begin="zoomminus.mouseover" end="zoomminus.mouseout"/></use>
    <path d="M-4,0h8" fill="none" stroke="white" stroke-width="1.5" pointer-events="none"/>
  </g>
  <g id="arrowUp" transform="translate(30 24)">
    <use xlink:href="#rim"/>
    <path pointer-events="none" fill="none" stroke="white" stroke-width="1.5" d="M0,-3.0v7 M-2.5,-0.5L0,-3.0L2.5,-0.5"/>
  </g>
  <g id="arrowRight" transform="rotate(90) translate(36 -43)">
    <use xlink:href="#rim"/>
    <path pointer-events="none" fill="none" stroke="white" stroke-width="1.5" d="M0,-3.0v7 M-2.5,-0.5L0,-3.0L2.5,-0.5"/>
  </g>
  <g id="arrowDown" transform="rotate(180) translate(-30 -48)">
    <use xlink:href="#rim"/>
    <path pointer-events="none" fill="none" stroke="white" stroke-width="1.5" d="M0,-3.0v7 M-2.5,-0.5L0,-3.0L2.5,-0.5"/>
  </g>
  <g id="arrowLeft" transform="rotate(270) translate(-36 17)">
    <use xlink:href="#rim"/>
    <path pointer-events="none" fill="none" stroke="white" stroke-width="1.5" d="M0,-3.0v7 M-2.5,-0.5L0,-3.0L2.5,-0.5"/>
  </g>
  <g id="resetDef">
    <use xlink:href="#rim2" fill="#404040"><set attributeName="fill" to="#808080" begin="reset.mouseover" end="reset.mouseout"/></use>
  </g>
</defs>
<script type="application/ecmascript">
var viewWidth = 292;
var viewHeight = 536;
var sectionId = 'dynsection-0';
</script>
<script type="application/ecmascript" xlink:href="svg.min.js"/>
<svg id="graph" class="graph">
<g id="viewport">
<title>TramposoLibrary::AudioManager</title>
<!-- Node1 -->
<g id="Node000001" class="node">
<title>Node1</title>
<g id="a_Node000001"><a xlink:title=" ">
<polygon fill="#999999" stroke="none" points="256.5,-180 105.5,-180 105.5,0 256.5,0 256.5,-180"/>
<text text-anchor="start" x="110.5" y="-166.5" font-family="Helvetica,sans-Serif" font-size="10.00">TramposoLibrary::AudioManager</text>
<text text-anchor="start" x="179.5" y="-150.5" font-family="Helvetica,sans-Serif" font-size="10.00"> </text>
<text text-anchor="start" x="124" y="-134.5" font-family="Helvetica,sans-Serif" font-size="10.00">+</text>
<text text-anchor="start" x="148.5" y="-134.5" font-family="Helvetica,sans-Serif" font-size="10.00">AudioManager()</text>
<text text-anchor="start" x="124" y="-118.5" font-family="Helvetica,sans-Serif" font-size="10.00">+</text>
<text text-anchor="start" x="148.5" y="-118.5" font-family="Helvetica,sans-Serif" font-size="10.00">loadMusic()</text>
<text text-anchor="start" x="124" y="-102.5" font-family="Helvetica,sans-Serif" font-size="10.00">+</text>
<text text-anchor="start" x="148.5" y="-102.5" font-family="Helvetica,sans-Serif" font-size="10.00">loadSound()</text>
<text text-anchor="start" x="124" y="-86.5" font-family="Helvetica,sans-Serif" font-size="10.00">+</text>
<text text-anchor="start" x="148.5" y="-86.5" font-family="Helvetica,sans-Serif" font-size="10.00">pauseMusic()</text>
<text text-anchor="start" x="124" y="-70.5" font-family="Helvetica,sans-Serif" font-size="10.00">+</text>
<text text-anchor="start" x="148.5" y="-70.5" font-family="Helvetica,sans-Serif" font-size="10.00">playMusic()</text>
<text text-anchor="start" x="124" y="-54.5" font-family="Helvetica,sans-Serif" font-size="10.00">+</text>
<text text-anchor="start" x="148.5" y="-54.5" font-family="Helvetica,sans-Serif" font-size="10.00">playSound()</text>
<text text-anchor="start" x="124" y="-38.5" font-family="Helvetica,sans-Serif" font-size="10.00">+</text>
<text text-anchor="start" x="148.5" y="-38.5" font-family="Helvetica,sans-Serif" font-size="10.00">resumeMusic()</text>
<text text-anchor="start" x="124" y="-22.5" font-family="Helvetica,sans-Serif" font-size="10.00">+</text>
<text text-anchor="start" x="148.5" y="-22.5" font-family="Helvetica,sans-Serif" font-size="10.00">stopMusic()</text>
<text text-anchor="start" x="124" y="-6.5" font-family="Helvetica,sans-Serif" font-size="10.00">+</text>
<text text-anchor="start" x="148.5" y="-6.5" font-family="Helvetica,sans-Serif" font-size="10.00">~AudioManager()</text>
<polygon fill="#666666" stroke="#666666" points="105.5,-162 105.5,-162 256.5,-162 256.5,-162 105.5,-162"/>
<polygon fill="#666666" stroke="#666666" points="105.5,-146 105.5,-146 256.5,-146 256.5,-146 105.5,-146"/>
<polygon fill="none" stroke="#666666" points="105.5,0 105.5,-180 256.5,-180 256.5,0 105.5,0"/>
</a>
</g>
</g>
<!-- Node2 -->
<g id="Node000002" class="node">
<title>Node2</title>
<g id="a_Node000002"><a xlink:title=" ">
<polygon fill="white" stroke="none" points="188.5,-292 55.5,-292 55.5,-228 188.5,-228 188.5,-292"/>
<text text-anchor="start" x="60.12" y="-278.5" font-family="Helvetica,sans-Serif" font-size="10.00">std::unordered_map</text>
<text text-anchor="start" x="60.12" y="-266.5" font-family="Helvetica,sans-Serif" font-size="10.00">&lt; std::string, Mix_Chunk * &gt;</text>
<text text-anchor="start" x="120.5" y="-250.5" font-family="Helvetica,sans-Serif" font-size="10.00"> </text>
<text text-anchor="start" x="120.5" y="-234.5" font-family="Helvetica,sans-Serif" font-size="10.00"> </text>
<polygon fill="#666666" stroke="#666666" points="55.5,-262 55.5,-262 188.5,-262 188.5,-262 55.5,-262"/>
<polygon fill="#666666" stroke="#666666" points="55.5,-246 55.5,-246 188.5,-246 188.5,-246 55.5,-246"/>
<polygon fill="none" stroke="#666666" points="55.5,-228 55.5,-292 188.5,-292 188.5,-228 55.5,-228"/>
</a>
</g>
</g>
<!-- Node2&#45;&gt;Node1 -->
<g id="edge1_Node000001_Node000002" class="edge">
<title>Node2&#45;&gt;Node1</title>
<g id="a_edge1_Node000001_Node000002"><a xlink:title=" ">
<path fill="none" stroke="#63b8ff" d="M129.63,-228.08C132.22,-218.38 135.28,-207.68 138.5,-198 139.18,-195.95 139.88,-193.87 140.6,-191.79"/>
<polygon fill="none" stroke="#63b8ff" points="140.56,-191.92 138.79,-184.93 144.56,-180.6 146.33,-187.59 140.56,-191.92"/>
</a>
</g>
<text text-anchor="middle" x="176.75" y="-200.5" font-family="Helvetica,sans-Serif" font-size="10.00" fill="grey"> &#45;m_soundEffects</text>
</g>
<!-- Node3 -->
<g id="Node000003" class="node">
<title>Node3</title>
<g id="a_Node000003"><a xlink:title=" ">
<polygon fill="white" stroke="none" points="70.5,-410 17.5,-410 17.5,-358 70.5,-358 70.5,-410"/>
<text text-anchor="start" x="22.25" y="-396.5" font-family="Helvetica,sans-Serif" font-size="10.00">std::string</text>
<text text-anchor="start" x="42.5" y="-380.5" font-family="Helvetica,sans-Serif" font-size="10.00"> </text>
<text text-anchor="start" x="42.5" y="-364.5" font-family="Helvetica,sans-Serif" font-size="10.00"> </text>
<polygon fill="#666666" stroke="#666666" points="17.5,-392 17.5,-392 70.5,-392 70.5,-392 17.5,-392"/>
<polygon fill="#666666" stroke="#666666" points="17.5,-376 17.5,-376 70.5,-376 70.5,-376 17.5,-376"/>
<polygon fill="none" stroke="#666666" points="17.5,-358 17.5,-410 70.5,-410 70.5,-358 17.5,-358"/>
</a>
</g>
</g>
<!-- Node3&#45;&gt;Node2 -->
<g id="edge2_Node000002_Node000003" class="edge">
<title>Node3&#45;&gt;Node2</title>
<g id="a_edge2_Node000002_Node000003"><a xlink:title=" ">
<path fill="none" stroke="#63b8ff" d="M58.48,-358.09C66.88,-343.87 77.79,-325.78 88,-310 89.55,-307.6 91.17,-305.15 92.81,-302.68"/>
<polygon fill="none" stroke="#63b8ff" points="92.88,-302.58 92.93,-295.37 99.61,-292.65 99.55,-299.86 92.88,-302.58"/>
</a>
</g>
<text text-anchor="middle" x="103" y="-318.5" font-family="Helvetica,sans-Serif" font-size="10.00" fill="grey"> +keys</text>
</g>
<!-- Node4 -->
<g id="Node000004" class="node">
<title>Node4</title>
<g id="a_Node000004"><a xlink:title=" ">
<polygon fill="white" stroke="none" points="88,-528 0,-528 0,-464 88,-464 88,-528"/>
<text text-anchor="start" x="5" y="-514.5" font-family="Helvetica,sans-Serif" font-size="10.00">std::basic_string&lt;</text>
<text text-anchor="start" x="27.5" y="-502.5" font-family="Helvetica,sans-Serif" font-size="10.00"> Char &gt;</text>
<text text-anchor="start" x="42.5" y="-486.5" font-family="Helvetica,sans-Serif" font-size="10.00"> </text>
<text text-anchor="start" x="42.5" y="-470.5" font-family="Helvetica,sans-Serif" font-size="10.00"> </text>
<polygon fill="#666666" stroke="#666666" points="0,-498 0,-498 88,-498 88,-498 0,-498"/>
<polygon fill="#666666" stroke="#666666" points="0,-482 0,-482 88,-482 88,-482 0,-482"/>
<polygon fill="none" stroke="#666666" points="0,-464 0,-528 88,-528 88,-464 0,-464"/>
</a>
</g>
</g>
<!-- Node4&#45;&gt;Node3 -->
<g id="edge3_Node000003_Node000004" class="edge">
<title>Node4&#45;&gt;Node3</title>
<g id="a_edge3_Node000003_Node000004"><a xlink:title=" ">
<path fill="none" stroke="#63b8ff" d="M44,-452.77C44,-438.25 44,-422.47 44,-409.79"/>
<polygon fill="none" stroke="#63b8ff" points="40.5,-452.55 44,-462.55 47.5,-452.55 40.5,-452.55"/>
</a>
</g>
</g>
<!-- Node5 -->
<g id="Node000005" class="node">
<title>Node5</title>
<g id="a_Node000005"><a xlink:title=" ">
<polygon fill="white" stroke="none" points="155,-410 89,-410 89,-358 155,-358 155,-410"/>
<text text-anchor="start" x="93.88" y="-396.5" font-family="Helvetica,sans-Serif" font-size="10.00">Mix_Chunk *</text>
<text text-anchor="start" x="120.5" y="-380.5" font-family="Helvetica,sans-Serif" font-size="10.00"> </text>
<text text-anchor="start" x="120.5" y="-364.5" font-family="Helvetica,sans-Serif" font-size="10.00"> </text>
<polygon fill="#666666" stroke="#666666" points="89,-392 89,-392 155,-392 155,-392 89,-392"/>
<polygon fill="#666666" stroke="#666666" points="89,-376 89,-376 155,-376 155,-376 89,-376"/>
<polygon fill="none" stroke="#666666" points="89,-358 89,-410 155,-410 155,-358 89,-358"/>
</a>
</g>
</g>
<!-- Node5&#45;&gt;Node2 -->
<g id="edge4_Node000002_Node000005" class="edge">
<title>Node5&#45;&gt;Node2</title>
<g id="a_edge4_Node000002_Node000005"><a xlink:title=" ">
<path fill="none" stroke="#63b8ff" d="M122,-358.02C122,-342.61 122,-322.43 122,-304.46"/>
<polygon fill="none" stroke="#63b8ff" points="122,-304.47 118,-298.47 122,-292.47 126,-298.47 122,-304.47"/>
</a>
</g>
<text text-anchor="middle" x="146.38" y="-318.5" font-family="Helvetica,sans-Serif" font-size="10.00" fill="grey"> +elements</text>
</g>
<!-- Node6 -->
<g id="Node000006" class="node">
<title>Node6</title>
<g id="a_Node000006"><a xlink:title=" ">
<polygon fill="white" stroke="none" points="269,-416 173,-416 173,-352 269,-352 269,-416"/>
<text text-anchor="start" x="177.88" y="-402.5" font-family="Helvetica,sans-Serif" font-size="10.00">std::unordered_map</text>
<text text-anchor="start" x="203" y="-390.5" font-family="Helvetica,sans-Serif" font-size="10.00">&lt; K, T &gt;</text>
<text text-anchor="start" x="219.5" y="-374.5" font-family="Helvetica,sans-Serif" font-size="10.00"> </text>
<text text-anchor="start" x="219.5" y="-358.5" font-family="Helvetica,sans-Serif" font-size="10.00"> </text>
<polygon fill="#666666" stroke="#666666" points="173,-386 173,-386 269,-386 269,-386 173,-386"/>
<polygon fill="#666666" stroke="#666666" points="173,-370 173,-370 269,-370 269,-370 173,-370"/>
<polygon fill="none" stroke="#666666" points="173,-352 173,-416 269,-416 269,-352 173,-352"/>
</a>
</g>
</g>
<!-- Node6&#45;&gt;Node2 -->
<g id="edge5_Node000002_Node000006" class="edge">
<title>Node6&#45;&gt;Node2</title>
<g id="a_edge5_Node000002_Node000006"><a xlink:title=" ">
<path fill="none" stroke="orange" d="M198.1,-342.48C191.22,-331.53 183.28,-319.97 175,-310 169.87,-303.83 164,-297.69 158.07,-291.94"/>
<polygon fill="orange" stroke="orange" points="195.11,-344.3 203.31,-351.01 201.08,-340.65 195.11,-344.3"/>
</a>
</g>
<text text-anchor="start" x="191.87" y="-324.5" font-family="Helvetica,sans-Serif" font-size="10.00" fill="grey"> &lt; std::string, Mix</text>
<text text-anchor="middle" x="230.5" y="-312.5" font-family="Helvetica,sans-Serif" font-size="10.00" fill="grey">_Chunk * &gt;</text>
</g>
<!-- Node7 -->
<g id="Node000007" class="node">
<title>Node7</title>
<g id="a_Node000007"><a xlink:title=" ">
<polygon fill="white" stroke="none" points="202,-522 186,-522 186,-470 202,-470 202,-522"/>
<text text-anchor="start" x="190.62" y="-508.5" font-family="Helvetica,sans-Serif" font-size="10.00">K</text>
<text text-anchor="start" x="192.5" y="-492.5" font-family="Helvetica,sans-Serif" font-size="10.00"> </text>
<text text-anchor="start" x="192.5" y="-476.5" font-family="Helvetica,sans-Serif" font-size="10.00"> </text>
<polygon fill="#666666" stroke="#666666" points="186,-504 186,-504 202,-504 202,-504 186,-504"/>
<polygon fill="#666666" stroke="#666666" points="186,-488 186,-488 202,-488 202,-488 186,-488"/>
<polygon fill="none" stroke="#666666" points="186,-470 186,-522 202,-522 202,-470 186,-470"/>
</a>
</g>
</g>
<!-- Node7&#45;&gt;Node6 -->
<g id="edge6_Node000006_Node000007" class="edge">
<title>Node7&#45;&gt;Node6</title>
<g id="a_edge6_Node000006_Node000007"><a xlink:title=" ">
<path fill="none" stroke="#63b8ff" d="M194.14,-470.05C194.68,-458.88 196.01,-445.63 199,-434 199.51,-432.01 200.1,-430.01 200.74,-428"/>
<polygon fill="none" stroke="#63b8ff" points="200.78,-427.89 199.12,-420.87 204.96,-416.64 206.62,-423.66 200.78,-427.89"/>
</a>
</g>
<text text-anchor="middle" x="214" y="-436.5" font-family="Helvetica,sans-Serif" font-size="10.00" fill="grey"> +keys</text>
</g>
<!-- Node8 -->
<g id="Node000008" class="node">
<title>Node8</title>
<g id="a_Node000008"><a xlink:title=" ">
<polygon fill="white" stroke="none" points="255,-522 239,-522 239,-470 255,-470 255,-522"/>
<text text-anchor="start" x="244" y="-508.5" font-family="Helvetica,sans-Serif" font-size="10.00">T</text>
<text text-anchor="start" x="245.5" y="-492.5" font-family="Helvetica,sans-Serif" font-size="10.00"> </text>
<text text-anchor="start" x="245.5" y="-476.5" font-family="Helvetica,sans-Serif" font-size="10.00"> </text>
<polygon fill="#666666" stroke="#666666" points="239,-504 239,-504 255,-504 255,-504 239,-504"/>
<polygon fill="#666666" stroke="#666666" points="239,-488 239,-488 255,-488 255,-488 239,-488"/>
<polygon fill="none" stroke="#666666" points="239,-470 239,-522 255,-522 255,-470 239,-470"/>
</a>
</g>
</g>
<!-- Node8&#45;&gt;Node6 -->
<g id="edge7_Node000006_Node000008" class="edge">
<title>Node8&#45;&gt;Node6</title>
<g id="a_edge7_Node000006_Node000008"><a xlink:title=" ">
<path fill="none" stroke="#63b8ff" d="M241.1,-470.04C238.19,-457.71 234.59,-442.48 231.24,-428.33"/>
<polygon fill="none" stroke="#63b8ff" points="231.24,-428.31 225.96,-423.39 228.48,-416.63 233.75,-421.55 231.24,-428.31"/>
</a>
</g>
<text text-anchor="middle" x="259.15" y="-436.5" font-family="Helvetica,sans-Serif" font-size="10.00" fill="grey"> +elements</text>
</g>
<!-- Node9 -->
<g id="Node000009" class="node">
<title>Node9</title>
<g id="a_Node000009"><a xlink:title=" ">
<polygon fill="white" stroke="none" points="271,-286 207,-286 207,-234 271,-234 271,-286"/>
<text text-anchor="start" x="212" y="-272.5" font-family="Helvetica,sans-Serif" font-size="10.00">Mix_Music *</text>
<text text-anchor="start" x="237.5" y="-256.5" font-family="Helvetica,sans-Serif" font-size="10.00"> </text>
<text text-anchor="start" x="237.5" y="-240.5" font-family="Helvetica,sans-Serif" font-size="10.00"> </text>
<polygon fill="#666666" stroke="#666666" points="207,-268 207,-268 271,-268 271,-268 207,-268"/>
<polygon fill="#666666" stroke="#666666" points="207,-252 207,-252 271,-252 271,-252 207,-252"/>
<polygon fill="none" stroke="#666666" points="207,-234 207,-286 271,-286 271,-234 207,-234"/>
</a>
</g>
</g>
<!-- Node9&#45;&gt;Node1 -->
<g id="edge8_Node000001_Node000009" class="edge">
<title>Node9&#45;&gt;Node1</title>
<g id="a_edge8_Node000001_Node000009"><a xlink:title=" ">
<path fill="none" stroke="#63b8ff" d="M230.44,-234.21C226.4,-222.5 221.28,-207.67 215.87,-192.01"/>
<polygon fill="none" stroke="#63b8ff" points="215.91,-192.11 210.17,-187.74 211.99,-180.77 217.73,-185.13 215.91,-192.11"/>
</a>
</g>
<text text-anchor="middle" x="244.74" y="-200.5" font-family="Helvetica,sans-Serif" font-size="10.00" fill="grey"> &#45;m_music</text>
</g>
</g>
</svg>

<g id="navigator" transform="translate(0 0)" fill="#404254">
  <rect fill="#f2f5e9" fill-opacity="0.5" stroke="#606060" stroke-width=".5" x="0" y="0" width="60" height="60"/>
  <use id="zoomplus" xlink:href="#zoomPlus" x="17" y="9" onmousedown="handleZoom(evt,'in')"/>
  <use id="zoomminus" xlink:href="#zoomMin" x="42" y="9" onmousedown="handleZoom(evt,'out')"/>
  <use id="reset" xlink:href="#resetDef" x="30" y="36" onmousedown="handleReset()"/>
   <use id="arrowup" xlink:href="#arrowUp" x="0" y="0" onmousedown="handlePan(0,-1)"/>
  <use id="arrowright" xlink:href="#arrowRight" x="0" y="0" onmousedown="handlePan(1,0)"/>
  <use id="arrowdown" xlink:href="#arrowDown" x="0" y="0" onmousedown="handlePan(0,1)"/>
  <use id="arrowleft" xlink:href="#arrowLeft" x="0" y="0" onmousedown="handlePan(-1,0)"/>
</g>
<svg viewBox="0 0 15 15" width="100%" height="30px" preserveAspectRatio="xMaxYMin meet">
 <g id="arrow_out" transform="scale(0.3 0.3)">
  <a xlink:href="class_tramposo_library_1_1_audio_manager__coll__graph_org.svg" target="_base">
   <rect id="button" ry="5" rx="5" y="6" x="6" height="38" width="38"
        fill="#f2f5e9" fill-opacity="0.5" stroke="#606060" stroke-width="1.0"/>
   <path id="arrow"
     d="M 11.500037,31.436501 C 11.940474,20.09759 22.043105,11.32322 32.158766,21.979434 L 37.068811,17.246167 C 37.068811,17.246167 37.088388,32 37.088388,32 L 22.160133,31.978069 C 22.160133,31.978069 26.997745,27.140456 26.997745,27.140456 C 18.528582,18.264221 13.291696,25.230495 11.500037,31.436501 z"
     style="fill:#404040;"/>
  </a>
 </g>
</svg>

<style type='text/css'>
<![CDATA[
[data-mouse-over-selected='false'] { opacity: 0.7; }
[data-mouse-over-selected='true']  { opacity: 1.0; }
]]>
</style>
<script type="application/ecmascript"><![CDATA[
document.addEventListener('DOMContentLoaded', (event) => {
  highlightEdges();
  highlightAdjacentNodes();
});
]]></script>
</svg>
