<?xml version="1.0" encoding="UTF-8" standalone="no"?>
<!DOCTYPE svg PUBLIC "-//W3C//DTD SVG 1.1//EN"
 "http://www.w3.org/Graphics/SVG/1.1/DTD/svg11.dtd">
<!-- Generated by graphviz version 12.1.0 (20240811.2233)
 -->
<!-- Title: TramposoLibrary::Component Pages: 1 -->
<!--zoomable 696 -->

<svg id="main" version="1.1" xmlns="http://www.w3.org/2000/svg" xmlns:xlink="http://www.w3.org/1999/xlink" xml:space="preserve" onload="init(evt)">

<style type="text/css"><![CDATA[
.node, .edge {opacity: 0.7;}
.node.selected, .edge.selected {opacity: 1;}
.edge:hover path { stroke: red; }
.edge:hover polygon { stroke: red; fill: red; }
]]></style>

<defs>
  <circle id="rim" cx="0" cy="0" r="7"/>
  <circle id="rim2" cx="0" cy="0" r="3.5"/>
  <g id="zoomPlus">
    <use xlink:href="#rim" fill="#404040"><set attributeName="fill" to="#808080" begin="zoomplus.mouseover" end="zoomplus.mouseout"/></use>
    <path d="M-4,0h8M0,-4v8" fill="none" stroke="white" stroke-width="1.5" pointer-events="none"/>
  </g>
  <g id="zoomMin">
    <use xlink:href="#rim" fill="#404040"><set attributeName="fill" to="#808080" begin="zoomminus.mouseover" end="zoomminus.mouseout"/></use>
    <path d="M-4,0h8" fill="none" stroke="white" stroke-width="1.5" pointer-events="none"/>
  </g>
  <g id="arrowUp" transform="translate(30 24)">
    <use xlink:href="#rim"/>
    <path pointer-events="none" fill="none" stroke="white" stroke-width="1.5" d="M0,-3.0v7 M-2.5,-0.5L0,-3.0L2.5,-0.5"/>
  </g>
  <g id="arrowRight" transform="rotate(90) translate(36 -43)">
    <use xlink:href="#rim"/>
    <path pointer-events="none" fill="none" stroke="white" stroke-width="1.5" d="M0,-3.0v7 M-2.5,-0.5L0,-3.0L2.5,-0.5"/>
  </g>
  <g id="arrowDown" transform="rotate(180) translate(-30 -48)">
    <use xlink:href="#rim"/>
    <path pointer-events="none" fill="none" stroke="white" stroke-width="1.5" d="M0,-3.0v7 M-2.5,-0.5L0,-3.0L2.5,-0.5"/>
  </g>
  <g id="arrowLeft" transform="rotate(270) translate(-36 17)">
    <use xlink:href="#rim"/>
    <path pointer-events="none" fill="none" stroke="white" stroke-width="1.5" d="M0,-3.0v7 M-2.5,-0.5L0,-3.0L2.5,-0.5"/>
  </g>
  <g id="resetDef">
    <use xlink:href="#rim2" fill="#404040"><set attributeName="fill" to="#808080" begin="reset.mouseover" end="reset.mouseout"/></use>
  </g>
</defs>
<script type="application/ecmascript">
var viewWidth = 482;
var viewHeight = 696;
var sectionId = 'dynsection-0';
</script>
<script type="application/ecmascript" xlink:href="svg.min.js"/>
<svg id="graph" class="graph">
<g id="viewport">
<title>TramposoLibrary::Component</title>
<!-- Node1 -->
<g id="Node000001" class="node">
<title>Node1</title>
<g id="a_Node000001"><a xlink:title=" ">
<polygon fill="#999999" stroke="none" points="139,-588 0,-588 0,-488 139,-488 139,-588"/>
<text text-anchor="start" x="5" y="-574.5" font-family="Helvetica,sans-Serif" font-size="10.00">TramposoLibrary::Component</text>
<text text-anchor="start" x="68" y="-558.5" font-family="Helvetica,sans-Serif" font-size="10.00"> </text>
<text text-anchor="start" x="18.5" y="-542.5" font-family="Helvetica,sans-Serif" font-size="10.00">+</text>
<text text-anchor="start" x="43" y="-542.5" font-family="Helvetica,sans-Serif" font-size="10.00">Component()</text>
<text text-anchor="start" x="18.5" y="-526.5" font-family="Helvetica,sans-Serif" font-size="10.00">+</text>
<text text-anchor="start" x="43" y="-526.5" font-family="Helvetica,sans-Serif" font-size="10.00">render()</text>
<text text-anchor="start" x="18.5" y="-510.5" font-family="Helvetica,sans-Serif" font-size="10.00">+</text>
<text text-anchor="start" x="43" y="-510.5" font-family="Helvetica,sans-Serif" font-size="10.00">update()</text>
<text text-anchor="start" x="18.5" y="-494.5" font-family="Helvetica,sans-Serif" font-size="10.00">+</text>
<text text-anchor="start" x="43" y="-494.5" font-family="Helvetica,sans-Serif" font-size="10.00">~Component()</text>
<polygon fill="#666666" stroke="#666666" points="0,-570 0,-570 139,-570 139,-570 0,-570"/>
<polygon fill="#666666" stroke="#666666" points="0,-554 0,-554 139,-554 139,-554 0,-554"/>
<polygon fill="none" stroke="#666666" points="0,-488 0,-588 139,-588 139,-488 0,-488"/>
</a>
</g>
</g>
<!-- Node7 -->
<g id="Node000007" class="node">
<title>Node7</title>
<g id="a_Node000007"><a xlink:title=" ">
<polygon fill="white" stroke="none" points="217.5,-400 91.5,-400 91.5,-336 217.5,-336 217.5,-400"/>
<text text-anchor="start" x="96.38" y="-386.5" font-family="Helvetica,sans-Serif" font-size="10.00">std::unique_ptr&lt; Tramposo</text>
<text text-anchor="start" x="107.25" y="-374.5" font-family="Helvetica,sans-Serif" font-size="10.00">Library::Component &gt;</text>
<text text-anchor="start" x="153" y="-358.5" font-family="Helvetica,sans-Serif" font-size="10.00"> </text>
<text text-anchor="start" x="110" y="-342.5" font-family="Helvetica,sans-Serif" font-size="10.00">+</text>
<text text-anchor="start" x="134.5" y="-342.5" font-family="Helvetica,sans-Serif" font-size="10.00">operator&#45;&gt;()</text>
<polygon fill="#666666" stroke="#666666" points="91.5,-370 91.5,-370 217.5,-370 217.5,-370 91.5,-370"/>
<polygon fill="#666666" stroke="#666666" points="91.5,-354 91.5,-354 217.5,-354 217.5,-354 91.5,-354"/>
<polygon fill="none" stroke="#666666" points="91.5,-336 91.5,-400 217.5,-400 217.5,-336 91.5,-336"/>
</a>
</g>
</g>
<!-- Node1&#45;&gt;Node7 -->
<g id="edge7_Node000007_Node000001" class="edge">
<title>Node1&#45;&gt;Node7</title>
<g id="a_edge7_Node000007_Node000001"><a xlink:title=" ">
<path fill="none" stroke="#63b8ff" d="M87.67,-488.15C96.5,-466.21 107.88,-440.29 120.25,-418 121.62,-415.53 123.09,-413.03 124.61,-410.54"/>
<polygon fill="none" stroke="#63b8ff" points="124.58,-410.59 124.47,-403.38 131.09,-400.5 131.2,-407.71 124.58,-410.59"/>
</a>
</g>
<text text-anchor="middle" x="130.38" y="-440.5" font-family="Helvetica,sans-Serif" font-size="10.00" fill="grey"> +ptr</text>
</g>
<!-- Node2 -->
<g id="Node000002" class="node">
<title>Node2</title>
<g id="a_Node000002"><a xlink:href="class_tramposo_library_1_1_sprite.html" target="_top" xlink:title="Represents a game object that can be rendered to the screen.">
<polygon fill="white" stroke="none" points="322.5,-164 208.5,-164 208.5,0 322.5,0 322.5,-164"/>
<text text-anchor="start" x="213.38" y="-150.5" font-family="Helvetica,sans-Serif" font-size="10.00">TramposoLibrary::Sprite</text>
<text text-anchor="start" x="264" y="-134.5" font-family="Helvetica,sans-Serif" font-size="10.00"> </text>
<text text-anchor="start" x="218.5" y="-118.5" font-family="Helvetica,sans-Serif" font-size="10.00">+</text>
<text text-anchor="start" x="234.5" y="-118.5" font-family="Helvetica,sans-Serif" font-size="10.00">addComponent()</text>
<text text-anchor="start" x="218.5" y="-102.5" font-family="Helvetica,sans-Serif" font-size="10.00">+</text>
<text text-anchor="start" x="234.5" y="-102.5" font-family="Helvetica,sans-Serif" font-size="10.00">getComponent()</text>
<text text-anchor="start" x="218.5" y="-86.5" font-family="Helvetica,sans-Serif" font-size="10.00">+</text>
<text text-anchor="start" x="234.5" y="-86.5" font-family="Helvetica,sans-Serif" font-size="10.00">getRect()</text>
<text text-anchor="start" x="218.5" y="-70.5" font-family="Helvetica,sans-Serif" font-size="10.00">+</text>
<text text-anchor="start" x="234.5" y="-70.5" font-family="Helvetica,sans-Serif" font-size="10.00">render()</text>
<text text-anchor="start" x="218.5" y="-54.5" font-family="Helvetica,sans-Serif" font-size="10.00">+</text>
<text text-anchor="start" x="234.5" y="-54.5" font-family="Helvetica,sans-Serif" font-size="10.00">setPosition()</text>
<text text-anchor="start" x="218.5" y="-38.5" font-family="Helvetica,sans-Serif" font-size="10.00">+</text>
<text text-anchor="start" x="234.5" y="-38.5" font-family="Helvetica,sans-Serif" font-size="10.00">Sprite()</text>
<text text-anchor="start" x="218.5" y="-22.5" font-family="Helvetica,sans-Serif" font-size="10.00">+</text>
<text text-anchor="start" x="234.5" y="-22.5" font-family="Helvetica,sans-Serif" font-size="10.00">update()</text>
<text text-anchor="start" x="218.5" y="-6.5" font-family="Helvetica,sans-Serif" font-size="10.00">+</text>
<text text-anchor="start" x="234.5" y="-6.5" font-family="Helvetica,sans-Serif" font-size="10.00">~Sprite()</text>
<polygon fill="#666666" stroke="#666666" points="208.5,-146 208.5,-146 322.5,-146 322.5,-146 208.5,-146"/>
<polygon fill="#666666" stroke="#666666" points="208.5,-130 208.5,-130 322.5,-130 322.5,-130 208.5,-130"/>
<polygon fill="none" stroke="#666666" points="208.5,0 208.5,-164 322.5,-164 322.5,0 208.5,0"/>
</a>
</g>
</g>
<!-- Node2&#45;&gt;Node1 -->
<g id="edge1_Node000001_Node000002" class="edge">
<title>Node2&#45;&gt;Node1</title>
<g id="a_edge1_Node000001_Node000002"><a xlink:title=" ">
<path fill="none" stroke="#63b8ff" d="M208.5,-108.2C167.7,-129.53 115.56,-164.29 89.5,-212 44.51,-294.38 49.47,-406.63 58.51,-475.33"/>
<polygon fill="none" stroke="#63b8ff" points="58.5,-475.28 63.3,-480.67 60.17,-487.16 55.37,-481.78 58.5,-475.28"/>
</a>
</g>
<text text-anchor="middle" x="82.38" y="-308.5" font-family="Helvetica,sans-Serif" font-size="10.00" fill="grey"> #m_owner</text>
</g>
<!-- Node3 -->
<g id="Node000003" class="node">
<title>Node3</title>
<g id="a_Node000003"><a xlink:title=" ">
<polygon fill="white" stroke="none" points="302,-276 229,-276 229,-224 302,-224 302,-276"/>
<text text-anchor="start" x="233.62" y="-262.5" font-family="Helvetica,sans-Serif" font-size="10.00">SDL_Texture *</text>
<text text-anchor="start" x="264" y="-246.5" font-family="Helvetica,sans-Serif" font-size="10.00"> </text>
<text text-anchor="start" x="264" y="-230.5" font-family="Helvetica,sans-Serif" font-size="10.00"> </text>
<polygon fill="#666666" stroke="#666666" points="229,-258 229,-258 302,-258 302,-258 229,-258"/>
<polygon fill="#666666" stroke="#666666" points="229,-242 229,-242 302,-242 302,-242 229,-242"/>
<polygon fill="none" stroke="#666666" points="229,-224 229,-276 302,-276 302,-224 229,-224"/>
</a>
</g>
</g>
<!-- Node3&#45;&gt;Node2 -->
<g id="edge2_Node000002_Node000003" class="edge">
<title>Node3&#45;&gt;Node2</title>
<g id="a_edge2_Node000002_Node000003"><a xlink:title=" ">
<path fill="none" stroke="#63b8ff" d="M265.5,-224.15C265.5,-211.12 265.5,-194.25 265.5,-176.73"/>
<polygon fill="none" stroke="#63b8ff" points="265.5,-176.81 261.5,-170.81 265.5,-164.81 269.5,-170.81 265.5,-176.81"/>
</a>
</g>
<text text-anchor="middle" x="291.38" y="-184.5" font-family="Helvetica,sans-Serif" font-size="10.00" fill="grey"> #m_texture</text>
</g>
<!-- Node4 -->
<g id="Node000004" class="node">
<title>Node4</title>
<g id="a_Node000004"><a xlink:title=" ">
<polygon fill="white" stroke="none" points="375,-276 320,-276 320,-224 375,-224 375,-276"/>
<text text-anchor="start" x="324.62" y="-262.5" font-family="Helvetica,sans-Serif" font-size="10.00">SDL_Rect</text>
<text text-anchor="start" x="346" y="-246.5" font-family="Helvetica,sans-Serif" font-size="10.00"> </text>
<text text-anchor="start" x="346" y="-230.5" font-family="Helvetica,sans-Serif" font-size="10.00"> </text>
<polygon fill="#666666" stroke="#666666" points="320,-258 320,-258 375,-258 375,-258 320,-258"/>
<polygon fill="#666666" stroke="#666666" points="320,-242 320,-242 375,-242 375,-242 320,-242"/>
<polygon fill="none" stroke="#666666" points="320,-224 320,-276 375,-276 375,-224 320,-224"/>
</a>
</g>
</g>
<!-- Node4&#45;&gt;Node2 -->
<g id="edge3_Node000002_Node000004" class="edge">
<title>Node4&#45;&gt;Node2</title>
<g id="a_edge3_Node000002_Node000004"><a xlink:title=" ">
<path fill="none" stroke="#63b8ff" d="M338.83,-224.14C334.13,-211.36 327.96,-195.64 321.5,-182 320.44,-179.76 319.35,-177.5 318.23,-175.23"/>
<polygon fill="none" stroke="#63b8ff" points="318.28,-175.32 312,-171.77 312.86,-164.61 319.14,-168.16 318.28,-175.32"/>
</a>
</g>
<text text-anchor="middle" x="345.47" y="-184.5" font-family="Helvetica,sans-Serif" font-size="10.00" fill="grey"> #m_rect</text>
</g>
<!-- Node5 -->
<g id="Node000005" class="node">
<title>Node5</title>
<g id="a_Node000005"><a xlink:title=" ">
<polygon fill="white" stroke="none" points="474,-276 393,-276 393,-224 474,-224 474,-276"/>
<text text-anchor="start" x="397.88" y="-262.5" font-family="Helvetica,sans-Serif" font-size="10.00">SDL_Renderer *</text>
<text text-anchor="start" x="432" y="-246.5" font-family="Helvetica,sans-Serif" font-size="10.00"> </text>
<text text-anchor="start" x="432" y="-230.5" font-family="Helvetica,sans-Serif" font-size="10.00"> </text>
<polygon fill="#666666" stroke="#666666" points="393,-258 393,-258 474,-258 474,-258 393,-258"/>
<polygon fill="#666666" stroke="#666666" points="393,-242 393,-242 474,-242 474,-242 393,-242"/>
<polygon fill="none" stroke="#666666" points="393,-224 393,-276 474,-276 474,-224 393,-224"/>
</a>
</g>
</g>
<!-- Node5&#45;&gt;Node2 -->
<g id="edge4_Node000002_Node000005" class="edge">
<title>Node5&#45;&gt;Node2</title>
<g id="a_edge4_Node000002_Node000005"><a xlink:title=" ">
<path fill="none" stroke="#63b8ff" d="M409.93,-224.3C397.68,-211.56 382.4,-195.83 368.5,-182 356.66,-170.22 343.93,-157.78 331.58,-145.86"/>
<polygon fill="none" stroke="#63b8ff" points="331.53,-145.81 324.44,-144.52 322.89,-137.48 329.99,-138.76 331.53,-145.81"/>
</a>
</g>
<text text-anchor="middle" x="407.78" y="-184.5" font-family="Helvetica,sans-Serif" font-size="10.00" fill="grey"> #m_renderer</text>
</g>
<!-- Node6 -->
<g id="Node000006" class="node">
<title>Node6</title>
<g id="a_Node000006"><a xlink:title=" ">
<polygon fill="white" stroke="none" points="211,-288 98,-288 98,-212 211,-212 211,-288"/>
<text text-anchor="start" x="102.75" y="-274.5" font-family="Helvetica,sans-Serif" font-size="10.00">std::vector&lt; std::unique</text>
<text text-anchor="start" x="102.75" y="-262.5" font-family="Helvetica,sans-Serif" font-size="10.00">_ptr&lt; TramposoLibrary::</text>
<text text-anchor="start" x="120.38" y="-250.5" font-family="Helvetica,sans-Serif" font-size="10.00">Component &gt; &gt;</text>
<text text-anchor="start" x="153" y="-234.5" font-family="Helvetica,sans-Serif" font-size="10.00"> </text>
<text text-anchor="start" x="153" y="-218.5" font-family="Helvetica,sans-Serif" font-size="10.00"> </text>
<polygon fill="#666666" stroke="#666666" points="98,-246 98,-246 211,-246 211,-246 98,-246"/>
<polygon fill="#666666" stroke="#666666" points="98,-230 98,-230 211,-230 211,-230 98,-230"/>
<polygon fill="none" stroke="#666666" points="98,-212 98,-288 211,-288 211,-212 98,-212"/>
</a>
</g>
</g>
<!-- Node6&#45;&gt;Node2 -->
<g id="edge5_Node000002_Node000006" class="edge">
<title>Node6&#45;&gt;Node2</title>
<g id="a_edge5_Node000002_Node000006"><a xlink:title=" ">
<path fill="none" stroke="#63b8ff" d="M170.31,-212.03C175.07,-202.04 180.62,-191.4 186.5,-182 190.97,-174.86 195.87,-167.65 200.97,-160.53"/>
<polygon fill="none" stroke="#63b8ff" points="200.92,-160.6 201.25,-153.4 208.03,-150.93 207.7,-158.14 200.92,-160.6"/>
</a>
</g>
<text text-anchor="middle" x="224" y="-184.5" font-family="Helvetica,sans-Serif" font-size="10.00" fill="grey"> #m_components</text>
</g>
<!-- Node7&#45;&gt;Node6 -->
<g id="edge6_Node000006_Node000007" class="edge">
<title>Node7&#45;&gt;Node6</title>
<g id="a_edge6_Node000006_Node000007"><a xlink:title=" ">
<path fill="none" stroke="#63b8ff" d="M154.5,-336.22C154.5,-325.28 154.5,-312.66 154.5,-300.55"/>
<polygon fill="none" stroke="#63b8ff" points="154.5,-300.61 150.5,-294.61 154.5,-288.61 158.5,-294.61 154.5,-300.61"/>
</a>
</g>
<text text-anchor="middle" x="178.88" y="-308.5" font-family="Helvetica,sans-Serif" font-size="10.00" fill="grey"> +elements</text>
</g>
<!-- Node8 -->
<g id="Node000008" class="node">
<title>Node8</title>
<g id="a_Node000008"><a xlink:title=" ">
<polygon fill="white" stroke="none" points="257,-564 160,-564 160,-512 257,-512 257,-564"/>
<text text-anchor="start" x="164.62" y="-550.5" font-family="Helvetica,sans-Serif" font-size="10.00">std::unique_ptr&lt; T &gt;</text>
<text text-anchor="start" x="207" y="-534.5" font-family="Helvetica,sans-Serif" font-size="10.00"> </text>
<text text-anchor="start" x="171" y="-518.5" font-family="Helvetica,sans-Serif" font-size="10.00">+</text>
<text text-anchor="start" x="188" y="-518.5" font-family="Helvetica,sans-Serif" font-size="10.00">operator&#45;&gt;()</text>
<polygon fill="#666666" stroke="#666666" points="160,-546 160,-546 257,-546 257,-546 160,-546"/>
<polygon fill="#666666" stroke="#666666" points="160,-530 160,-530 257,-530 257,-530 160,-530"/>
<polygon fill="none" stroke="#666666" points="160,-512 160,-564 257,-564 257,-512 160,-512"/>
</a>
</g>
</g>
<!-- Node8&#45;&gt;Node7 -->
<g id="edge8_Node000007_Node000008" class="edge">
<title>Node8&#45;&gt;Node7</title>
<g id="a_edge8_Node000007_Node000008"><a xlink:title=" ">
<path fill="none" stroke="orange" d="M171.81,-503.95C163.15,-493.99 155.11,-482.38 150.5,-470 142.1,-447.47 143.84,-420.13 147.27,-399.58"/>
<polygon fill="orange" stroke="orange" points="169.11,-506.19 178.47,-511.16 174.25,-501.44 169.11,-506.19"/>
</a>
</g>
<text text-anchor="start" x="150.5" y="-446.5" font-family="Helvetica,sans-Serif" font-size="10.00" fill="grey"> &lt; TramposoLibrary::</text>
<text text-anchor="middle" x="195.5" y="-434.5" font-family="Helvetica,sans-Serif" font-size="10.00" fill="grey">Component &gt;</text>
</g>
<!-- Node9 -->
<g id="Node000009" class="node">
<title>Node9</title>
<g id="a_Node000009"><a xlink:title=" ">
<polygon fill="white" stroke="none" points="256.5,-688 240.5,-688 240.5,-636 256.5,-636 256.5,-688"/>
<text text-anchor="start" x="245.5" y="-674.5" font-family="Helvetica,sans-Serif" font-size="10.00">T</text>
<text text-anchor="start" x="247" y="-658.5" font-family="Helvetica,sans-Serif" font-size="10.00"> </text>
<text text-anchor="start" x="247" y="-642.5" font-family="Helvetica,sans-Serif" font-size="10.00"> </text>
<polygon fill="#666666" stroke="#666666" points="240.5,-670 240.5,-670 256.5,-670 256.5,-670 240.5,-670"/>
<polygon fill="#666666" stroke="#666666" points="240.5,-654 240.5,-654 256.5,-654 256.5,-654 240.5,-654"/>
<polygon fill="none" stroke="#666666" points="240.5,-636 240.5,-688 256.5,-688 256.5,-636 240.5,-636"/>
</a>
</g>
</g>
<!-- Node9&#45;&gt;Node8 -->
<g id="edge9_Node000008_Node000009" class="edge">
<title>Node9&#45;&gt;Node8</title>
<g id="a_edge9_Node000008_Node000009"><a xlink:title=" ">
<path fill="none" stroke="#63b8ff" d="M240.5,-636.6C234.82,-619.26 227.08,-595.66 220.63,-576.01"/>
<polygon fill="none" stroke="#63b8ff" points="220.64,-576.03 214.97,-571.58 216.9,-564.63 222.57,-569.08 220.64,-576.03"/>
</a>
</g>
<text text-anchor="middle" x="243.38" y="-608.5" font-family="Helvetica,sans-Serif" font-size="10.00" fill="grey"> +ptr</text>
</g>
<!-- Node10 -->
<g id="Node000010" class="node">
<title>Node10</title>
<g id="a_Node000010"><a xlink:title=" ">
<polygon fill="white" stroke="none" points="328,-470 249,-470 249,-418 328,-418 328,-470"/>
<text text-anchor="start" x="253.62" y="-456.5" font-family="Helvetica,sans-Serif" font-size="10.00">std::vector&lt; T &gt;</text>
<text text-anchor="start" x="287" y="-440.5" font-family="Helvetica,sans-Serif" font-size="10.00"> </text>
<text text-anchor="start" x="287" y="-424.5" font-family="Helvetica,sans-Serif" font-size="10.00"> </text>
<polygon fill="#666666" stroke="#666666" points="249,-452 249,-452 328,-452 328,-452 249,-452"/>
<polygon fill="#666666" stroke="#666666" points="249,-436 249,-436 328,-436 328,-436 249,-436"/>
<polygon fill="none" stroke="#666666" points="249,-418 249,-470 328,-470 328,-418 249,-418"/>
</a>
</g>
</g>
<!-- Node9&#45;&gt;Node10 -->
<g id="edge11_Node000010_Node000009" class="edge">
<title>Node9&#45;&gt;Node10</title>
<g id="a_edge11_Node000010_Node000009"><a xlink:title=" ">
<path fill="none" stroke="#63b8ff" d="M255.22,-636.12C258.87,-622.06 263.28,-604.13 266.5,-588 273.6,-552.49 279.68,-511.62 283.63,-482.7"/>
<polygon fill="none" stroke="#63b8ff" points="283.63,-482.7 280.47,-476.23 285.23,-470.81 288.4,-477.29 283.63,-482.7"/>
</a>
</g>
<text text-anchor="middle" x="286.82" y="-608.5" font-family="Helvetica,sans-Serif" font-size="10.00" fill="grey"> +elements</text>
</g>
<!-- Node10&#45;&gt;Node6 -->
<g id="edge10_Node000006_Node000010" class="edge">
<title>Node10&#45;&gt;Node6</title>
<g id="a_edge10_Node000006_Node000010"><a xlink:title=" ">
<path fill="none" stroke="orange" d="M271.26,-408.28C256.25,-379.58 232.96,-338.42 207.5,-306 202.75,-299.95 197.43,-293.82 192.05,-287.95"/>
<polygon fill="orange" stroke="orange" points="268.01,-409.62 275.71,-416.91 274.23,-406.41 268.01,-409.62"/>
</a>
</g>
<text text-anchor="start" x="266.86" y="-370.5" font-family="Helvetica,sans-Serif" font-size="10.00" fill="grey"> &lt; std::unique_ptr&lt;</text>
<text text-anchor="middle" x="341.49" y="-358.5" font-family="Helvetica,sans-Serif" font-size="10.00" fill="grey"> TramposoLibrary::Component &gt; &gt;</text>
</g>
</g>
</svg>

<g id="navigator" transform="translate(0 0)" fill="#404254">
  <rect fill="#f2f5e9" fill-opacity="0.5" stroke="#606060" stroke-width=".5" x="0" y="0" width="60" height="60"/>
  <use id="zoomplus" xlink:href="#zoomPlus" x="17" y="9" onmousedown="handleZoom(evt,'in')"/>
  <use id="zoomminus" xlink:href="#zoomMin" x="42" y="9" onmousedown="handleZoom(evt,'out')"/>
  <use id="reset" xlink:href="#resetDef" x="30" y="36" onmousedown="handleReset()"/>
   <use id="arrowup" xlink:href="#arrowUp" x="0" y="0" onmousedown="handlePan(0,-1)"/>
  <use id="arrowright" xlink:href="#arrowRight" x="0" y="0" onmousedown="handlePan(1,0)"/>
  <use id="arrowdown" xlink:href="#arrowDown" x="0" y="0" onmousedown="handlePan(0,1)"/>
  <use id="arrowleft" xlink:href="#arrowLeft" x="0" y="0" onmousedown="handlePan(-1,0)"/>
</g>
<svg viewBox="0 0 15 15" width="100%" height="30px" preserveAspectRatio="xMaxYMin meet">
 <g id="arrow_out" transform="scale(0.3 0.3)">
  <a xlink:href="class_tramposo_library_1_1_component__coll__graph_org.svg" target="_base">
   <rect id="button" ry="5" rx="5" y="6" x="6" height="38" width="38"
        fill="#f2f5e9" fill-opacity="0.5" stroke="#606060" stroke-width="1.0"/>
   <path id="arrow"
     d="M 11.500037,31.436501 C 11.940474,20.09759 22.043105,11.32322 32.158766,21.979434 L 37.068811,17.246167 C 37.068811,17.246167 37.088388,32 37.088388,32 L 22.160133,31.978069 C 22.160133,31.978069 26.997745,27.140456 26.997745,27.140456 C 18.528582,18.264221 13.291696,25.230495 11.500037,31.436501 z"
     style="fill:#404040;"/>
  </a>
 </g>
</svg>

<style type='text/css'>
<![CDATA[
[data-mouse-over-selected='false'] { opacity: 0.7; }
[data-mouse-over-selected='true']  { opacity: 1.0; }
]]>
</style>
<script type="application/ecmascript"><![CDATA[
document.addEventListener('DOMContentLoaded', (event) => {
  highlightEdges();
  highlightAdjacentNodes();
});
]]></script>
</svg>
