<?xml version="1.0" encoding="UTF-8" standalone="no"?>
<!DOCTYPE svg PUBLIC "-//W3C//DTD SVG 1.1//EN"
 "http://www.w3.org/Graphics/SVG/1.1/DTD/svg11.dtd">
<!-- Generated by graphviz version 12.1.0 (20240811.2233)
 -->
<!-- Title: TramposoLibrary::Scene Pages: 1 -->
<svg width="124pt" height="372pt"
 viewBox="0.00 0.00 124.00 372.00" xmlns="http://www.w3.org/2000/svg" xmlns:xlink="http://www.w3.org/1999/xlink">
<g id="graph0" class="graph" transform="scale(1 1) rotate(0) translate(4 368)">
<title>TramposoLibrary::Scene</title>
<!-- Node1 -->
<g id="Node000001" class="node">
<title>Node1</title>
<g id="a_Node000001"><a xlink:title="Represents a game scene or state.">
<polygon fill="#999999" stroke="none" points="116,-364 0,-364 0,-200 116,-200 116,-364"/>
<text text-anchor="start" x="4.75" y="-350.5" font-family="Helvetica,sans-Serif" font-size="10.00">TramposoLibrary::Scene</text>
<text text-anchor="start" x="16.88" y="-334.5" font-family="Helvetica,sans-Serif" font-size="10.00">#</text>
<text text-anchor="start" x="39" y="-334.5" font-family="Helvetica,sans-Serif" font-size="10.00">m_game</text>
<text text-anchor="start" x="16.88" y="-318.5" font-family="Helvetica,sans-Serif" font-size="10.00">#</text>
<text text-anchor="start" x="39" y="-318.5" font-family="Helvetica,sans-Serif" font-size="10.00">m_sprites</text>
<text text-anchor="start" x="16.5" y="-302.5" font-family="Helvetica,sans-Serif" font-size="10.00">+</text>
<text text-anchor="start" x="39" y="-302.5" font-family="Helvetica,sans-Serif" font-size="10.00">addSprite()</text>
<text text-anchor="start" x="16.5" y="-286.5" font-family="Helvetica,sans-Serif" font-size="10.00">+</text>
<text text-anchor="start" x="39" y="-286.5" font-family="Helvetica,sans-Serif" font-size="10.00">load()</text>
<text text-anchor="start" x="16.5" y="-270.5" font-family="Helvetica,sans-Serif" font-size="10.00">+</text>
<text text-anchor="start" x="39" y="-270.5" font-family="Helvetica,sans-Serif" font-size="10.00">render()</text>
<text text-anchor="start" x="16.5" y="-254.5" font-family="Helvetica,sans-Serif" font-size="10.00">+</text>
<text text-anchor="start" x="39" y="-254.5" font-family="Helvetica,sans-Serif" font-size="10.00">Scene()</text>
<text text-anchor="start" x="16.5" y="-238.5" font-family="Helvetica,sans-Serif" font-size="10.00">+</text>
<text text-anchor="start" x="39" y="-238.5" font-family="Helvetica,sans-Serif" font-size="10.00">unload()</text>
<text text-anchor="start" x="16.5" y="-222.5" font-family="Helvetica,sans-Serif" font-size="10.00">+</text>
<text text-anchor="start" x="39" y="-222.5" font-family="Helvetica,sans-Serif" font-size="10.00">update()</text>
<text text-anchor="start" x="16.5" y="-206.5" font-family="Helvetica,sans-Serif" font-size="10.00">+</text>
<text text-anchor="start" x="39" y="-206.5" font-family="Helvetica,sans-Serif" font-size="10.00">~Scene()</text>
<polygon fill="#666666" stroke="#666666" points="0,-346 0,-346 116,-346 116,-346 0,-346"/>
<polygon fill="#666666" stroke="#666666" points="0,-314 0,-314 37,-314 37,-314 0,-314"/>
<polygon fill="#666666" stroke="#666666" points="37,-314 37,-314 116,-314 116,-314 37,-314"/>
<polygon fill="none" stroke="#666666" points="0,-200 0,-364 116,-364 116,-200 0,-200"/>
</a>
</g>
</g>
<!-- Node2 -->
<g id="Node000002" class="node">
<title>Node2</title>
<g id="a_Node000002"><a xlink:href="class_catch_game_scene.html" target="_top" xlink:title=" ">
<polygon fill="white" stroke="none" points="110,-164 6,-164 6,0 110,0 110,-164"/>
<text text-anchor="start" x="17.88" y="-150.5" font-family="Helvetica,sans-Serif" font-size="10.00">CatchGameScene</text>
<text text-anchor="start" x="11.5" y="-134.5" font-family="Helvetica,sans-Serif" font-size="10.00">&#45;</text>
<text text-anchor="start" x="20" y="-134.5" font-family="Helvetica,sans-Serif" font-size="10.00">m_fallingObject</text>
<text text-anchor="start" x="11.5" y="-118.5" font-family="Helvetica,sans-Serif" font-size="10.00">&#45;</text>
<text text-anchor="start" x="20" y="-118.5" font-family="Helvetica,sans-Serif" font-size="10.00">m_player</text>
<text text-anchor="start" x="11.5" y="-102.5" font-family="Helvetica,sans-Serif" font-size="10.00">&#45;</text>
<text text-anchor="start" x="20" y="-102.5" font-family="Helvetica,sans-Serif" font-size="10.00">m_score</text>
<text text-anchor="start" x="10" y="-86.5" font-family="Helvetica,sans-Serif" font-size="10.00">+</text>
<text text-anchor="start" x="20" y="-86.5" font-family="Helvetica,sans-Serif" font-size="10.00">CatchGameScene()</text>
<text text-anchor="start" x="10" y="-70.5" font-family="Helvetica,sans-Serif" font-size="10.00">+</text>
<text text-anchor="start" x="20" y="-70.5" font-family="Helvetica,sans-Serif" font-size="10.00">load()</text>
<text text-anchor="start" x="10" y="-54.5" font-family="Helvetica,sans-Serif" font-size="10.00">+</text>
<text text-anchor="start" x="20" y="-54.5" font-family="Helvetica,sans-Serif" font-size="10.00">render()</text>
<text text-anchor="start" x="10" y="-38.5" font-family="Helvetica,sans-Serif" font-size="10.00">+</text>
<text text-anchor="start" x="20" y="-38.5" font-family="Helvetica,sans-Serif" font-size="10.00">unload()</text>
<text text-anchor="start" x="10" y="-22.5" font-family="Helvetica,sans-Serif" font-size="10.00">+</text>
<text text-anchor="start" x="20" y="-22.5" font-family="Helvetica,sans-Serif" font-size="10.00">update()</text>
<text text-anchor="start" x="11.5" y="-6.5" font-family="Helvetica,sans-Serif" font-size="10.00">&#45;</text>
<text text-anchor="start" x="20" y="-6.5" font-family="Helvetica,sans-Serif" font-size="10.00">resetFallingObject()</text>
<polygon fill="#666666" stroke="#666666" points="6,-146 6,-146 110,-146 110,-146 6,-146"/>
<polygon fill="#666666" stroke="#666666" points="6,-98 6,-98 18,-98 18,-98 6,-98"/>
<polygon fill="#666666" stroke="#666666" points="18,-98 18,-98 110,-98 110,-98 18,-98"/>
<polygon fill="none" stroke="#666666" points="6,0 6,-164 110,-164 110,0 6,0"/>
</a>
</g>
</g>
<!-- Node1&#45;&gt;Node2 -->
<g id="edge1_Node000001_Node000002" class="edge">
<title>Node1&#45;&gt;Node2</title>
<g id="a_edge1_Node000001_Node000002"><a xlink:title=" ">
<path fill="none" stroke="#63b8ff" d="M58,-188.87C58,-180.52 58,-172.12 58,-163.88"/>
<polygon fill="none" stroke="#63b8ff" points="54.5,-188.67 58,-198.67 61.5,-188.67 54.5,-188.67"/>
</a>
</g>
</g>
</g>
</svg>
