<?xml version="1.0" encoding="UTF-8" standalone="no"?>
<!DOCTYPE svg PUBLIC "-//W3C//DTD SVG 1.1//EN"
 "http://www.w3.org/Graphics/SVG/1.1/DTD/svg11.dtd">
<!-- Generated by graphviz version 12.1.0 (20240811.2233)
 -->
<!-- Title: TramposoLibrary::Sprite Pages: 1 -->
<!--zoomable 696 -->

<svg id="main" version="1.1" xmlns="http://www.w3.org/2000/svg" xmlns:xlink="http://www.w3.org/1999/xlink" xml:space="preserve" onload="init(evt)">

<style type="text/css"><![CDATA[
.node, .edge {opacity: 0.7;}
.node.selected, .edge.selected {opacity: 1;}
.edge:hover path { stroke: red; }
.edge:hover polygon { stroke: red; fill: red; }
]]></style>

<defs>
  <circle id="rim" cx="0" cy="0" r="7"/>
  <circle id="rim2" cx="0" cy="0" r="3.5"/>
  <g id="zoomPlus">
    <use xlink:href="#rim" fill="#404040"><set attributeName="fill" to="#808080" begin="zoomplus.mouseover" end="zoomplus.mouseout"/></use>
    <path d="M-4,0h8M0,-4v8" fill="none" stroke="white" stroke-width="1.5" pointer-events="none"/>
  </g>
  <g id="zoomMin">
    <use xlink:href="#rim" fill="#404040"><set attributeName="fill" to="#808080" begin="zoomminus.mouseover" end="zoomminus.mouseout"/></use>
    <path d="M-4,0h8" fill="none" stroke="white" stroke-width="1.5" pointer-events="none"/>
  </g>
  <g id="arrowUp" transform="translate(30 24)">
    <use xlink:href="#rim"/>
    <path pointer-events="none" fill="none" stroke="white" stroke-width="1.5" d="M0,-3.0v7 M-2.5,-0.5L0,-3.0L2.5,-0.5"/>
  </g>
  <g id="arrowRight" transform="rotate(90) translate(36 -43)">
    <use xlink:href="#rim"/>
    <path pointer-events="none" fill="none" stroke="white" stroke-width="1.5" d="M0,-3.0v7 M-2.5,-0.5L0,-3.0L2.5,-0.5"/>
  </g>
  <g id="arrowDown" transform="rotate(180) translate(-30 -48)">
    <use xlink:href="#rim"/>
    <path pointer-events="none" fill="none" stroke="white" stroke-width="1.5" d="M0,-3.0v7 M-2.5,-0.5L0,-3.0L2.5,-0.5"/>
  </g>
  <g id="arrowLeft" transform="rotate(270) translate(-36 17)">
    <use xlink:href="#rim"/>
    <path pointer-events="none" fill="none" stroke="white" stroke-width="1.5" d="M0,-3.0v7 M-2.5,-0.5L0,-3.0L2.5,-0.5"/>
  </g>
  <g id="resetDef">
    <use xlink:href="#rim2" fill="#404040"><set attributeName="fill" to="#808080" begin="reset.mouseover" end="reset.mouseout"/></use>
  </g>
</defs>
<script type="application/ecmascript">
var viewWidth = 461;
var viewHeight = 696;
var sectionId = 'dynsection-0';
</script>
<script type="application/ecmascript" xlink:href="svg.min.js"/>
<svg id="graph" class="graph">
<g id="viewport">
<title>TramposoLibrary::Sprite</title>
<!-- Node1 -->
<g id="Node000001" class="node">
<title>Node1</title>
<g id="a_Node000001"><a xlink:title="Represents a game object that can be rendered to the screen.">
<polygon fill="#999999" stroke="none" points="383.5,-588 269.5,-588 269.5,-424 383.5,-424 383.5,-588"/>
<text text-anchor="start" x="274.38" y="-574.5" font-family="Helvetica,sans-Serif" font-size="10.00">TramposoLibrary::Sprite</text>
<text text-anchor="start" x="325" y="-558.5" font-family="Helvetica,sans-Serif" font-size="10.00"> </text>
<text text-anchor="start" x="279.5" y="-542.5" font-family="Helvetica,sans-Serif" font-size="10.00">+</text>
<text text-anchor="start" x="295.5" y="-542.5" font-family="Helvetica,sans-Serif" font-size="10.00">addComponent()</text>
<text text-anchor="start" x="279.5" y="-526.5" font-family="Helvetica,sans-Serif" font-size="10.00">+</text>
<text text-anchor="start" x="295.5" y="-526.5" font-family="Helvetica,sans-Serif" font-size="10.00">getComponent()</text>
<text text-anchor="start" x="279.5" y="-510.5" font-family="Helvetica,sans-Serif" font-size="10.00">+</text>
<text text-anchor="start" x="295.5" y="-510.5" font-family="Helvetica,sans-Serif" font-size="10.00">getRect()</text>
<text text-anchor="start" x="279.5" y="-494.5" font-family="Helvetica,sans-Serif" font-size="10.00">+</text>
<text text-anchor="start" x="295.5" y="-494.5" font-family="Helvetica,sans-Serif" font-size="10.00">render()</text>
<text text-anchor="start" x="279.5" y="-478.5" font-family="Helvetica,sans-Serif" font-size="10.00">+</text>
<text text-anchor="start" x="295.5" y="-478.5" font-family="Helvetica,sans-Serif" font-size="10.00">setPosition()</text>
<text text-anchor="start" x="279.5" y="-462.5" font-family="Helvetica,sans-Serif" font-size="10.00">+</text>
<text text-anchor="start" x="295.5" y="-462.5" font-family="Helvetica,sans-Serif" font-size="10.00">Sprite()</text>
<text text-anchor="start" x="279.5" y="-446.5" font-family="Helvetica,sans-Serif" font-size="10.00">+</text>
<text text-anchor="start" x="295.5" y="-446.5" font-family="Helvetica,sans-Serif" font-size="10.00">update()</text>
<text text-anchor="start" x="279.5" y="-430.5" font-family="Helvetica,sans-Serif" font-size="10.00">+</text>
<text text-anchor="start" x="295.5" y="-430.5" font-family="Helvetica,sans-Serif" font-size="10.00">~Sprite()</text>
<polygon fill="#666666" stroke="#666666" points="269.5,-570 269.5,-570 383.5,-570 383.5,-570 269.5,-570"/>
<polygon fill="#666666" stroke="#666666" points="269.5,-554 269.5,-554 383.5,-554 383.5,-554 269.5,-554"/>
<polygon fill="none" stroke="#666666" points="269.5,-424 269.5,-588 383.5,-588 383.5,-424 269.5,-424"/>
</a>
</g>
</g>
<!-- Node7 -->
<g id="Node000007" class="node">
<title>Node7</title>
<g id="a_Node000007"><a xlink:href="class_tramposo_library_1_1_component.html" target="_top" xlink:title=" ">
<polygon fill="white" stroke="none" points="330,-376 191,-376 191,-276 330,-276 330,-376"/>
<text text-anchor="start" x="196" y="-362.5" font-family="Helvetica,sans-Serif" font-size="10.00">TramposoLibrary::Component</text>
<text text-anchor="start" x="259" y="-346.5" font-family="Helvetica,sans-Serif" font-size="10.00"> </text>
<text text-anchor="start" x="209.5" y="-330.5" font-family="Helvetica,sans-Serif" font-size="10.00">+</text>
<text text-anchor="start" x="234" y="-330.5" font-family="Helvetica,sans-Serif" font-size="10.00">Component()</text>
<text text-anchor="start" x="209.5" y="-314.5" font-family="Helvetica,sans-Serif" font-size="10.00">+</text>
<text text-anchor="start" x="234" y="-314.5" font-family="Helvetica,sans-Serif" font-size="10.00">render()</text>
<text text-anchor="start" x="209.5" y="-298.5" font-family="Helvetica,sans-Serif" font-size="10.00">+</text>
<text text-anchor="start" x="234" y="-298.5" font-family="Helvetica,sans-Serif" font-size="10.00">update()</text>
<text text-anchor="start" x="209.5" y="-282.5" font-family="Helvetica,sans-Serif" font-size="10.00">+</text>
<text text-anchor="start" x="234" y="-282.5" font-family="Helvetica,sans-Serif" font-size="10.00">~Component()</text>
<polygon fill="#666666" stroke="#666666" points="191,-358 191,-358 330,-358 330,-358 191,-358"/>
<polygon fill="#666666" stroke="#666666" points="191,-342 191,-342 330,-342 330,-342 191,-342"/>
<polygon fill="none" stroke="#666666" points="191,-276 191,-376 330,-376 330,-276 191,-276"/>
</a>
</g>
</g>
<!-- Node1&#45;&gt;Node7 -->
<g id="edge7_Node000007_Node000001" class="edge">
<title>Node1&#45;&gt;Node7</title>
<g id="a_edge7_Node000007_Node000001"><a xlink:title=" ">
<path fill="none" stroke="#63b8ff" d="M296.49,-424.07C291.94,-411.8 287.32,-399.33 282.97,-387.59"/>
<polygon fill="none" stroke="#63b8ff" points="283.03,-387.76 277.19,-383.52 278.86,-376.51 284.69,-380.74 283.03,-387.76"/>
</a>
</g>
<text text-anchor="middle" x="313.55" y="-396.5" font-family="Helvetica,sans-Serif" font-size="10.00" fill="grey"> #m_owner</text>
</g>
<!-- Node2 -->
<g id="Node000002" class="node">
<title>Node2</title>
<g id="a_Node000002"><a xlink:title=" ">
<polygon fill="white" stroke="none" points="281,-688 208,-688 208,-636 281,-636 281,-688"/>
<text text-anchor="start" x="212.62" y="-674.5" font-family="Helvetica,sans-Serif" font-size="10.00">SDL_Texture *</text>
<text text-anchor="start" x="243" y="-658.5" font-family="Helvetica,sans-Serif" font-size="10.00"> </text>
<text text-anchor="start" x="243" y="-642.5" font-family="Helvetica,sans-Serif" font-size="10.00"> </text>
<polygon fill="#666666" stroke="#666666" points="208,-670 208,-670 281,-670 281,-670 208,-670"/>
<polygon fill="#666666" stroke="#666666" points="208,-654 208,-654 281,-654 281,-654 208,-654"/>
<polygon fill="none" stroke="#666666" points="208,-636 208,-688 281,-688 281,-636 208,-636"/>
</a>
</g>
</g>
<!-- Node2&#45;&gt;Node1 -->
<g id="edge1_Node000001_Node000002" class="edge">
<title>Node2&#45;&gt;Node1</title>
<g id="a_edge1_Node000001_Node000002"><a xlink:title=" ">
<path fill="none" stroke="#63b8ff" d="M255.91,-636.18C260.39,-626.67 265.68,-615.76 270.75,-606 271.91,-603.77 273.09,-601.51 274.29,-599.24"/>
<polygon fill="none" stroke="#63b8ff" points="274.33,-599.17 273.63,-592 279.99,-588.59 280.69,-595.77 274.33,-599.17"/>
</a>
</g>
<text text-anchor="middle" x="296.62" y="-608.5" font-family="Helvetica,sans-Serif" font-size="10.00" fill="grey"> #m_texture</text>
</g>
<!-- Node3 -->
<g id="Node000003" class="node">
<title>Node3</title>
<g id="a_Node000003"><a xlink:title=" ">
<polygon fill="white" stroke="none" points="354,-688 299,-688 299,-636 354,-636 354,-688"/>
<text text-anchor="start" x="303.62" y="-674.5" font-family="Helvetica,sans-Serif" font-size="10.00">SDL_Rect</text>
<text text-anchor="start" x="325" y="-658.5" font-family="Helvetica,sans-Serif" font-size="10.00"> </text>
<text text-anchor="start" x="325" y="-642.5" font-family="Helvetica,sans-Serif" font-size="10.00"> </text>
<polygon fill="#666666" stroke="#666666" points="299,-670 299,-670 354,-670 354,-670 299,-670"/>
<polygon fill="#666666" stroke="#666666" points="299,-654 299,-654 354,-654 354,-654 299,-654"/>
<polygon fill="none" stroke="#666666" points="299,-636 299,-688 354,-688 354,-636 299,-636"/>
</a>
</g>
</g>
<!-- Node3&#45;&gt;Node1 -->
<g id="edge2_Node000001_Node000003" class="edge">
<title>Node3&#45;&gt;Node1</title>
<g id="a_edge2_Node000001_Node000003"><a xlink:title=" ">
<path fill="none" stroke="#63b8ff" d="M326.5,-636.26C326.5,-626.14 326.5,-613.75 326.5,-600.68"/>
<polygon fill="none" stroke="#63b8ff" points="326.5,-600.9 322.5,-594.9 326.5,-588.9 330.5,-594.9 326.5,-600.9"/>
</a>
</g>
<text text-anchor="middle" x="345.62" y="-608.5" font-family="Helvetica,sans-Serif" font-size="10.00" fill="grey"> #m_rect</text>
</g>
<!-- Node4 -->
<g id="Node000004" class="node">
<title>Node4</title>
<g id="a_Node000004"><a xlink:title=" ">
<polygon fill="white" stroke="none" points="453,-688 372,-688 372,-636 453,-636 453,-688"/>
<text text-anchor="start" x="376.88" y="-674.5" font-family="Helvetica,sans-Serif" font-size="10.00">SDL_Renderer *</text>
<text text-anchor="start" x="411" y="-658.5" font-family="Helvetica,sans-Serif" font-size="10.00"> </text>
<text text-anchor="start" x="411" y="-642.5" font-family="Helvetica,sans-Serif" font-size="10.00"> </text>
<polygon fill="#666666" stroke="#666666" points="372,-670 372,-670 453,-670 453,-670 372,-670"/>
<polygon fill="#666666" stroke="#666666" points="372,-654 372,-654 453,-654 453,-654 372,-654"/>
<polygon fill="none" stroke="#666666" points="372,-636 372,-688 453,-688 453,-636 372,-636"/>
</a>
</g>
</g>
<!-- Node4&#45;&gt;Node1 -->
<g id="edge3_Node000001_Node000004" class="edge">
<title>Node4&#45;&gt;Node1</title>
<g id="a_edge3_Node000001_Node000004"><a xlink:title=" ">
<path fill="none" stroke="#63b8ff" d="M398.68,-636.26C392.8,-625.72 385.54,-612.72 377.91,-599.06"/>
<polygon fill="none" stroke="#63b8ff" points="378.02,-599.26 371.6,-595.97 372.17,-588.78 378.59,-592.07 378.02,-599.26"/>
</a>
</g>
<text text-anchor="middle" x="415.59" y="-608.5" font-family="Helvetica,sans-Serif" font-size="10.00" fill="grey"> #m_renderer</text>
</g>
<!-- Node5 -->
<g id="Node000005" class="node">
<title>Node5</title>
<g id="a_Node000005"><a xlink:title=" ">
<polygon fill="white" stroke="none" points="321,-76 208,-76 208,0 321,0 321,-76"/>
<text text-anchor="start" x="212.75" y="-62.5" font-family="Helvetica,sans-Serif" font-size="10.00">std::vector&lt; std::unique</text>
<text text-anchor="start" x="212.75" y="-50.5" font-family="Helvetica,sans-Serif" font-size="10.00">_ptr&lt; TramposoLibrary::</text>
<text text-anchor="start" x="230.38" y="-38.5" font-family="Helvetica,sans-Serif" font-size="10.00">Component &gt; &gt;</text>
<text text-anchor="start" x="263" y="-22.5" font-family="Helvetica,sans-Serif" font-size="10.00"> </text>
<text text-anchor="start" x="263" y="-6.5" font-family="Helvetica,sans-Serif" font-size="10.00"> </text>
<polygon fill="#666666" stroke="#666666" points="208,-34 208,-34 321,-34 321,-34 208,-34"/>
<polygon fill="#666666" stroke="#666666" points="208,-18 208,-18 321,-18 321,-18 208,-18"/>
<polygon fill="none" stroke="#666666" points="208,0 208,-76 321,-76 321,0 208,0"/>
</a>
</g>
</g>
<!-- Node5&#45;&gt;Node1 -->
<g id="edge4_Node000001_Node000005" class="edge">
<title>Node5&#45;&gt;Node1</title>
<g id="a_edge4_Node000001_Node000005"><a xlink:title=" ">
<path fill="none" stroke="#63b8ff" d="M307.07,-75.85C319.45,-89.48 331.1,-106.04 336.5,-124 365.02,-218.84 356.78,-333.01 345.01,-411.49"/>
<polygon fill="none" stroke="#63b8ff" points="345,-411.51 348.03,-418.06 343.15,-423.37 340.12,-416.83 345,-411.51"/>
</a>
</g>
<text text-anchor="middle" x="393.18" y="-228.5" font-family="Helvetica,sans-Serif" font-size="10.00" fill="grey"> #m_components</text>
</g>
<!-- Node6 -->
<g id="Node000006" class="node">
<title>Node6</title>
<g id="a_Node000006"><a xlink:title=" ">
<polygon fill="white" stroke="none" points="327.5,-188 201.5,-188 201.5,-124 327.5,-124 327.5,-188"/>
<text text-anchor="start" x="206.38" y="-174.5" font-family="Helvetica,sans-Serif" font-size="10.00">std::unique_ptr&lt; Tramposo</text>
<text text-anchor="start" x="217.25" y="-162.5" font-family="Helvetica,sans-Serif" font-size="10.00">Library::Component &gt;</text>
<text text-anchor="start" x="263" y="-146.5" font-family="Helvetica,sans-Serif" font-size="10.00"> </text>
<text text-anchor="start" x="220" y="-130.5" font-family="Helvetica,sans-Serif" font-size="10.00">+</text>
<text text-anchor="start" x="244.5" y="-130.5" font-family="Helvetica,sans-Serif" font-size="10.00">operator&#45;&gt;()</text>
<polygon fill="#666666" stroke="#666666" points="201.5,-158 201.5,-158 327.5,-158 327.5,-158 201.5,-158"/>
<polygon fill="#666666" stroke="#666666" points="201.5,-142 201.5,-142 327.5,-142 327.5,-142 201.5,-142"/>
<polygon fill="none" stroke="#666666" points="201.5,-124 201.5,-188 327.5,-188 327.5,-124 201.5,-124"/>
</a>
</g>
</g>
<!-- Node6&#45;&gt;Node5 -->
<g id="edge5_Node000005_Node000006" class="edge">
<title>Node6&#45;&gt;Node5</title>
<g id="a_edge5_Node000005_Node000006"><a xlink:title=" ">
<path fill="none" stroke="#63b8ff" d="M264.5,-124.22C264.5,-113.28 264.5,-100.66 264.5,-88.55"/>
<polygon fill="none" stroke="#63b8ff" points="264.5,-88.61 260.5,-82.61 264.5,-76.61 268.5,-82.61 264.5,-88.61"/>
</a>
</g>
<text text-anchor="middle" x="288.88" y="-96.5" font-family="Helvetica,sans-Serif" font-size="10.00" fill="grey"> +elements</text>
</g>
<!-- Node7&#45;&gt;Node6 -->
<g id="edge6_Node000006_Node000007" class="edge">
<title>Node7&#45;&gt;Node6</title>
<g id="a_edge6_Node000006_Node000007"><a xlink:title=" ">
<path fill="none" stroke="#63b8ff" d="M261.66,-276.41C262.23,-252.51 262.91,-223.93 263.46,-200.73"/>
<polygon fill="none" stroke="#63b8ff" points="263.46,-200.66 259.6,-194.56 263.75,-188.66 267.6,-194.76 263.46,-200.66"/>
</a>
</g>
<text text-anchor="middle" x="273.44" y="-228.5" font-family="Helvetica,sans-Serif" font-size="10.00" fill="grey"> +ptr</text>
</g>
<!-- Node8 -->
<g id="Node000008" class="node">
<title>Node8</title>
<g id="a_Node000008"><a xlink:title=" ">
<polygon fill="white" stroke="none" points="171,-352 74,-352 74,-300 171,-300 171,-352"/>
<text text-anchor="start" x="78.62" y="-338.5" font-family="Helvetica,sans-Serif" font-size="10.00">std::unique_ptr&lt; T &gt;</text>
<text text-anchor="start" x="121" y="-322.5" font-family="Helvetica,sans-Serif" font-size="10.00"> </text>
<text text-anchor="start" x="85" y="-306.5" font-family="Helvetica,sans-Serif" font-size="10.00">+</text>
<text text-anchor="start" x="102" y="-306.5" font-family="Helvetica,sans-Serif" font-size="10.00">operator&#45;&gt;()</text>
<polygon fill="#666666" stroke="#666666" points="74,-334 74,-334 171,-334 171,-334 74,-334"/>
<polygon fill="#666666" stroke="#666666" points="74,-318 74,-318 171,-318 171,-318 74,-318"/>
<polygon fill="none" stroke="#666666" points="74,-300 74,-352 171,-352 171,-300 74,-300"/>
</a>
</g>
</g>
<!-- Node8&#45;&gt;Node6 -->
<g id="edge8_Node000006_Node000008" class="edge">
<title>Node8&#45;&gt;Node6</title>
<g id="a_edge8_Node000006_Node000008"><a xlink:title=" ">
<path fill="none" stroke="orange" d="M129.18,-289.24C135.55,-263.52 147.4,-229.39 168.5,-206 177.77,-195.72 189.71,-187.28 201.99,-180.49"/>
<polygon fill="orange" stroke="orange" points="125.78,-288.39 126.96,-298.92 132.61,-289.95 125.78,-288.39"/>
</a>
</g>
<text text-anchor="start" x="168.5" y="-234.5" font-family="Helvetica,sans-Serif" font-size="10.00" fill="grey"> &lt; TramposoLibrary::</text>
<text text-anchor="middle" x="213.5" y="-222.5" font-family="Helvetica,sans-Serif" font-size="10.00" fill="grey">Component &gt;</text>
</g>
<!-- Node9 -->
<g id="Node000009" class="node">
<title>Node9</title>
<g id="a_Node000009"><a xlink:title=" ">
<polygon fill="white" stroke="none" points="88.5,-532 72.5,-532 72.5,-480 88.5,-480 88.5,-532"/>
<text text-anchor="start" x="77.5" y="-518.5" font-family="Helvetica,sans-Serif" font-size="10.00">T</text>
<text text-anchor="start" x="79" y="-502.5" font-family="Helvetica,sans-Serif" font-size="10.00"> </text>
<text text-anchor="start" x="79" y="-486.5" font-family="Helvetica,sans-Serif" font-size="10.00"> </text>
<polygon fill="#666666" stroke="#666666" points="72.5,-514 72.5,-514 88.5,-514 88.5,-514 72.5,-514"/>
<polygon fill="#666666" stroke="#666666" points="72.5,-498 72.5,-498 88.5,-498 88.5,-498 72.5,-498"/>
<polygon fill="none" stroke="#666666" points="72.5,-480 72.5,-532 88.5,-532 88.5,-480 72.5,-480"/>
</a>
</g>
</g>
<!-- Node9&#45;&gt;Node8 -->
<g id="edge9_Node000008_Node000009" class="edge">
<title>Node9&#45;&gt;Node8</title>
<g id="a_edge9_Node000008_Node000009"><a xlink:title=" ">
<path fill="none" stroke="#63b8ff" d="M86.34,-480.25C93.44,-450.18 105.47,-399.16 113.7,-364.31"/>
<polygon fill="none" stroke="#63b8ff" points="113.68,-364.38 111.16,-357.62 116.44,-352.7 118.95,-359.46 113.68,-364.38"/>
</a>
</g>
<text text-anchor="middle" x="116.62" y="-396.5" font-family="Helvetica,sans-Serif" font-size="10.00" fill="grey"> +ptr</text>
</g>
<!-- Node10 -->
<g id="Node000010" class="node">
<title>Node10</title>
<g id="a_Node000010"><a xlink:title=" ">
<polygon fill="white" stroke="none" points="79,-258 0,-258 0,-206 79,-206 79,-258"/>
<text text-anchor="start" x="4.62" y="-244.5" font-family="Helvetica,sans-Serif" font-size="10.00">std::vector&lt; T &gt;</text>
<text text-anchor="start" x="38" y="-228.5" font-family="Helvetica,sans-Serif" font-size="10.00"> </text>
<text text-anchor="start" x="38" y="-212.5" font-family="Helvetica,sans-Serif" font-size="10.00"> </text>
<polygon fill="#666666" stroke="#666666" points="0,-240 0,-240 79,-240 79,-240 0,-240"/>
<polygon fill="#666666" stroke="#666666" points="0,-224 0,-224 79,-224 79,-224 0,-224"/>
<polygon fill="none" stroke="#666666" points="0,-206 0,-258 79,-258 79,-206 0,-206"/>
</a>
</g>
</g>
<!-- Node9&#45;&gt;Node10 -->
<g id="edge11_Node000010_Node000009" class="edge">
<title>Node9&#45;&gt;Node10</title>
<g id="a_edge11_Node000010_Node000009"><a xlink:title=" ">
<path fill="none" stroke="#63b8ff" d="M72.62,-482.91C65.89,-463.05 56.56,-432.96 51.75,-406 43.53,-359.94 40.77,-306.07 39.88,-270.83"/>
<polygon fill="none" stroke="#63b8ff" points="39.88,-270.74 35.76,-264.82 39.63,-258.74 43.75,-264.66 39.88,-270.74"/>
</a>
</g>
<text text-anchor="middle" x="76.12" y="-396.5" font-family="Helvetica,sans-Serif" font-size="10.00" fill="grey"> +elements</text>
</g>
<!-- Node10&#45;&gt;Node5 -->
<g id="edge10_Node000005_Node000010" class="edge">
<title>Node10&#45;&gt;Node5</title>
<g id="a_edge10_Node000005_Node000010"><a xlink:title=" ">
<path fill="none" stroke="orange" d="M31.37,-194.92C28.44,-172.52 28.82,-144.23 43.25,-124 80.88,-71.24 155.95,-51.22 208.15,-43.63"/>
<polygon fill="orange" stroke="orange" points="27.87,-195.21 32.91,-204.54 34.78,-194.11 27.87,-195.21"/>
</a>
</g>
<text text-anchor="start" x="43.25" y="-158.5" font-family="Helvetica,sans-Serif" font-size="10.00" fill="grey"> &lt; std::unique_ptr&lt;</text>
<text text-anchor="middle" x="117.88" y="-146.5" font-family="Helvetica,sans-Serif" font-size="10.00" fill="grey"> TramposoLibrary::Component &gt; &gt;</text>
</g>
</g>
</svg>

<g id="navigator" transform="translate(0 0)" fill="#404254">
  <rect fill="#f2f5e9" fill-opacity="0.5" stroke="#606060" stroke-width=".5" x="0" y="0" width="60" height="60"/>
  <use id="zoomplus" xlink:href="#zoomPlus" x="17" y="9" onmousedown="handleZoom(evt,'in')"/>
  <use id="zoomminus" xlink:href="#zoomMin" x="42" y="9" onmousedown="handleZoom(evt,'out')"/>
  <use id="reset" xlink:href="#resetDef" x="30" y="36" onmousedown="handleReset()"/>
   <use id="arrowup" xlink:href="#arrowUp" x="0" y="0" onmousedown="handlePan(0,-1)"/>
  <use id="arrowright" xlink:href="#arrowRight" x="0" y="0" onmousedown="handlePan(1,0)"/>
  <use id="arrowdown" xlink:href="#arrowDown" x="0" y="0" onmousedown="handlePan(0,1)"/>
  <use id="arrowleft" xlink:href="#arrowLeft" x="0" y="0" onmousedown="handlePan(-1,0)"/>
</g>
<svg viewBox="0 0 15 15" width="100%" height="30px" preserveAspectRatio="xMaxYMin meet">
 <g id="arrow_out" transform="scale(0.3 0.3)">
  <a xlink:href="class_tramposo_library_1_1_sprite__coll__graph_org.svg" target="_base">
   <rect id="button" ry="5" rx="5" y="6" x="6" height="38" width="38"
        fill="#f2f5e9" fill-opacity="0.5" stroke="#606060" stroke-width="1.0"/>
   <path id="arrow"
     d="M 11.500037,31.436501 C 11.940474,20.09759 22.043105,11.32322 32.158766,21.979434 L 37.068811,17.246167 C 37.068811,17.246167 37.088388,32 37.088388,32 L 22.160133,31.978069 C 22.160133,31.978069 26.997745,27.140456 26.997745,27.140456 C 18.528582,18.264221 13.291696,25.230495 11.500037,31.436501 z"
     style="fill:#404040;"/>
  </a>
 </g>
</svg>

<style type='text/css'>
<![CDATA[
[data-mouse-over-selected='false'] { opacity: 0.7; }
[data-mouse-over-selected='true']  { opacity: 1.0; }
]]>
</style>
<script type="application/ecmascript"><![CDATA[
document.addEventListener('DOMContentLoaded', (event) => {
  highlightEdges();
  highlightAdjacentNodes();
});
]]></script>
</svg>
