<?xml version="1.0" encoding="UTF-8" standalone="no"?>
<!DOCTYPE svg PUBLIC "-//W3C//DTD SVG 1.1//EN"
 "http://www.w3.org/Graphics/SVG/1.1/DTD/svg11.dtd">
<!-- Generated by graphviz version 12.1.0 (20240811.2233)
 -->
<!-- Title: TramposoLibrary::CollisionManager Pages: 1 -->
<!--zoomable 484 -->

<svg id="main" version="1.1" xmlns="http://www.w3.org/2000/svg" xmlns:xlink="http://www.w3.org/1999/xlink" xml:space="preserve" onload="init(evt)">

<style type="text/css"><![CDATA[
.node, .edge {opacity: 0.7;}
.node.selected, .edge.selected {opacity: 1;}
.edge:hover path { stroke: red; }
.edge:hover polygon { stroke: red; fill: red; }
]]></style>

<defs>
  <circle id="rim" cx="0" cy="0" r="7"/>
  <circle id="rim2" cx="0" cy="0" r="3.5"/>
  <g id="zoomPlus">
    <use xlink:href="#rim" fill="#404040"><set attributeName="fill" to="#808080" begin="zoomplus.mouseover" end="zoomplus.mouseout"/></use>
    <path d="M-4,0h8M0,-4v8" fill="none" stroke="white" stroke-width="1.5" pointer-events="none"/>
  </g>
  <g id="zoomMin">
    <use xlink:href="#rim" fill="#404040"><set attributeName="fill" to="#808080" begin="zoomminus.mouseover" end="zoomminus.mouseout"/></use>
    <path d="M-4,0h8" fill="none" stroke="white" stroke-width="1.5" pointer-events="none"/>
  </g>
  <g id="arrowUp" transform="translate(30 24)">
    <use xlink:href="#rim"/>
    <path pointer-events="none" fill="none" stroke="white" stroke-width="1.5" d="M0,-3.0v7 M-2.5,-0.5L0,-3.0L2.5,-0.5"/>
  </g>
  <g id="arrowRight" transform="rotate(90) translate(36 -43)">
    <use xlink:href="#rim"/>
    <path pointer-events="none" fill="none" stroke="white" stroke-width="1.5" d="M0,-3.0v7 M-2.5,-0.5L0,-3.0L2.5,-0.5"/>
  </g>
  <g id="arrowDown" transform="rotate(180) translate(-30 -48)">
    <use xlink:href="#rim"/>
    <path pointer-events="none" fill="none" stroke="white" stroke-width="1.5" d="M0,-3.0v7 M-2.5,-0.5L0,-3.0L2.5,-0.5"/>
  </g>
  <g id="arrowLeft" transform="rotate(270) translate(-36 17)">
    <use xlink:href="#rim"/>
    <path pointer-events="none" fill="none" stroke="white" stroke-width="1.5" d="M0,-3.0v7 M-2.5,-0.5L0,-3.0L2.5,-0.5"/>
  </g>
  <g id="resetDef">
    <use xlink:href="#rim2" fill="#404040"><set attributeName="fill" to="#808080" begin="reset.mouseover" end="reset.mouseout"/></use>
  </g>
</defs>
<script type="application/ecmascript">
var viewWidth = 281;
var viewHeight = 484;
var sectionId = 'dynsection-0';
</script>
<script type="application/ecmascript" xlink:href="svg.min.js"/>
<svg id="graph" class="graph">
<g id="viewport">
<title>TramposoLibrary::CollisionManager</title>
<!-- Node1 -->
<g id="Node000001" class="node">
<title>Node1</title>
<g id="a_Node000001"><a xlink:title=" ">
<polygon fill="#999999" stroke="none" points="179,-128 53,-128 53,0 179,0 179,-128"/>
<text text-anchor="start" x="57.88" y="-114.5" font-family="Helvetica,sans-Serif" font-size="10.00">TramposoLibrary::Collision</text>
<text text-anchor="start" x="97.25" y="-102.5" font-family="Helvetica,sans-Serif" font-size="10.00">Manager</text>
<text text-anchor="start" x="114.5" y="-86.5" font-family="Helvetica,sans-Serif" font-size="10.00"> </text>
<text text-anchor="start" x="65" y="-70.5" font-family="Helvetica,sans-Serif" font-size="10.00">+</text>
<text text-anchor="start" x="83" y="-70.5" font-family="Helvetica,sans-Serif" font-size="10.00">addCollider()</text>
<text text-anchor="start" x="65" y="-54.5" font-family="Helvetica,sans-Serif" font-size="10.00">+</text>
<text text-anchor="start" x="83" y="-54.5" font-family="Helvetica,sans-Serif" font-size="10.00">checkCollision()</text>
<text text-anchor="start" x="65" y="-38.5" font-family="Helvetica,sans-Serif" font-size="10.00">+</text>
<text text-anchor="start" x="83" y="-38.5" font-family="Helvetica,sans-Serif" font-size="10.00">checkCollisions()</text>
<text text-anchor="start" x="65" y="-22.5" font-family="Helvetica,sans-Serif" font-size="10.00">+</text>
<text text-anchor="start" x="83" y="-22.5" font-family="Helvetica,sans-Serif" font-size="10.00">removeCollider()</text>
<text text-anchor="start" x="65" y="-6.5" font-family="Helvetica,sans-Serif" font-size="10.00">+</text>
<text text-anchor="start" x="83" y="-6.5" font-family="Helvetica,sans-Serif" font-size="10.00">updateCollider()</text>
<polygon fill="#666666" stroke="#666666" points="53,-98 53,-98 179,-98 179,-98 53,-98"/>
<polygon fill="#666666" stroke="#666666" points="53,-82 53,-82 179,-82 179,-82 53,-82"/>
<polygon fill="none" stroke="#666666" points="53,0 53,-128 179,-128 179,0 53,0"/>
</a>
</g>
</g>
<!-- Node2 -->
<g id="Node000002" class="node">
<title>Node2</title>
<g id="a_Node000002"><a xlink:title=" ">
<polygon fill="white" stroke="none" points="177.5,-240 54.5,-240 54.5,-176 177.5,-176 177.5,-240"/>
<text text-anchor="start" x="59.38" y="-226.5" font-family="Helvetica,sans-Serif" font-size="10.00">std::unordered_map</text>
<text text-anchor="start" x="59.38" y="-214.5" font-family="Helvetica,sans-Serif" font-size="10.00">&lt; std::string, SDL_Rect &gt;</text>
<text text-anchor="start" x="114.5" y="-198.5" font-family="Helvetica,sans-Serif" font-size="10.00"> </text>
<text text-anchor="start" x="114.5" y="-182.5" font-family="Helvetica,sans-Serif" font-size="10.00"> </text>
<polygon fill="#666666" stroke="#666666" points="54.5,-210 54.5,-210 177.5,-210 177.5,-210 54.5,-210"/>
<polygon fill="#666666" stroke="#666666" points="54.5,-194 54.5,-194 177.5,-194 177.5,-194 54.5,-194"/>
<polygon fill="none" stroke="#666666" points="54.5,-176 54.5,-240 177.5,-240 177.5,-176 54.5,-176"/>
</a>
</g>
</g>
<!-- Node2&#45;&gt;Node1 -->
<g id="edge1_Node000001_Node000002" class="edge">
<title>Node2&#45;&gt;Node1</title>
<g id="a_edge1_Node000001_Node000002"><a xlink:title=" ">
<path fill="none" stroke="#63b8ff" d="M116,-176.19C116,-165.65 116,-153.36 116,-140.87"/>
<polygon fill="none" stroke="#63b8ff" points="116,-140.74 112,-134.74 116,-128.74 120,-134.74 116,-140.74"/>
</a>
</g>
<text text-anchor="middle" x="143.75" y="-148.5" font-family="Helvetica,sans-Serif" font-size="10.00" fill="grey"> &#45;m_colliders</text>
</g>
<!-- Node3 -->
<g id="Node000003" class="node">
<title>Node3</title>
<g id="a_Node000003"><a xlink:title=" ">
<polygon fill="white" stroke="none" points="70.5,-358 17.5,-358 17.5,-306 70.5,-306 70.5,-358"/>
<text text-anchor="start" x="22.25" y="-344.5" font-family="Helvetica,sans-Serif" font-size="10.00">std::string</text>
<text text-anchor="start" x="42.5" y="-328.5" font-family="Helvetica,sans-Serif" font-size="10.00"> </text>
<text text-anchor="start" x="42.5" y="-312.5" font-family="Helvetica,sans-Serif" font-size="10.00"> </text>
<polygon fill="#666666" stroke="#666666" points="17.5,-340 17.5,-340 70.5,-340 70.5,-340 17.5,-340"/>
<polygon fill="#666666" stroke="#666666" points="17.5,-324 17.5,-324 70.5,-324 70.5,-324 17.5,-324"/>
<polygon fill="none" stroke="#666666" points="17.5,-306 17.5,-358 70.5,-358 70.5,-306 17.5,-306"/>
</a>
</g>
</g>
<!-- Node3&#45;&gt;Node2 -->
<g id="edge2_Node000002_Node000003" class="edge">
<title>Node3&#45;&gt;Node2</title>
<g id="a_edge2_Node000002_Node000003"><a xlink:title=" ">
<path fill="none" stroke="#63b8ff" d="M55.91,-306.24C63.05,-291.91 72.55,-273.66 82,-258 83.46,-255.59 84.99,-253.13 86.56,-250.68"/>
<polygon fill="none" stroke="#63b8ff" points="86.52,-250.74 86.49,-243.53 93.13,-240.73 93.16,-247.94 86.52,-250.74"/>
</a>
</g>
<text text-anchor="middle" x="97" y="-266.5" font-family="Helvetica,sans-Serif" font-size="10.00" fill="grey"> +keys</text>
</g>
<!-- Node4 -->
<g id="Node000004" class="node">
<title>Node4</title>
<g id="a_Node000004"><a xlink:title=" ">
<polygon fill="white" stroke="none" points="88,-476 0,-476 0,-412 88,-412 88,-476"/>
<text text-anchor="start" x="5" y="-462.5" font-family="Helvetica,sans-Serif" font-size="10.00">std::basic_string&lt;</text>
<text text-anchor="start" x="27.5" y="-450.5" font-family="Helvetica,sans-Serif" font-size="10.00"> Char &gt;</text>
<text text-anchor="start" x="42.5" y="-434.5" font-family="Helvetica,sans-Serif" font-size="10.00"> </text>
<text text-anchor="start" x="42.5" y="-418.5" font-family="Helvetica,sans-Serif" font-size="10.00"> </text>
<polygon fill="#666666" stroke="#666666" points="0,-446 0,-446 88,-446 88,-446 0,-446"/>
<polygon fill="#666666" stroke="#666666" points="0,-430 0,-430 88,-430 88,-430 0,-430"/>
<polygon fill="none" stroke="#666666" points="0,-412 0,-476 88,-476 88,-412 0,-412"/>
</a>
</g>
</g>
<!-- Node4&#45;&gt;Node3 -->
<g id="edge3_Node000003_Node000004" class="edge">
<title>Node4&#45;&gt;Node3</title>
<g id="a_edge3_Node000003_Node000004"><a xlink:title=" ">
<path fill="none" stroke="#63b8ff" d="M44,-400.77C44,-386.25 44,-370.47 44,-357.79"/>
<polygon fill="none" stroke="#63b8ff" points="40.5,-400.55 44,-410.55 47.5,-400.55 40.5,-400.55"/>
</a>
</g>
</g>
<!-- Node5 -->
<g id="Node000005" class="node">
<title>Node5</title>
<g id="a_Node000005"><a xlink:title=" ">
<polygon fill="white" stroke="none" points="143.5,-358 88.5,-358 88.5,-306 143.5,-306 143.5,-358"/>
<text text-anchor="start" x="93.12" y="-344.5" font-family="Helvetica,sans-Serif" font-size="10.00">SDL_Rect</text>
<text text-anchor="start" x="114.5" y="-328.5" font-family="Helvetica,sans-Serif" font-size="10.00"> </text>
<text text-anchor="start" x="114.5" y="-312.5" font-family="Helvetica,sans-Serif" font-size="10.00"> </text>
<polygon fill="#666666" stroke="#666666" points="88.5,-340 88.5,-340 143.5,-340 143.5,-340 88.5,-340"/>
<polygon fill="#666666" stroke="#666666" points="88.5,-324 88.5,-324 143.5,-324 143.5,-324 88.5,-324"/>
<polygon fill="none" stroke="#666666" points="88.5,-306 88.5,-358 143.5,-358 143.5,-306 88.5,-306"/>
</a>
</g>
</g>
<!-- Node5&#45;&gt;Node2 -->
<g id="edge4_Node000002_Node000005" class="edge">
<title>Node5&#45;&gt;Node2</title>
<g id="a_edge4_Node000002_Node000005"><a xlink:title=" ">
<path fill="none" stroke="#63b8ff" d="M116,-306.02C116,-290.61 116,-270.43 116,-252.46"/>
<polygon fill="none" stroke="#63b8ff" points="116,-252.47 112,-246.47 116,-240.47 120,-246.47 116,-252.47"/>
</a>
</g>
<text text-anchor="middle" x="140.38" y="-266.5" font-family="Helvetica,sans-Serif" font-size="10.00" fill="grey"> +elements</text>
</g>
<!-- Node6 -->
<g id="Node000006" class="node">
<title>Node6</title>
<g id="a_Node000006"><a xlink:title=" ">
<polygon fill="white" stroke="none" points="258,-364 162,-364 162,-300 258,-300 258,-364"/>
<text text-anchor="start" x="166.88" y="-350.5" font-family="Helvetica,sans-Serif" font-size="10.00">std::unordered_map</text>
<text text-anchor="start" x="192" y="-338.5" font-family="Helvetica,sans-Serif" font-size="10.00">&lt; K, T &gt;</text>
<text text-anchor="start" x="208.5" y="-322.5" font-family="Helvetica,sans-Serif" font-size="10.00"> </text>
<text text-anchor="start" x="208.5" y="-306.5" font-family="Helvetica,sans-Serif" font-size="10.00"> </text>
<polygon fill="#666666" stroke="#666666" points="162,-334 162,-334 258,-334 258,-334 162,-334"/>
<polygon fill="#666666" stroke="#666666" points="162,-318 162,-318 258,-318 258,-318 162,-318"/>
<polygon fill="none" stroke="#666666" points="162,-300 162,-364 258,-364 258,-300 162,-300"/>
</a>
</g>
</g>
<!-- Node6&#45;&gt;Node2 -->
<g id="edge5_Node000002_Node000006" class="edge">
<title>Node6&#45;&gt;Node2</title>
<g id="a_edge5_Node000002_Node000006"><a xlink:title=" ">
<path fill="none" stroke="orange" d="M190.13,-290.36C184,-279.41 176.79,-267.87 169,-258 164.11,-251.8 158.42,-245.69 152.61,-239.99"/>
<polygon fill="orange" stroke="orange" points="186.88,-291.72 194.72,-298.85 193.04,-288.39 186.88,-291.72"/>
</a>
</g>
<text text-anchor="start" x="184.54" y="-272.5" font-family="Helvetica,sans-Serif" font-size="10.00" fill="grey"> &lt; std::string, SDL</text>
<text text-anchor="middle" x="225.04" y="-260.5" font-family="Helvetica,sans-Serif" font-size="10.00" fill="grey">_Rect &gt;</text>
</g>
<!-- Node7 -->
<g id="Node000007" class="node">
<title>Node7</title>
<g id="a_Node000007"><a xlink:title=" ">
<polygon fill="white" stroke="none" points="191,-470 175,-470 175,-418 191,-418 191,-470"/>
<text text-anchor="start" x="179.62" y="-456.5" font-family="Helvetica,sans-Serif" font-size="10.00">K</text>
<text text-anchor="start" x="181.5" y="-440.5" font-family="Helvetica,sans-Serif" font-size="10.00"> </text>
<text text-anchor="start" x="181.5" y="-424.5" font-family="Helvetica,sans-Serif" font-size="10.00"> </text>
<polygon fill="#666666" stroke="#666666" points="175,-452 175,-452 191,-452 191,-452 175,-452"/>
<polygon fill="#666666" stroke="#666666" points="175,-436 175,-436 191,-436 191,-436 175,-436"/>
<polygon fill="none" stroke="#666666" points="175,-418 175,-470 191,-470 191,-418 175,-418"/>
</a>
</g>
</g>
<!-- Node7&#45;&gt;Node6 -->
<g id="edge6_Node000006_Node000007" class="edge">
<title>Node7&#45;&gt;Node6</title>
<g id="a_edge6_Node000006_Node000007"><a xlink:title=" ">
<path fill="none" stroke="#63b8ff" d="M183.14,-418.05C183.68,-406.88 185.01,-393.63 188,-382 188.51,-380.01 189.1,-378.01 189.74,-376"/>
<polygon fill="none" stroke="#63b8ff" points="189.78,-375.89 188.12,-368.87 193.96,-364.64 195.62,-371.66 189.78,-375.89"/>
</a>
</g>
<text text-anchor="middle" x="203" y="-384.5" font-family="Helvetica,sans-Serif" font-size="10.00" fill="grey"> +keys</text>
</g>
<!-- Node8 -->
<g id="Node000008" class="node">
<title>Node8</title>
<g id="a_Node000008"><a xlink:title=" ">
<polygon fill="white" stroke="none" points="244,-470 228,-470 228,-418 244,-418 244,-470"/>
<text text-anchor="start" x="233" y="-456.5" font-family="Helvetica,sans-Serif" font-size="10.00">T</text>
<text text-anchor="start" x="234.5" y="-440.5" font-family="Helvetica,sans-Serif" font-size="10.00"> </text>
<text text-anchor="start" x="234.5" y="-424.5" font-family="Helvetica,sans-Serif" font-size="10.00"> </text>
<polygon fill="#666666" stroke="#666666" points="228,-452 228,-452 244,-452 244,-452 228,-452"/>
<polygon fill="#666666" stroke="#666666" points="228,-436 228,-436 244,-436 244,-436 228,-436"/>
<polygon fill="none" stroke="#666666" points="228,-418 228,-470 244,-470 244,-418 228,-418"/>
</a>
</g>
</g>
<!-- Node8&#45;&gt;Node6 -->
<g id="edge7_Node000006_Node000008" class="edge">
<title>Node8&#45;&gt;Node6</title>
<g id="a_edge7_Node000006_Node000008"><a xlink:title=" ">
<path fill="none" stroke="#63b8ff" d="M230.1,-418.04C227.19,-405.71 223.59,-390.48 220.24,-376.33"/>
<polygon fill="none" stroke="#63b8ff" points="220.24,-376.31 214.96,-371.39 217.48,-364.63 222.75,-369.55 220.24,-376.31"/>
</a>
</g>
<text text-anchor="middle" x="248.15" y="-384.5" font-family="Helvetica,sans-Serif" font-size="10.00" fill="grey"> +elements</text>
</g>
</g>
</svg>

<g id="navigator" transform="translate(0 0)" fill="#404254">
  <rect fill="#f2f5e9" fill-opacity="0.5" stroke="#606060" stroke-width=".5" x="0" y="0" width="60" height="60"/>
  <use id="zoomplus" xlink:href="#zoomPlus" x="17" y="9" onmousedown="handleZoom(evt,'in')"/>
  <use id="zoomminus" xlink:href="#zoomMin" x="42" y="9" onmousedown="handleZoom(evt,'out')"/>
  <use id="reset" xlink:href="#resetDef" x="30" y="36" onmousedown="handleReset()"/>
   <use id="arrowup" xlink:href="#arrowUp" x="0" y="0" onmousedown="handlePan(0,-1)"/>
  <use id="arrowright" xlink:href="#arrowRight" x="0" y="0" onmousedown="handlePan(1,0)"/>
  <use id="arrowdown" xlink:href="#arrowDown" x="0" y="0" onmousedown="handlePan(0,1)"/>
  <use id="arrowleft" xlink:href="#arrowLeft" x="0" y="0" onmousedown="handlePan(-1,0)"/>
</g>
<svg viewBox="0 0 15 15" width="100%" height="30px" preserveAspectRatio="xMaxYMin meet">
 <g id="arrow_out" transform="scale(0.3 0.3)">
  <a xlink:href="class_tramposo_library_1_1_collision_manager__coll__graph_org.svg" target="_base">
   <rect id="button" ry="5" rx="5" y="6" x="6" height="38" width="38"
        fill="#f2f5e9" fill-opacity="0.5" stroke="#606060" stroke-width="1.0"/>
   <path id="arrow"
     d="M 11.500037,31.436501 C 11.940474,20.09759 22.043105,11.32322 32.158766,21.979434 L 37.068811,17.246167 C 37.068811,17.246167 37.088388,32 37.088388,32 L 22.160133,31.978069 C 22.160133,31.978069 26.997745,27.140456 26.997745,27.140456 C 18.528582,18.264221 13.291696,25.230495 11.500037,31.436501 z"
     style="fill:#404040;"/>
  </a>
 </g>
</svg>

<style type='text/css'>
<![CDATA[
[data-mouse-over-selected='false'] { opacity: 0.7; }
[data-mouse-over-selected='true']  { opacity: 1.0; }
]]>
</style>
<script type="application/ecmascript"><![CDATA[
document.addEventListener('DOMContentLoaded', (event) => {
  highlightEdges();
  highlightAdjacentNodes();
});
]]></script>
</svg>
